#N canvas 903 126 848 871 12;
#X obj 276 216 jl/envgen 5 50 500 0 1 0.3;
#X obj 276 241 line~;
#X obj 129 306 jl/feedfm~;
#X obj 174 451 jl/gdelay~ 4 5000;
#X obj 177 364 *~;
#X obj 275 168 bng 19 250 50 0 empty empty empty 0 -10 0 12 #fcfcfc #000000 #000000;
#X floatatom 140 104 5 0 0 0 - - - 0;
#X floatatom 155 126 5 0 0 0 - - - 0;
#X floatatom 168 148 5 0 0 0 - - - 0;
#X floatatom 183 170 5 0 0 0 - - - 0;
#X obj 359 338 vsl 19 162 0 1 0 0 empty empty empty 0 -9 0 12 #fcfcfc #000000 #000000 0 0;
#X obj 250 505 *~;
#X obj 359 534 line~;
#X msg 359 509 \$1 10;
#X obj 233 572 dac~ 1 2;
#X connect 0 0 1 0;
#X connect 1 0 4 1;
#X connect 1 0 2 3;
#X connect 2 0 4 0;
#X connect 3 0 11 0;
#X connect 4 0 3 0;
#X connect 5 0 0 0;
#X connect 6 0 2 0;
#X connect 7 0 2 1;
#X connect 8 0 2 2;
#X connect 9 0 2 3;
#X connect 10 0 13 0;
#X connect 11 0 14 0;
#X connect 11 0 14 1;
#X connect 12 0 11 1;
#X connect 13 0 12 0;
