#N canvas 410 223 1231 744 12;
#X obj 692 604 loadbang;
#X obj 129 379 r \$0-fadi;
#X obj 898 279 +;
#X obj 907 253 t b f;
#X obj 907 230 r \$0-interrupt-headroom;
#X obj 898 207 r \$0-interrupt;
#N canvas 179 217 319 257 fadein 0;
#X obj 101 148 pack f f;
#X msg 101 125 1;
#X obj 101 91 t b;
#X obj 101 69 inlet;
#X obj 101 177 outlet;
#X obj 154 125 r \$0-real-fadi;
#X connect 0 0 4 0;
#X connect 1 0 0 0;
#X connect 2 0 1 0;
#X connect 3 0 2 0;
#X connect 5 0 0 1;
#X restore 903 380 pd fadein;
#N canvas 223 286 319 257 fadeout 0;
#X obj 101 148 pack f f;
#X obj 101 91 t b;
#X obj 101 69 inlet;
#X obj 101 177 outlet;
#X msg 101 122 0;
#X obj 155 124 r \$0-real-fado;
#X connect 0 0 3 0;
#X connect 1 0 4 0;
#X connect 2 0 1 0;
#X connect 4 0 0 0;
#X connect 5 0 0 1;
#X restore 821 380 pd fadeout;
#X obj 201 379 r \$0-fado;
#X obj 851 207 +;
#X obj 860 180 t b f;
#X obj 860 156 r \$0-interrupt-headroom;
#X obj 339 496 tabread4~;
#X msg 298 297 set \$1;
#X obj 298 273 r \$0-array-name;
#X obj 357 302 r \$0-trig;
#X obj 556 658 outlet~;
#X obj 556 632 *~;
#X obj 379 325 r \$0-beg;
#X obj 403 348 r \$0-end;
#X obj 425 371 r \$0-pitch;
#X obj 448 394 r \$0-rvs;
#X obj 471 417 r \$0-samples;
#X obj 494 440 r \$0-samplerate;
#N canvas 904 382 824 635 tabread-line-ctrl 0;
#X obj 212 532 line~;
#X obj 170 395 pack f f f;
#X obj 170 375 f;
#X obj 253 254 -;
#X obj 185 226 t f f;
#X obj 229 226 t f b f;
#X obj 253 275 abs;
#X obj 185 201 *;
#X obj 229 201 *;
#X obj 193 166 t b f b f;
#X obj 253 303 / 44.1;
#X msg 170 469 \$1 \, \$2 \$3;
#X msg 245 469 \$2 \, \$1 \$3;
#X obj 170 445 spigot;
#X obj 245 445 spigot;
#X obj 474 255 t f f;
#X obj 437 255 == 0;
#X obj 513 201 loadbang;
#X msg 513 222 0;
#X obj 321 200 expr exp($f1*0.057762265);
#X obj 170 417 t l l;
#X obj 185 43 inlet beg;
#X obj 253 43 inlet end;
#X obj 321 43 inlet pitch;
#X obj 399 43 inlet rvs;
#X obj 253 364 t f f;
#X obj 212 563 outlet~ line-output;
#X obj 354 563 outlet line-duration;
#X obj 464 43 inlet samples;
#X obj 564 43 inlet samplerate;
#X obj 564 65 * 0.001;
#X obj 281 254 t b f;
#X obj 115 43 inlet trig;
#X obj 115 226 t b;
#X obj 321 255 swap 1;
#X obj 321 279 /;
#X obj 253 341 * 1;
#X obj 321 303 t b f f;
#X obj 502 563 outlet duration-ratio;
#X connect 0 0 26 0;
#X connect 1 0 20 0;
#X connect 2 0 1 0;
#X connect 3 0 6 0;
#X connect 4 0 2 1;
#X connect 4 1 3 0;
#X connect 5 0 1 1;
#X connect 5 1 3 0;
#X connect 5 2 3 1;
#X connect 6 0 10 0;
#X connect 7 0 4 0;
#X connect 8 0 5 0;
#X connect 9 0 7 0;
#X connect 9 1 7 1;
#X connect 9 2 8 0;
#X connect 9 3 8 1;
#X connect 10 0 36 0;
#X connect 11 0 0 0;
#X connect 12 0 0 0;
#X connect 13 0 11 0;
#X connect 14 0 12 0;
#X connect 15 0 16 0;
#X connect 15 1 14 1;
#X connect 16 0 13 1;
#X connect 17 0 18 0;
#X connect 18 0 15 0;
#X connect 19 0 34 0;
#X connect 20 0 13 0;
#X connect 20 1 14 0;
#X connect 21 0 7 0;
#X connect 22 0 8 0;
#X connect 23 0 19 0;
#X connect 24 0 15 0;
#X connect 25 0 1 2;
#X connect 25 1 27 0;
#X connect 28 0 9 0;
#X connect 29 0 30 0;
#X connect 30 0 31 0;
#X connect 31 0 10 0;
#X connect 31 1 10 1;
#X connect 32 0 33 0;
#X connect 33 0 2 0;
#X connect 34 0 35 0;
#X connect 34 1 35 1;
#X connect 35 0 37 0;
#X connect 36 0 25 0;
#X connect 37 0 36 0;
#X connect 37 1 36 1;
#X connect 37 2 38 0;
#X restore 357 463 pd tabread-line-ctrl;
#N canvas 237 275 462 492 compute-real-fades 0;
#X obj 77 50 inlet duration;
#X obj 194 50 inlet fadi;
#X obj 313 50 inlet fado;
#X obj 194 81 t f f;
#X obj 313 81 t f f;
#X obj 255 160 +;
#X obj 258 129 t b f;
#X obj 77 253 /;
#X obj 90 223 t b f;
#X obj 77 276 clip 0 1;
#X obj 194 416 *;
#X obj 313 416 *;
#X obj 206 384 t b f;
#X obj 325 384 t b f;
#X obj 77 299 t f f;
#X obj 313 444 outlet real-fado;
#X obj 194 444 outlet real-fadi;
#X connect 0 0 7 0;
#X connect 1 0 3 0;
#X connect 2 0 4 0;
#X connect 3 0 10 0;
#X connect 3 1 5 0;
#X connect 4 0 11 0;
#X connect 4 1 6 0;
#X connect 5 0 8 0;
#X connect 6 0 5 0;
#X connect 6 1 5 1;
#X connect 7 0 9 0;
#X connect 8 0 7 0;
#X connect 8 1 7 1;
#X connect 9 0 14 0;
#X connect 10 0 16 0;
#X connect 11 0 15 0;
#X connect 12 0 10 0;
#X connect 12 1 10 1;
#X connect 13 0 11 0;
#X connect 13 1 11 1;
#X connect 14 0 12 0;
#X connect 14 1 13 0;
#X restore 57 403 pd compute-real-fades;
#X obj 437 496 s \$0-duration;
#X obj 57 355 r \$0-duration;
#X obj 57 427 s \$0-real-fadi;
#X obj 201 427 s \$0-real-fado;
#X obj 851 133 r \$0-real-fado;
#X obj 623 435 del;
#X obj 641 411 r \$0-duration;
#X obj 623 459 spigot;
#X obj 662 435 r \$0-loop;
#X msg 636 380 stop;
#X obj 599 299 r \$0-trig;
#X obj 821 354 del;
#X obj 839 110 r \$0-duration;
#X obj 839 257 -;
#X obj 657 223 sel 0 1;
#X obj 787 257 t b b;
#X obj 880 302 del;
#X obj 851 230 t b f;
#N canvas 179 217 319 257 interrupt 0;
#X obj 101 148 pack f f;
#X obj 101 91 t b;
#X obj 101 69 inlet;
#X obj 101 177 outlet;
#X obj 146 127 r \$0-interrupt;
#X msg 101 127 0;
#X connect 0 0 3 0;
#X connect 1 0 5 0;
#X connect 2 0 1 0;
#X connect 4 0 0 1;
#X connect 5 0 0 0;
#X restore 725 380 pd interrupt;
#X obj 880 325 t b b b;
#X obj 925 357 s \$0-trig;
#X text 1032 157 < yes or no ?;
#X obj 821 464 line~;
#X obj 696 322 t b b;
#X obj 703 257 t b b;
#X obj 771 322 t b b;
#X msg 821 323 stop;
#X obj 623 483 s \$0-messages;
#X obj 493 31 inlet messages;
#X obj 365 116 unpack s f f;
#X obj 365 188 s \$0-array-name;
#X obj 405 165 s \$0-samples;
#X obj 446 142 s \$0-samplerate;
#X obj 103 190 s \$0-rvs;
#X obj 80 167 s \$0-pitch;
#X obj 58 144 s \$0-end;
#X obj 34 121 s \$0-beg;
#X obj 125 213 s \$0-loop;
#X obj 218 166 t f;
#X obj 254 166 t f;
#X obj 291 116 t f f;
#X obj 254 189 s \$0-fado;
#X obj 218 212 s \$0-fadi;
#X obj 329 211 s \$0-interrupt;
#X obj 34 75 route beg end pitch rvs loop fadi fado fade interrupt sndinfo;
#X obj 679 177 route float bang;
#X obj 34 49 r \$0-messages;
#X obj 493 56 s \$0-messages;
#X obj 692 650 s \$0-messages;
#X msg 692 627 pitch 0 \, rvs 0 \, loop 0 \, beg 0 \, end 1 \, interrupt 3 \, fade 3;
#X connect 0 0 75 0;
#X connect 1 0 25 1;
#X connect 2 0 42 1;
#X connect 3 0 2 0;
#X connect 3 1 2 1;
#X connect 4 0 3 0;
#X connect 5 0 2 0;
#X connect 6 0 48 0;
#X connect 7 0 48 0;
#X connect 8 0 25 2;
#X connect 9 0 43 0;
#X connect 10 0 9 0;
#X connect 10 1 9 1;
#X connect 12 0 17 0;
#X connect 13 0 12 0;
#X connect 14 0 13 0;
#X connect 15 0 24 0;
#X connect 17 0 16 0;
#X connect 18 0 24 1;
#X connect 19 0 24 2;
#X connect 20 0 24 3;
#X connect 21 0 24 4;
#X connect 22 0 24 5;
#X connect 23 0 24 6;
#X connect 24 0 12 0;
#X connect 24 1 26 0;
#X connect 25 0 28 0;
#X connect 25 1 29 0;
#X connect 27 0 25 0;
#X connect 30 0 9 0;
#X connect 31 0 33 0;
#X connect 32 0 31 1;
#X connect 33 0 53 0;
#X connect 34 0 33 1;
#X connect 35 0 31 0;
#X connect 36 0 31 0;
#X connect 37 0 7 0;
#X connect 38 0 39 0;
#X connect 39 0 37 1;
#X connect 40 0 50 0;
#X connect 40 1 41 0;
#X connect 41 0 49 0;
#X connect 41 1 42 0;
#X connect 42 0 45 0;
#X connect 43 0 39 0;
#X connect 43 1 39 1;
#X connect 44 0 48 0;
#X connect 45 0 37 0;
#X connect 45 1 6 0;
#X connect 45 2 46 0;
#X connect 48 0 17 1;
#X connect 49 0 35 0;
#X connect 49 1 44 0;
#X connect 50 0 35 0;
#X connect 50 1 51 0;
#X connect 51 0 7 0;
#X connect 51 1 52 0;
#X connect 52 0 37 0;
#X connect 54 0 73 0;
#X connect 55 0 56 0;
#X connect 55 1 57 0;
#X connect 55 2 58 0;
#X connect 64 0 68 0;
#X connect 65 0 67 0;
#X connect 66 0 64 0;
#X connect 66 1 65 0;
#X connect 70 0 62 0;
#X connect 70 1 61 0;
#X connect 70 2 60 0;
#X connect 70 3 59 0;
#X connect 70 4 63 0;
#X connect 70 5 64 0;
#X connect 70 6 65 0;
#X connect 70 7 66 0;
#X connect 70 8 69 0;
#X connect 70 9 55 0;
#X connect 70 10 71 0;
#X connect 71 0 40 0;
#X connect 71 1 41 0;
#X connect 72 0 70 0;
#X connect 75 0 74 0;
