#N canvas 354 330 530 487 12;
#X obj 103 144 t f f;
#X obj 108 196 -;
#X obj 147 144 t f f;
#X obj 152 196 -;
#X obj 190 144 t f f;
#X obj 195 196 -;
#X obj 92 317 expr sqrt($f1*$f1 + $f2*$f2 + $f3*$f3);
#X obj 120 26 inlet;
#X obj 166 26 inlet;
#X obj 212 26 inlet;
#X obj 161 436 outlet;
#X obj 120 67 route float;
#X obj 160 400 * 5;
#X obj 92 347 smooth 0.85;
#X obj 339 178 route smooth gain;
#X obj 372 18 loadbang;
#X msg 339 138 smooth \$1;
#X msg 415 138 gain \$1;
#X obj 437 73 sel 0;
#X msg 421 101 1;
#X obj 436 47 f \$2;
#X obj 342 52 f \$1;
#X connect 0 0 1 1;
#X connect 0 1 1 0;
#X connect 1 0 6 0;
#X connect 2 0 3 1;
#X connect 2 1 3 0;
#X connect 3 0 6 1;
#X connect 4 0 5 1;
#X connect 4 1 5 0;
#X connect 5 0 6 2;
#X connect 6 0 13 0;
#X connect 7 0 11 0;
#X connect 8 0 2 0;
#X connect 9 0 4 0;
#X connect 11 0 0 0;
#X connect 11 1 14 0;
#X connect 12 0 10 0;
#X connect 13 0 12 0;
#X connect 14 0 13 1;
#X connect 14 1 12 1;
#X connect 15 0 21 0;
#X connect 15 0 20 0;
#X connect 16 0 14 0;
#X connect 17 0 14 0;
#X connect 18 0 19 0;
#X connect 18 1 17 0;
#X connect 19 0 17 0;
#X connect 20 0 18 0;
#X connect 21 0 16 0;
