#N canvas 167 109 721 891 12;
#X obj 113 250 hcs/folder_list;
#X obj 185 396 f;
#X obj 214 396 + 1;
#X floatatom 246 423 5 0 0 0 - - - 0;
#X obj 113 568 soundfiler;
#X obj 113 279 t s b;
#X msg 180 593 \$1;
#X obj 185 422 t f f f;
#X msg 243 287 -1;
#X msg 221 352 0;
#X obj 113 30 inlet;
#X obj 113 225 makefilename %s/*.wav;
#X obj 255 542 text define \$1;
#X obj 226 786 text set \$1;
#X obj 243 313 text delete \$1;
#X obj 113 149 t a b b;
#X obj 113 516 pack s s;
#X obj 185 447 makefilename \$1-%d;
#X msg 113 542 read -resize \$1 \$2;
#X obj 354 250 hcs/folder_list;
#X obj 354 225 makefilename %s/*.csv;
#X obj 117 837 clone -s 0 marked-soundbank-unit \$2 \$1;
#X obj 354 147 t a b b;
#X obj 113 78 t a a;
#X obj 402 396 f;
#X obj 431 396 + 1;
#X floatatom 463 423 5 0 0 0 - - - 0;
#X obj 402 422 t f f f;
#X msg 438 352 0;
#X obj 354 516 send;
#X obj 354 279 t s b;
#X msg 354 490 read -c \$1;
#X obj 402 447 makefilename markers-\$1-%d;
#X obj 113 653 pack f f;
#X connect 0 0 5 0;
#X connect 1 0 2 0;
#X connect 1 0 7 0;
#X connect 2 0 1 1;
#X connect 4 0 33 0;
#X connect 4 1 6 0;
#X connect 5 0 16 0;
#X connect 5 1 1 0;
#X connect 6 0 33 1;
#X connect 7 0 17 0;
#X connect 7 1 13 1;
#X connect 7 2 3 0;
#X connect 8 0 14 0;
#X connect 9 0 1 1;
#X connect 10 0 23 0;
#X connect 11 0 0 0;
#X connect 15 0 11 0;
#X connect 15 1 9 0;
#X connect 15 2 8 0;
#X connect 16 0 18 0;
#X connect 17 0 16 1;
#X connect 18 0 4 0;
#X connect 19 0 30 0;
#X connect 20 0 19 0;
#X connect 22 0 20 0;
#X connect 22 1 28 0;
#X connect 23 0 15 0;
#X connect 23 1 22 0;
#X connect 24 0 25 0;
#X connect 24 0 27 0;
#X connect 25 0 24 1;
#X connect 27 0 32 0;
#X connect 27 2 26 0;
#X connect 28 0 24 1;
#X connect 30 0 31 0;
#X connect 30 1 24 0;
#X connect 31 0 29 0;
#X connect 32 0 29 1;
#X connect 33 0 13 0;
