#N canvas 148 44 683 456 12;
#N canvas 224 224 964 536 normalize-midi-input 0;
#X obj 139 145 bendin 1;
#X obj 143 282 bendin 2;
#X obj 370 341 bendin 3;
#X obj 370 220 bendin 4;
#X obj 368 100 bendin 5;
#X obj 641 102 notein 7;
#X obj 694 128 != 0;
#X obj 641 155 pack f f;
#X obj 641 183 route 1 2 3 4 5;
#X text 373 315 accel Z;
#X text 374 194 accel Y;
#X text 371 74 accel X;
#X text 144 117 breath;
#X text 156 256 knob;
#X obj 139 197 s phorminx-breath;
#X obj 143 332 s phorminx-knob;
#X obj 368 151 s phorminx-accel-x;
#X obj 370 270 s phorminx-accel-y;
#X obj 370 392 s phorminx-accel-z;
#X obj 607 357 s phorminx-yellow-btn;
#X obj 651 323 s phorminx-btn-1;
#X obj 687 295 s phorminx-btn-2;
#X obj 735 267 s phorminx-btn-3;
#X obj 762 237 s phorminx-btn-4;
#X obj 139 171 expr ($f1/16383)*2-1;
#X obj 143 307 / 16383;
#X obj 370 367 expr ($f1/16383)*2-1;
#X obj 370 245 expr ($f1/16383)*2-1;
#X obj 368 125 expr ($f1/16383)*2-1;
#X connect 0 0 24 0;
#X connect 1 0 25 0;
#X connect 2 0 26 0;
#X connect 3 0 27 0;
#X connect 4 0 28 0;
#X connect 5 0 7 0;
#X connect 5 1 6 0;
#X connect 6 0 7 1;
#X connect 7 0 8 0;
#X connect 8 0 19 0;
#X connect 8 1 20 0;
#X connect 8 2 21 0;
#X connect 8 3 22 0;
#X connect 8 4 23 0;
#X connect 24 0 14 0;
#X connect 25 0 15 0;
#X connect 26 0 18 0;
#X connect 27 0 17 0;
#X connect 28 0 16 0;
#X restore 337 67 pd normalize-midi-input;
#N canvas 32 32 692 468 visualize 0;
#X obj 174 163 vsl 19 162 0 1 0 0 empty empty empty 0 -9 0 12 #c6feff #000000 #000000 0 0;
#X obj 227 163 vsl 19 162 0 1 0 0 empty empty empty 0 -9 0 12 #000000 #ffffff #000000 0 0;
#X obj 281 163 vsl 19 162 0 1 0 0 empty empty empty 0 -9 0 12 #fcfcfc #000000 #000000 0 0;
#X obj 305 163 vsl 19 162 0 1 0 0 empty empty empty 0 -9 0 12 #fcfcfc #000000 #000000 0 0;
#X obj 329 163 vsl 19 162 0 1 0 0 empty empty empty 0 -9 0 12 #fcfcfc #000000 #000000 0 0;
#X obj 378 174 tgl 25 0 empty empty empty 0 -10 0 12 #faff00 #000000 #000000 0 1;
#X obj 381 217 tgl 19 0 empty empty empty 0 -10 0 12 #fcfcfc #000000 #000000 0 1;
#X obj 381 242 tgl 19 0 empty empty empty 0 -10 0 12 #fcfcfc #000000 #000000 0 1;
#X obj 381 267 tgl 19 0 empty empty empty 0 -10 0 12 #fcfcfc #000000 #000000 0 1;
#X obj 381 293 tgl 19 0 empty empty empty 0 -10 0 12 #fcfcfc #000000 #000000 0 1;
#X obj 425 33 r phorminx-accel-z;
#X obj 323 85 r phorminx-accel-y;
#X obj 287 34 r phorminx-accel-x;
#X obj 134 41 r phorminx-breath;
#X obj 193 95 r phorminx-knob;
#X obj 134 65 expr $f1*0.5+0.5;
#X obj 287 59 expr $f1*0.5+0.5;
#X obj 322 109 expr $f1*0.5+0.5;
#X obj 425 57 expr $f1*0.5+0.5;
#X obj 479 96 r phorminx-yellow-btn;
#X obj 476 141 r phorminx-btn-1;
#X obj 476 165 r phorminx-btn-2;
#X obj 476 189 r phorminx-btn-3;
#X obj 476 214 r phorminx-btn-4;
#X text 156 330 souffle;
#X text 221 330 knob;
#X text 284 330 x;
#X text 308 330 y;
#X text 334 330 z;
#X connect 10 0 18 0;
#X connect 11 0 17 0;
#X connect 12 0 16 0;
#X connect 13 0 15 0;
#X connect 14 0 1 0;
#X connect 15 0 0 0;
#X connect 16 0 2 0;
#X connect 17 0 3 0;
#X connect 18 0 4 0;
#X connect 19 0 5 0;
#X connect 20 0 6 0;
#X connect 21 0 7 0;
#X connect 22 0 8 0;
#X connect 23 0 9 0;
#X coords 0 -1 1 1 275 200 2 150 150;
#X restore 55 67 pd visualize;
#N canvas 96 96 776 784 orientation-and-trig 0;
#X obj 542 43 hsl 162 19 0 0.99 0 0 empty empty empty -2 -10 0 12 #fcfcfc #000000 #000000 0 0;
#N canvas 192 192 577 491 onepole 0;
#X obj 180 278 f;
#X obj 127 277 +;
#X obj 180 322 *;
#X obj 127 90 t f b, f 8;
#X obj 127 322 t f f;
#X obj 145 139 expr 1-$f1;
#X obj 252 89 t f f;
#X obj 127 420 outlet;
#X obj 61 30 inlet;
#X obj 252 55 inlet;
#X obj 127 166 * 1;
#X obj 87 60 t f f;
#X obj 87 376 -;
#X obj 180 420 outlet;
#X text 255 340 y[n] = x[n] * a - y[n-1] * (1 - a);
#X text 254 381 rightmost :;
#X text 256 405 value = x[n] - y[n] (cheap highpass);
#X text 254 315 leftmost :;
#X connect 0 0 2 0;
#X connect 1 0 4 0;
#X connect 2 0 1 1;
#X connect 3 0 10 0;
#X connect 3 1 0 0;
#X connect 4 0 7 0;
#X connect 4 0 12 1;
#X connect 4 1 0 1;
#X connect 5 0 10 1;
#X connect 6 0 5 0;
#X connect 6 1 2 1;
#X connect 8 0 11 0;
#X connect 9 0 6 0;
#X connect 10 0 1 0;
#X connect 11 0 12 0;
#X connect 11 1 3 0;
#X connect 12 0 13 0;
#X restore 86 105 pd onepole;
#N canvas 192 192 577 491 onepole 0;
#X obj 180 278 f;
#X obj 127 277 +;
#X obj 180 322 *;
#X obj 127 90 t f b, f 8;
#X obj 127 322 t f f;
#X obj 145 139 expr 1-$f1;
#X obj 252 89 t f f;
#X obj 127 420 outlet;
#X obj 61 30 inlet;
#X obj 252 55 inlet;
#X obj 127 166 * 1;
#X obj 87 60 t f f;
#X obj 87 376 -;
#X obj 180 420 outlet;
#X text 255 340 y[n] = x[n] * a - y[n-1] * (1 - a);
#X text 254 381 rightmost :;
#X text 256 405 value = x[n] - y[n] (cheap highpass);
#X text 254 315 leftmost :;
#X connect 0 0 2 0;
#X connect 1 0 4 0;
#X connect 2 0 1 1;
#X connect 3 0 10 0;
#X connect 3 1 0 0;
#X connect 4 0 7 0;
#X connect 4 0 12 1;
#X connect 4 1 0 1;
#X connect 5 0 10 1;
#X connect 6 0 5 0;
#X connect 6 1 2 1;
#X connect 8 0 11 0;
#X connect 9 0 6 0;
#X connect 10 0 1 0;
#X connect 11 0 12 0;
#X connect 11 1 3 0;
#X connect 12 0 13 0;
#X restore 267 106 pd onepole;
#N canvas 192 192 577 491 onepole 0;
#X obj 180 278 f;
#X obj 127 277 +;
#X obj 180 322 *;
#X obj 127 90 t f b, f 8;
#X obj 127 322 t f f;
#X obj 145 139 expr 1-$f1;
#X obj 252 89 t f f;
#X obj 127 420 outlet;
#X obj 61 30 inlet;
#X obj 252 55 inlet;
#X obj 127 166 * 1;
#X obj 87 60 t f f;
#X obj 87 376 -;
#X obj 180 420 outlet;
#X text 255 340 y[n] = x[n] * a - y[n-1] * (1 - a);
#X text 254 381 rightmost :;
#X text 256 405 value = x[n] - y[n] (cheap highpass);
#X text 254 315 leftmost :;
#X connect 0 0 2 0;
#X connect 1 0 4 0;
#X connect 2 0 1 1;
#X connect 3 0 10 0;
#X connect 3 1 0 0;
#X connect 4 0 7 0;
#X connect 4 0 12 1;
#X connect 4 1 0 1;
#X connect 5 0 10 1;
#X connect 6 0 5 0;
#X connect 6 1 2 1;
#X connect 8 0 11 0;
#X connect 9 0 6 0;
#X connect 10 0 1 0;
#X connect 11 0 12 0;
#X connect 11 1 3 0;
#X connect 12 0 13 0;
#X restore 405 133 pd onepole;
#X obj 267 78 r phorminx-accel-y;
#X obj 86 586 vsl 19 162 0 1 0 0 empty empty empty 0 -9 0 12 #fcfcfc #000000 #000000 0 0;
#X obj 110 586 vsl 19 162 0 1 0 0 empty empty empty 0 -9 0 12 #fcfcfc #000000 #000000 0 0;
#X obj 134 586 vsl 19 162 0 1 0 0 empty empty empty 0 -9 0 12 #fcfcfc #000000 #000000 0 0;
#X obj 86 452 expr $f1*0.5+0.5;
#X obj 86 78 r phorminx-accel-x;
#X obj 405 105 r phorminx-accel-z;
#X obj 86 133 clip -0.5 0.5;
#X obj 86 158 * 2;
#X obj 268 134 clip -0.5 0.5;
#X obj 268 159 * 2;
#X obj 405 160 clip -0.5 0.5;
#X obj 405 185 * 2;
#X floatatom 555 79 5 0 0 0 - - - 0;
#X obj 86 185 expr asin($f1)*2/3.14159;
#X msg 539 16 0.91;
#N canvas 128 128 585 858 hit-detection 0;
#X obj 134 50 expr sqrt($f1*$f1 + $f2*$f2 + $f3*$f3);
#X obj 137 267 t f f;
#X obj 137 305 -;
#X obj 134 20 inlet;
#X obj 265 20 inlet;
#X obj 397 20 inlet;
#X obj 216 542 change;
#X obj 216 402 >;
#X floatatom 276 364 5 0 0 0 - - - 0;
#X obj 216 427 sel 1;
#X obj 267 427 sel 1;
#X msg 299 478 0;
#X obj 267 452 t b b;
#X msg 216 478 1;
#X obj 137 583 spigot;
#X obj 227 364 t f f;
#X obj 137 390 f;
#X msg 276 335 0.1;
#X obj 137 331 t b f;
#N canvas 160 160 331 327 onebang 0;
#X obj 125 159 spigot;
#X obj 125 187 t b b;
#X msg 195 173 0;
#X msg 164 126 1;
#X obj 103 43 inlet;
#X obj 164 43 inlet;
#X obj 112 238 outlet;
#X connect 0 0 1 0;
#X connect 1 0 6 0;
#X connect 1 1 2 0;
#X connect 2 0 0 1;
#X connect 3 0 0 1;
#X connect 4 0 0 0;
#X connect 5 0 3 0;
#X restore 267 543 pd onebang;
#X obj 267 569 t b b;
#X obj 184 642 max;
#X obj 184 668 t f f;
#X obj 259 714 f;
#X obj 216 451 t b b;
#X msg 202 616 0;
#X obj 99 175 hsl 162 19 0 0.99 0 0 empty empty empty -2 -10 0 12 #fcfcfc #000000 #000000 0 0;
#X obj 201 231 t f f;
#X obj 276 310 loadbang;
#X obj 267 402 < 0;
#X obj 259 772 outlet;
#X floatatom 96 199 5 0 0 0 - - - 0;
#N canvas 192 192 577 491 onepole 0;
#X obj 180 278 f;
#X obj 127 277 +;
#X obj 180 322 *;
#X obj 127 90 t f b, f 8;
#X obj 127 322 t f f;
#X obj 145 139 expr 1-$f1;
#X obj 252 89 t f f;
#X obj 127 420 outlet;
#X obj 61 30 inlet;
#X obj 252 55 inlet;
#X obj 127 166 * 1;
#X obj 87 60 t f f;
#X obj 87 376 -;
#X obj 180 420 outlet;
#X text 255 340 y[n] = x[n] * a - y[n-1] * (1 - a);
#X text 254 381 rightmost :;
#X text 256 405 value = x[n] - y[n] (cheap highpass);
#X text 254 315 leftmost :;
#X connect 0 0 2 0;
#X connect 1 0 4 0;
#X connect 2 0 1 1;
#X connect 3 0 10 0;
#X connect 3 1 0 0;
#X connect 4 0 7 0;
#X connect 4 0 12 1;
#X connect 4 1 0 1;
#X connect 5 0 10 1;
#X connect 6 0 5 0;
#X connect 6 1 2 1;
#X connect 8 0 11 0;
#X connect 9 0 6 0;
#X connect 10 0 1 0;
#X connect 11 0 12 0;
#X connect 11 1 3 0;
#X connect 12 0 13 0;
#X restore 134 116 pd onepole;
#X floatatom 227 141 5 0 0 0 - - - 0;
#X obj 227 90 loadbang;
#X msg 227 116 0.75;
#X connect 0 0 32 0;
#X connect 1 0 2 1;
#X connect 1 1 2 0;
#X connect 2 0 18 0;
#X connect 3 0 0 0;
#X connect 4 0 0 1;
#X connect 5 0 0 2;
#X connect 6 0 14 1;
#X connect 7 0 9 0;
#X connect 8 0 7 1;
#X connect 9 0 24 0;
#X connect 10 0 12 0;
#X connect 11 0 6 0;
#X connect 12 0 19 0;
#X connect 12 1 11 0;
#X connect 13 0 6 0;
#X connect 14 0 21 0;
#X connect 15 0 7 0;
#X connect 15 1 29 0;
#X connect 16 0 14 0;
#X connect 17 0 8 0;
#X connect 18 0 16 0;
#X connect 18 1 15 0;
#X connect 19 0 20 0;
#X connect 20 0 25 0;
#X connect 20 1 23 0;
#X connect 21 0 22 0;
#X connect 22 0 21 1;
#X connect 22 1 23 1;
#X connect 23 0 30 0;
#X connect 24 0 13 0;
#X connect 24 1 19 1;
#X connect 25 0 21 1;
#X connect 26 0 31 0;
#X connect 27 0 1 0;
#X connect 27 1 16 1;
#X connect 28 0 17 0;
#X connect 29 0 10 0;
#X connect 32 0 26 0;
#X connect 32 0 27 0;
#X connect 33 0 32 1;
#X connect 34 0 35 0;
#X connect 35 0 33 0;
#X restore 429 316 pd hit-detection;
#X obj 429 351 bng 19 250 50 0 empty empty empty 0 -10 0 12 #fcfcfc #000000 #000000;
#X obj 456 351 hsl 162 19 0 0.99 0 0 empty empty empty -2 -10 0 12 #fcfcfc #000000 #000000 0 0;
#X obj 583 16 loadbang;
#X obj 268 226 expr atan2($f1 \, $f2);
#X floatatom 360 454 7 0 0 0 - - - 24;
#X obj 358 426 i;
#X obj 358 396 jl/map -3.14159 3.14159 0 360;
#X obj 110 507 expr $f1*0.5+0.5;
#X obj 134 558 expr $f1*0.5+0.5;
#X obj 110 483 expr asin($f1)*2/3.14159;
#X obj 134 534 expr asin($f1)*2/3.14159;
#X connect 0 0 1 1;
#X connect 0 0 2 1;
#X connect 0 0 3 1;
#X connect 0 0 17 0;
#X connect 1 0 11 0;
#X connect 1 1 20 0;
#X connect 2 0 13 0;
#X connect 2 1 20 1;
#X connect 3 0 15 0;
#X connect 3 1 20 2;
#X connect 4 0 2 0;
#X connect 8 0 5 0;
#X connect 9 0 1 0;
#X connect 10 0 3 0;
#X connect 11 0 12 0;
#X connect 12 0 18 0;
#X connect 13 0 14 0;
#X connect 14 0 24 0;
#X connect 15 0 16 0;
#X connect 16 0 24 1;
#X connect 18 0 8 0;
#X connect 19 0 0 0;
#X connect 20 0 21 0;
#X connect 20 0 22 0;
#X connect 23 0 19 0;
#X connect 24 0 27 0;
#X connect 26 0 25 0;
#X connect 27 0 26 0;
#X connect 28 0 6 0;
#X connect 29 0 7 0;
#X connect 30 0 28 0;
#X connect 31 0 29 0;
#X restore 337 93 pd orientation-and-trig;
#N canvas 64 64 661 438 accel-calibration 0;
#X obj 350 170 tgl 19 0 empty empty empty 0 -10 0 12 #fcfcfc #000000 #000000 0 1;
#N canvas 192 192 643 432 calibrate-accels 0;
#N canvas 96 96 450 300 bounds 0;
#X obj 171 162 <;
#X obj 132 189 spigot;
#X obj 132 132 t f f;
#X obj 207 188 spigot;
#X obj 207 131 t f f;
#X obj 246 161 >;
#X obj 132 46 inlet;
#X obj 189 45 inlet;
#X obj 264 45 inlet;
#X obj 132 223 outlet;
#X obj 207 222 outlet;
#X obj 132 75 t f f;
#X connect 0 0 1 1;
#X connect 1 0 0 1;
#X connect 1 0 9 0;
#X connect 2 0 1 0;
#X connect 2 1 0 0;
#X connect 3 0 5 1;
#X connect 3 0 10 0;
#X connect 4 0 3 0;
#X connect 4 1 5 0;
#X connect 5 0 3 1;
#X connect 6 0 11 0;
#X connect 7 0 0 1;
#X connect 8 0 5 1;
#X connect 11 0 2 0;
#X connect 11 1 4 0;
#X restore 115 253 pd bounds;
#X obj 145 223 t f f;
#N canvas 96 96 450 300 bounds 0;
#X obj 171 162 <;
#X obj 132 189 spigot;
#X obj 132 132 t f f;
#X obj 207 188 spigot;
#X obj 207 131 t f f;
#X obj 246 161 >;
#X obj 132 46 inlet;
#X obj 189 45 inlet;
#X obj 264 45 inlet;
#X obj 132 223 outlet;
#X obj 207 222 outlet;
#X obj 132 75 t f f;
#X connect 0 0 1 1;
#X connect 1 0 0 1;
#X connect 1 0 9 0;
#X connect 2 0 1 0;
#X connect 2 1 0 0;
#X connect 3 0 5 1;
#X connect 3 0 10 0;
#X connect 4 0 3 0;
#X connect 4 1 5 0;
#X connect 5 0 3 1;
#X connect 6 0 11 0;
#X connect 7 0 0 1;
#X connect 8 0 5 1;
#X connect 11 0 2 0;
#X connect 11 1 4 0;
#X restore 218 252 pd bounds;
#X obj 248 222 t f f;
#N canvas 96 96 450 300 bounds 0;
#X obj 171 162 <;
#X obj 132 189 spigot;
#X obj 132 132 t f f;
#X obj 207 188 spigot;
#X obj 207 131 t f f;
#X obj 246 161 >;
#X obj 132 46 inlet;
#X obj 189 45 inlet;
#X obj 264 45 inlet;
#X obj 132 223 outlet;
#X obj 207 222 outlet;
#X obj 132 75 t f f;
#X connect 0 0 1 1;
#X connect 1 0 0 1;
#X connect 1 0 9 0;
#X connect 2 0 1 0;
#X connect 2 1 0 0;
#X connect 3 0 5 1;
#X connect 3 0 10 0;
#X connect 4 0 3 0;
#X connect 4 1 5 0;
#X connect 5 0 3 1;
#X connect 6 0 11 0;
#X connect 7 0 0 1;
#X connect 8 0 5 1;
#X connect 11 0 2 0;
#X connect 11 1 4 0;
#X restore 321 250 pd bounds;
#X obj 351 220 t f f;
#X obj 115 184 spigot;
#X obj 218 184 spigot;
#X obj 321 184 spigot;
#X obj 115 39 inlet;
#X obj 159 39 inlet;
#X obj 202 39 inlet;
#X obj 266 39 inlet;
#X obj 360 39 inlet;
#X obj 115 290 pack f f;
#X obj 115 317 outlet;
#X obj 218 290 pack f f;
#X obj 218 317 outlet;
#X obj 321 290 pack f f;
#X obj 321 317 outlet;
#X connect 0 0 14 0;
#X connect 0 1 14 1;
#X connect 1 0 0 1;
#X connect 1 1 0 2;
#X connect 2 0 16 0;
#X connect 2 1 16 1;
#X connect 3 0 2 1;
#X connect 3 1 2 2;
#X connect 4 0 18 0;
#X connect 4 1 18 1;
#X connect 5 0 4 1;
#X connect 5 1 4 2;
#X connect 6 0 0 0;
#X connect 7 0 2 0;
#X connect 8 0 4 0;
#X connect 9 0 6 0;
#X connect 10 0 7 0;
#X connect 11 0 8 0;
#X connect 12 0 1 0;
#X connect 12 0 3 0;
#X connect 12 0 5 0;
#X connect 13 0 6 1;
#X connect 13 0 7 1;
#X connect 13 0 8 1;
#X connect 14 0 15 0;
#X connect 16 0 17 0;
#X connect 18 0 19 0;
#X restore 205 170 pd calibrate-accels;
#X text 341 137 reset to center value;
#X text 375 169 enable calibration;
#X obj 205 62 r phorminx-accel-z;
#X obj 237 85 r phorminx-accel-y;
#X obj 270 108 r phorminx-accel-x;
#X floatatom 118 284 9 0 0 0 - - - 0;
#X floatatom 185 284 9 0 0 0 - - - 0;
#X obj 118 257 unpack f f;
#X floatatom 270 284 9 0 0 0 - - - 0;
#X floatatom 337 284 9 0 0 0 - - - 0;
#X obj 270 257 unpack f f;
#X floatatom 423 284 9 0 0 0 - - - 0;
#X floatatom 490 284 9 0 0 0 - - - 0;
#X obj 423 257 unpack f f;
#X msg 302 138 0;
#X connect 0 0 1 4;
#X connect 1 0 9 0;
#X connect 1 1 12 0;
#X connect 1 2 15 0;
#X connect 4 0 1 0;
#X connect 5 0 1 1;
#X connect 6 0 1 2;
#X connect 9 0 7 0;
#X connect 9 1 8 0;
#X connect 12 0 10 0;
#X connect 12 1 11 0;
#X connect 15 0 13 0;
#X connect 15 1 14 0;
#X connect 16 0 1 3;
#X restore 55 300 pd accel-calibration (archive);
#N canvas 64 64 538 702 DEV-NOTES 1;
#X text 44 99 - harpe avec inclino (séparation gravite / mouvement);
#X text 43 157 - interface "trompette" (sons abstraits);
#X text 44 179 - inclinos pour modulation bande (gbend pitch / filtre);
#X text 42 120 - samples percussifs (détection onsets accéléro / et ou boutons);
#X text 45 222 structure : 12 parties;
#X text 45 265 en tout 36 séquences dont seules 12 seront jouées pendant la performance;
#X text 45 243 chaque partie a 3 versions \, séparées en Dithyrambe / Lune;
#X text 42 50 Thyrse : bâton de fécondité de Dionysos, f 41;
#X text 42 30 Phorminx : mot antique pour lyre / cithare;
#X restore 55 274 pd DEV-NOTES;
