#N canvas 638 35 887 814 12;
#X obj 106 103 bendin 1;
#X obj 171 103 bendin 2;
#X obj 236 103 bendin 3;
#X obj 301 103 bendin 4;
#X obj 367 103 bendin 5;
#X obj 106 156 / 16383;
#X obj 106 184 vsl 19 162 0 1 0 0 empty empty empty 0 -9 0 12 #fcfcfc #000000 #000000 0 0;
#X obj 171 156 / 16383;
#X obj 171 184 vsl 19 162 0 1 0 0 empty empty empty 0 -9 0 12 #fcfcfc #000000 #000000 0 0;
#X obj 236 156 / 16383;
#X obj 236 184 vsl 19 162 0 1 0 0 empty empty empty 0 -9 0 12 #fcfcfc #000000 #000000 0 0;
#X obj 301 156 / 16383;
#X obj 301 184 vsl 19 162 0 1 0 0 empty empty empty 0 -9 0 12 #fcfcfc #000000 #000000 0 0;
#X obj 367 155 / 16383;
#X obj 367 183 vsl 19 162 0 1 0 0 empty empty empty 0 -9 0 12 #fcfcfc #000000 #000000 0 0;
#X obj 451 102 notein 7;
#X obj 504 128 != 0;
#X obj 451 207 tgl 19 0 empty empty empty 0 -10 0 12 #faff00 #000000 #000000 0 1;
#X obj 473 207 tgl 19 0 empty empty empty 0 -10 0 12 #fcfcfc #000000 #000000 0 1;
#X obj 451 155 pack f f;
#X obj 495 207 tgl 19 0 empty empty empty 0 -10 0 12 #fcfcfc #000000 #000000 0 1;
#X obj 517 207 tgl 19 0 empty empty empty 0 -10 0 12 #fcfcfc #000000 #000000 0 1;
#X obj 451 183 route 1 2 3 4 5;
#X obj 539 207 tgl 19 0 empty empty empty 0 -10 0 12 #fcfcfc #000000 #000000 0 1;
#X text 101 443 - harpe avec inclino (séparation gravite / mouvement);
#X text 100 501 - interface "trompette" (sons abstraits);
#X text 101 523 - inclinos pour modulation bande (gbend pitch / filtre);
#X text 99 464 - samples percussifs (détection onsets accéléro / et ou boutons);
#X text 102 609 structure : 12 parties;
#X text 102 652 en tout 36 séquences dont seules 12 seront jouées pendant la performance;
#X text 102 630 chaque partie a 3 versions \, séparées en Dithyrambe / Lune;
#X text 109 396 Thyrse : bâton de fécondité de Dionysos, f 41;
#X text 109 376 Phorminx : mot antique pour lyre / cithare;
#X connect 0 0 5 0;
#X connect 1 0 7 0;
#X connect 2 0 9 0;
#X connect 3 0 11 0;
#X connect 4 0 13 0;
#X connect 5 0 6 0;
#X connect 7 0 8 0;
#X connect 9 0 10 0;
#X connect 11 0 12 0;
#X connect 13 0 14 0;
#X connect 15 0 19 0;
#X connect 15 1 16 0;
#X connect 16 0 19 1;
#X connect 19 0 22 0;
#X connect 22 0 17 0;
#X connect 22 1 18 0;
#X connect 22 2 20 0;
#X connect 22 3 21 0;
#X connect 22 4 23 0;
