#N canvas 26 26 875 511 12;
#X obj 166 206 moses;
#X obj 211 206 moses;
#X obj 214 298 bng 19 250 50 0 empty empty empty 0 -10 0 12 #fcfcfc #000000 #000000;
#X msg 214 324 0;
#X obj 256 206 moses;
#X obj 286 143 t f f;
#X obj 390 144 t f f;
#X obj 264 325 jl/map 0 1 0 1;
#X obj 331 143 t f f f;
#X obj 375 325 jl/map 0 1 1 0;
#X obj 264 382 t f;
#X msg 450 204 xfactor \$1;
#X msg 467 227 xfactor \$1;
#X obj 264 422 outlet;
#X obj 124 52 inlet input;
#X obj 259 52 inlet min;
#X obj 331 52 inlet mid;
#X obj 403 52 inlet max;
#X obj 592 102 * -1;
#X obj 485 52 inlet xfactor1;
#X obj 592 52 inlet xfactor2;
#X msg 485 250 sfactor \$1;
#X obj 700 52 inlet sfactor1;
#X msg 502 272 sfactor \$1;
#X obj 277 105 f \$1;
#X obj 331 105 f \$2;
#X obj 394 105 f \$3;
#X obj 467 119 f \$4;
#X obj 592 78 f \$5;
#X obj 700 103 f \$6;
#X obj 457 4 loadbang;
#X text 384 396 maps an input range of the form [min \, mid \, max] from 0 (min) through 1 (mid) to 0 (max) with shaping parameters;
#X connect 0 0 2 0;
#X connect 0 1 1 0;
#X connect 1 0 7 0;
#X connect 1 1 4 0;
#X connect 2 0 3 0;
#X connect 3 0 10 0;
#X connect 4 0 9 0;
#X connect 4 1 2 0;
#X connect 5 0 0 1;
#X connect 5 1 7 1;
#X connect 6 0 4 1;
#X connect 6 1 9 2;
#X connect 7 0 10 0;
#X connect 8 0 1 1;
#X connect 8 1 7 2;
#X connect 8 2 9 1;
#X connect 9 0 10 0;
#X connect 10 0 13 0;
#X connect 11 0 7 0;
#X connect 12 0 9 0;
#X connect 14 0 0 0;
#X connect 15 0 24 0;
#X connect 16 0 25 0;
#X connect 17 0 26 0;
#X connect 18 0 12 0;
#X connect 19 0 27 0;
#X connect 20 0 28 0;
#X connect 21 0 7 0;
#X connect 22 0 29 0;
#X connect 23 0 9 0;
#X connect 24 0 5 0;
#X connect 25 0 8 0;
#X connect 26 0 6 0;
#X connect 27 0 11 0;
#X connect 28 0 18 0;
#X connect 29 0 21 0;
#X connect 29 0 23 0;
#X connect 30 0 24 0;
#X connect 30 0 25 0;
#X connect 30 0 26 0;
#X connect 30 0 27 0;
#X connect 30 0 28 0;
#X connect 30 0 29 0;
