#N canvas 156 156 721 891 12;
#X obj 113 250 hcs/folder_list;
#X obj 185 396 f;
#X obj 214 396 + 1;
#X floatatom 246 423 5 0 0 0 - - - 0;
#X obj 113 568 soundfiler;
#X obj 113 279 t s b;
#X obj 180 617 * 0.001;
#X msg 180 593 \$1;
#X obj 113 653 /;
#X obj 185 422 t f f f;
#X obj 226 704 pack f f;
#X obj 226 752 unpack f f;
#X msg 226 728 \$1 \$2;
#X msg 243 287 -1;
#X msg 221 352 0;
#X obj 113 30 inlet;
#X obj 113 225 makefilename %s/*.wav;
#X obj 271 541 text define \$1;
#X obj 226 786 text set \$1;
#X obj 243 313 text delete \$1;
#X obj 113 78 t a b b;
#X obj 117 837 clone -s 0 soundbank-unit \$2 \$1;
#X obj 113 516 pack s s;
#X obj 185 447 makefilename \$1-%d;
#X msg 113 542 read -resize \$1 \$2;
#X connect 0 0 5 0;
#X connect 1 0 2 0;
#X connect 1 0 9 0;
#X connect 2 0 1 1;
#X connect 4 0 8 0;
#X connect 4 1 7 0;
#X connect 5 0 22 0;
#X connect 5 1 1 0;
#X connect 6 0 8 1;
#X connect 7 0 6 0;
#X connect 8 0 10 0;
#X connect 9 0 23 0;
#X connect 9 1 10 1;
#X connect 9 2 3 0;
#X connect 10 0 12 0;
#X connect 11 0 18 0;
#X connect 11 1 18 1;
#X connect 12 0 11 0;
#X connect 13 0 19 0;
#X connect 14 0 1 1;
#X connect 15 0 20 0;
#X connect 16 0 0 0;
#X connect 20 0 16 0;
#X connect 20 1 14 0;
#X connect 20 2 13 0;
#X connect 22 0 24 0;
#X connect 23 0 22 1;
#X connect 24 0 4 0;
