#N canvas 180 82 1091 775 12;
#X obj 214 101 bng 19 250 50 0 empty empty empty 0 -10 0 12 #fcfcfc #000000 #000000;
#X obj 239 304 route raw;
#X obj 239 128 oscparse;
#X obj 239 102 netreceive -b -u 8001;
#X obj 239 279 route 1;
#X msg 239 182 symbol \$1;
#X obj 239 155 list split 1;
#X obj 239 236 list;
#X obj 239 209 f;
#X obj 239 362 list split 3;
#X obj 410 500 vsl 19 162 0 1 0 0 empty empty empty 0 -9 0 12 #fcfcfc #000000 #000000 0 0;
#X obj 450 500 vsl 19 162 0 1 0 0 empty empty empty 0 -9 0 12 #fcfcfc #000000 #000000 0 0;
#X obj 491 500 vsl 19 162 0 1 0 0 empty empty empty 0 -9 0 12 #fcfcfc #000000 #000000 0 0;
#X obj 410 409 expr $f1*0.5+0.5;
#X obj 450 432 expr $f1*0.5+0.5;
#X obj 491 455 expr $f1*0.5+0.5;
#X obj 682 92 hsl 162 19 0 0.99 0 0 empty empty empty -2 -10 0 12 #fcfcfc #000000 #000000 0 0;
#X obj 470 117 unpack f f f;
#X obj 490 333 expr asin($f1);
#X floatatom 552 400 5 0 0 0 - - - 0;
#X obj 490 308 clip -1 1;
#X obj 720 430 vsl 19 162 0 1 0 0 empty empty empty 0 -9 0 12 #fcfcfc #000000 #000000 0 0;
#X obj 490 358 expr $f1*2/3.14159;
#X obj 720 402 expr $f1*0.5+0.5;
#X obj 352 333 expr asin($f1);
#X obj 352 308 clip -1 1;
#X obj 352 358 expr $f1*2/3.14159;
#X obj 862 278 -;
#X obj 893 417 vsl 19 162 0 1 0 0 empty empty empty 0 -9 0 12 #fcfcfc #000000 #000000 0 0;
#X obj 934 417 vsl 19 162 0 1 0 0 empty empty empty 0 -9 0 12 #fcfcfc #000000 #000000 0 0;
#X obj 872 200 t f f;
#X obj 925 200 t f f;
#X obj 975 257 +;
#X obj 975 283 * 0.5;
#X floatatom 823 340 5 0 0 0 - - - 0;
#X obj 876 307 expr $f1*0.5+0.5;
#X obj 917 330 expr $f1*0.5+0.5;
#N canvas 192 192 406 501 onepole 0;
#X obj 191 250 f;
#X obj 138 249 +;
#X obj 191 294 *;
#X obj 138 62 t f b, f 8;
#X obj 138 294 t f f;
#X obj 156 111 expr 1-$f1;
#X obj 263 61 t f f;
#X obj 138 392 outlet;
#X obj 138 28 inlet;
#X obj 263 27 inlet;
#X obj 138 138 * 1;
#X connect 0 0 2 0;
#X connect 1 0 4 0;
#X connect 2 0 1 1;
#X connect 3 0 10 0;
#X connect 3 1 0 0;
#X connect 4 0 7 0;
#X connect 4 1 0 1;
#X connect 5 0 10 1;
#X connect 6 0 5 0;
#X connect 6 1 2 1;
#X connect 8 0 3 0;
#X connect 9 0 6 0;
#X connect 10 0 1 0;
#X restore 470 145 pd onepole;
#N canvas 192 192 406 453 onepole 0;
#X obj 191 250 f;
#X obj 138 249 +;
#X obj 191 294 *;
#X obj 138 62 t f b, f 8;
#X obj 138 294 t f f;
#X obj 156 111 expr 1-$f1;
#X obj 263 61 t f f;
#X obj 138 392 outlet;
#X obj 72 2 inlet;
#X obj 263 27 inlet;
#X obj 138 138 * 1;
#X obj 98 32 t f f;
#X obj 98 348 -;
#X obj 191 392 outlet;
#X connect 0 0 2 0;
#X connect 1 0 4 0;
#X connect 2 0 1 1;
#X connect 3 0 10 0;
#X connect 3 1 0 0;
#X connect 4 0 7 0;
#X connect 4 0 12 1;
#X connect 4 1 0 1;
#X connect 5 0 10 1;
#X connect 6 0 5 0;
#X connect 6 1 2 1;
#X connect 8 0 11 0;
#X connect 9 0 6 0;
#X connect 10 0 1 0;
#X connect 11 0 12 0;
#X connect 11 1 3 0;
#X connect 12 0 13 0;
#X restore 510 169 pd onepole;
#N canvas 192 192 406 477 onepole 0;
#X obj 191 250 f;
#X obj 138 249 +;
#X obj 191 294 *;
#X obj 138 62 t f b, f 8;
#X obj 138 294 t f f;
#X obj 156 111 expr 1-$f1;
#X obj 263 61 t f f;
#X obj 138 392 outlet;
#X obj 138 28 inlet;
#X obj 263 27 inlet;
#X obj 138 138 * 1;
#X connect 0 0 2 0;
#X connect 1 0 4 0;
#X connect 2 0 1 1;
#X connect 3 0 10 0;
#X connect 3 1 0 0;
#X connect 4 0 7 0;
#X connect 4 1 0 1;
#X connect 5 0 10 1;
#X connect 6 0 5 0;
#X connect 6 1 2 1;
#X connect 8 0 3 0;
#X connect 9 0 6 0;
#X connect 10 0 1 0;
#X restore 551 193 pd onepole;
#X connect 1 0 9 0;
#X connect 2 0 6 0;
#X connect 3 0 2 0;
#X connect 3 0 0 0;
#X connect 4 0 1 0;
#X connect 5 0 8 0;
#X connect 6 0 5 0;
#X connect 6 1 7 1;
#X connect 7 0 4 0;
#X connect 8 0 7 0;
#X connect 9 0 17 0;
#X connect 13 0 10 0;
#X connect 13 0 30 0;
#X connect 14 0 11 0;
#X connect 15 0 12 0;
#X connect 15 0 31 0;
#X connect 16 0 37 1;
#X connect 16 0 38 1;
#X connect 16 0 39 1;
#X connect 17 0 37 0;
#X connect 17 1 38 0;
#X connect 17 2 39 0;
#X connect 18 0 22 0;
#X connect 20 0 18 0;
#X connect 22 0 19 0;
#X connect 22 0 14 0;
#X connect 23 0 21 0;
#X connect 24 0 26 0;
#X connect 25 0 24 0;
#X connect 27 0 34 0;
#X connect 27 0 35 0;
#X connect 30 0 27 0;
#X connect 30 1 32 0;
#X connect 31 0 27 1;
#X connect 31 1 32 1;
#X connect 32 0 33 0;
#X connect 33 0 36 0;
#X connect 35 0 28 0;
#X connect 36 0 29 0;
#X connect 37 0 25 0;
#X connect 37 0 13 0;
#X connect 38 0 20 0;
#X connect 38 1 23 0;
#X connect 39 0 15 0;
