#N canvas 434 286 1224 777 12;
#X obj 510 507 *~ 1;
#X obj 264 607 outlet~;
#X obj 339 607 outlet~;
#X obj 264 548 *~;
#X obj 339 548 *~;
#X obj 184 454 line~;
#X msg 184 429 \$1 10;
#X obj 510 478 inlet~ transposition;
#X obj 184 9 inlet gbend-message;
#X msg 281 365 stop;
#X obj 571 104 hsl 162 19 0 1 0 0 empty empty empty -2 -10 0 12 #fcfcfc #000000 #000000 0 0;
#X msg 568 130 volume \$1;
#X obj 421 230 route 0 1;
#X obj 421 206 pack f f;
#X obj 420 168 == 0;
#X obj 368 150 f;
#X obj 368 175 t f f;
#X obj 399 88 t b f;
#X obj 451 259 t b f;
#X obj 406 259 t b f;
#X msg 406 365 stop;
#X obj 281 321 bng 19 250 50 0 empty empty empty 0 -10 0 12 #fcfcfc #000000 #000000;
#X msg 566 75 1;
#X floatatom 612 164 5 0 0 0 - - - 0;
#X msg 612 190 fadi \$1;
#X floatatom 675 165 5 0 0 0 - - - 0;
#X msg 675 191 fado \$1;
#X obj 562 25 loadbang;
#X msg 604 74 5000;
#X msg 647 73 7500;
#X msg 438 327 set \$1 \, bang;
#X msg 483 302 set \$1 \, bang;
#X obj 184 36 route volume stop set;
#X obj 328 365 t a a;
#X obj 579 225 t a;
#X msg 516 74 beg 0;
#X obj 298 494 clone stereo-player 2 \$2;
#X obj 298 444 list prepend all;
#X obj 298 467 list trim;
#X obj 335 416 list prepend 0;
#X obj 443 416 list prepend 1;
#X connect 0 0 36 1;
#X connect 3 0 1 0;
#X connect 4 0 2 0;
#X connect 5 0 3 0;
#X connect 5 0 4 0;
#X connect 6 0 5 0;
#X connect 7 0 0 0;
#X connect 8 0 32 0;
#X connect 9 0 39 0;
#X connect 10 0 11 0;
#X connect 11 0 34 0;
#X connect 11 0 33 0;
#X connect 12 0 19 0;
#X connect 12 1 18 0;
#X connect 13 0 12 0;
#X connect 14 0 15 1;
#X connect 15 0 16 0;
#X connect 16 0 13 0;
#X connect 16 1 14 0;
#X connect 17 0 15 0;
#X connect 17 1 13 1;
#X connect 18 0 9 0;
#X connect 18 1 31 0;
#X connect 19 0 20 0;
#X connect 19 1 30 0;
#X connect 20 0 40 0;
#X connect 21 0 9 0;
#X connect 21 0 20 0;
#X connect 22 0 10 0;
#X connect 23 0 24 0;
#X connect 24 0 34 0;
#X connect 25 0 26 0;
#X connect 26 0 34 0;
#X connect 27 0 22 0;
#X connect 27 0 28 0;
#X connect 27 0 29 0;
#X connect 27 0 35 0;
#X connect 28 0 23 0;
#X connect 29 0 25 0;
#X connect 30 0 39 0;
#X connect 31 0 40 0;
#X connect 32 0 6 0;
#X connect 32 1 21 0;
#X connect 32 2 17 0;
#X connect 32 3 33 0;
#X connect 33 0 37 0;
#X connect 35 0 34 0;
#X connect 36 0 3 1;
#X connect 36 1 4 1;
#X connect 37 0 38 0;
#X connect 38 0 36 0;
#X connect 39 0 36 0;
#X connect 40 0 36 0;
