#N canvas 782 388 829 603 12;
#X obj 608 120 *~ 1;
#X obj 249 538 outlet~;
#X obj 324 538 outlet~;
#X obj 285 312 t a a;
#X obj 410 84 t f f f;
#X obj 267 451 *~;
#X obj 342 451 *~;
#X obj 144 334 line~;
#X msg 144 309 \$1 10;
#X obj 608 90 inlet~ transposition;
#X obj 144 76 inlet gbend-message;
#X obj 526 155 text get \$2;
#X obj 376 156 makefilename \$2-%d-L;
#X obj 433 131 makefilename \$2-%d-R;
#X obj 144 103 route bang gain volume set;
#X msg 165 238 1;
#X obj 109 254 t f b;
#X obj 100 179 t b b;
#X obj 249 497 *~;
#X obj 324 497 *~;
#X obj 178 430 line~;
#X msg 178 405 \$1 10;
#X obj 109 230 f 1;
#X obj 257 255 t a;
#X obj 321 414 gshot~;
#X obj 372 414 gshot~;
#X msg 376 293 sndinfo \$1 \$2 \$3;
#X obj 376 268 pack s f f;
#X obj 526 179 unpack f f;
#X obj 526 203 t f f;
#X obj 593 203 t f f;
#X msg 499 293 sndinfo \$1 \$2 \$3;
#X obj 499 268 pack s f f;
#X obj 464 384 print;
#X connect 3 0 24 0;
#X connect 3 1 25 0;
#X connect 4 0 12 0;
#X connect 4 1 13 0;
#X connect 4 2 11 0;
#X connect 5 0 18 1;
#X connect 6 0 19 1;
#X connect 7 0 5 0;
#X connect 7 0 6 0;
#X connect 8 0 7 0;
#X connect 9 0 0 0;
#X connect 10 0 14 0;
#X connect 11 0 28 0;
#X connect 12 0 27 0;
#X connect 13 0 32 0;
#X connect 14 0 17 0;
#X connect 14 1 22 1;
#X connect 14 2 21 0;
#X connect 14 3 4 0;
#X connect 14 4 23 0;
#X connect 15 0 22 1;
#X connect 16 0 8 0;
#X connect 16 1 15 0;
#X connect 17 0 22 0;
#X connect 17 1 23 0;
#X connect 18 0 1 0;
#X connect 19 0 2 0;
#X connect 20 0 18 0;
#X connect 20 0 19 0;
#X connect 21 0 20 0;
#X connect 22 0 16 0;
#X connect 23 0 3 0;
#X connect 24 0 5 1;
#X connect 25 0 6 1;
#X connect 26 0 24 0;
#X connect 27 0 26 0;
#X connect 28 0 29 0;
#X connect 28 1 30 0;
#X connect 29 0 27 1;
#X connect 29 1 32 1;
#X connect 30 0 27 2;
#X connect 30 1 32 2;
#X connect 31 0 25 0;
#X connect 31 0 33 0;
#X connect 32 0 31 0;
