#N canvas 734 354 923 542 12;
#X msg 355 136 set soundbank-\$1;
#X floatatom 355 110 5 0 0 0 - - - 0;
#X obj 326 183 bng 19 250 50 0 empty empty empty 0 -10 0 12 #fcfcfc #000000 #000000;
#X obj 512 53 vsl 19 162 0 1 0 0 empty empty empty 0 -9 0 12 #fcfcfc #000000 #000000 0 0;
#X obj 355 363 *~;
#X obj 512 249 line~;
#X msg 512 224 \$1 10;
#X obj 335 407 dac~ 1 2;
#X obj 113 114 openpanel 1;
#X obj 113 52 bng 19 250 50 0 empty empty empty 0 -10 0 12 #fcfcfc #000000 #000000;
#X obj 183 459 print;
#X obj 113 164 hcs/folder_list;
#X obj 113 139 makefilename %s/*.wav;
#X obj 113 244 f;
#X obj 142 244 + 1;
#X floatatom 70 291 5 0 0 0 - - - 0;
#X msg 158 193 1;
#X obj 113 78 t b b;
#X obj 113 193 t b s;
#X obj 113 384 soundfiler;
#X msg 495 405 vis \$1 1;
#X floatatom 495 379 5 0 0 0 - - - 0;
#X obj 113 292 makefilename soundbank-%d;
#X msg 113 350 read -resize \$2 \$1;
#X obj 113 323 pack s s;
#X obj 355 224 jl/gbend~ soundbank-1;
#X obj 495 432 clone -s 1 soundbank-unit 24 soundbank;
#X msg 421 192 end \$1;
#X floatatom 425 72 5 0 0 0 - - - 0;
#X msg 284 183 stop;
#X connect 0 0 25 0;
#X connect 1 0 0 0;
#X connect 2 0 25 0;
#X connect 3 0 6 0;
#X connect 4 0 7 0;
#X connect 4 0 7 1;
#X connect 5 0 4 1;
#X connect 6 0 5 0;
#X connect 8 0 12 0;
#X connect 9 0 17 0;
#X connect 11 0 18 0;
#X connect 12 0 11 0;
#X connect 13 0 14 0;
#X connect 13 0 22 0;
#X connect 13 0 15 0;
#X connect 14 0 13 1;
#X connect 16 0 13 1;
#X connect 17 0 8 0;
#X connect 17 1 16 0;
#X connect 18 0 13 0;
#X connect 18 1 24 1;
#X connect 20 0 26 0;
#X connect 21 0 20 0;
#X connect 22 0 24 0;
#X connect 23 0 19 0;
#X connect 24 0 23 0;
#X connect 25 0 4 0;
#X connect 27 0 25 0;
#X connect 28 0 27 0;
#X connect 29 0 25 0;
