#N canvas 703 113 1180 886 12;
#X obj 357 136 bng 19 250 50 0 empty empty empty 0 -10 0 12 #fcfcfc #000000 #000000;
#N canvas 304 145 502 859 lunes-soundbank 0;
#X obj 113 114 openpanel 1;
#X obj 113 164 hcs/folder_list;
#X obj 113 139 makefilename %s/*.wav;
#X obj 185 329 f;
#X obj 214 329 + 1;
#X floatatom 246 356 5 0 0 0 - - - 0;
#X obj 113 501 soundfiler;
#X obj 113 449 pack s s s;
#X obj 113 193 t s b;
#X msg 113 475 read -resize \$1 \$2 \$3;
#X obj 180 550 * 0.001;
#X msg 180 526 \$1;
#X obj 113 586 /;
#X obj 185 355 t f f f;
#X obj 226 637 pack f f;
#X obj 226 685 unpack f f;
#X msg 226 661 \$1 \$2;
#X msg 243 220 -1;
#X obj 113 78 t b b b;
#X msg 221 285 0;
#X obj 113 30 inlet;
#X obj 117 770 clone -s 0 stereo-soundbank-unit 72 lunes;
#X obj 293 515 text define lunes;
#X obj 226 719 text set lunes;
#X obj 185 380 makefilename lunes-%d-L;
#X obj 208 405 makefilename lunes-%d-R;
#X obj 243 246 text delete lunes;
#X connect 0 0 2 0;
#X connect 1 0 8 0;
#X connect 2 0 1 0;
#X connect 3 0 4 0;
#X connect 3 0 13 0;
#X connect 4 0 3 1;
#X connect 6 0 12 0;
#X connect 6 1 11 0;
#X connect 7 0 9 0;
#X connect 8 0 7 0;
#X connect 8 1 3 0;
#X connect 9 0 6 0;
#X connect 10 0 12 1;
#X connect 11 0 10 0;
#X connect 12 0 14 0;
#X connect 13 0 24 0;
#X connect 13 1 25 0;
#X connect 13 2 5 0;
#X connect 13 2 14 1;
#X connect 14 0 16 0;
#X connect 15 0 23 0;
#X connect 15 1 23 1;
#X connect 16 0 15 0;
#X connect 17 0 26 0;
#X connect 18 0 0 0;
#X connect 18 1 19 0;
#X connect 18 2 17 0;
#X connect 19 0 3 1;
#X connect 20 0 18 0;
#X connect 24 0 7 1;
#X connect 25 0 7 2;
#X restore 357 165 pd lunes-soundbank;
#X obj 62 305 bng 19 250 50 0 empty empty empty 0 -10 0 12 #fcfcfc #000000 #000000;
#X msg 20 305 stop;
#N canvas 64 64 760 730 lunes-player 0;
#X obj 185 458 jl/gbend~;
#X obj 260 458 jl/gbend~;
#X floatatom 310 218 5 0 0 0 - - - 0;
#X obj 342 300 t f f;
#X obj 522 353 *~ 1;
#X obj 186 554 *~;
#X obj 261 554 *~;
#X obj 185 342 t a a;
#X obj 337 508 line~;
#X msg 337 483 \$1 10;
#X obj 340 458 hsl 162 19 0 1 0 0 empty empty empty -2 -10 0 12 #fcfcfc #000000 #000000 0 0;
#X obj 310 242 t f f;
#X msg 284 299 end \$1;
#X obj 147 245 loadbang;
#X msg 147 270 loop 1;
#X obj 284 273 text get lunes;
#X msg 342 324 set lunes-\$1-L;
#X msg 374 348 set lunes-\$1-R;
#X obj 187 610 outlet~;
#X obj 262 610 outlet~;
#X obj 185 139 t a;
#X obj 185 76 inlet;
#X obj 185 164 route volume sequence;
#X obj 521 75 inlet~;
#X connect 0 0 5 0;
#X connect 1 0 6 0;
#X connect 2 0 11 0;
#X connect 3 0 16 0;
#X connect 3 1 17 0;
#X connect 4 0 0 0;
#X connect 4 0 1 0;
#X connect 5 0 18 0;
#X connect 6 0 19 0;
#X connect 7 0 0 0;
#X connect 7 1 1 0;
#X connect 8 0 5 1;
#X connect 8 0 6 1;
#X connect 9 0 8 0;
#X connect 10 0 9 0;
#X connect 11 0 15 0;
#X connect 11 1 3 0;
#X connect 12 0 7 0;
#X connect 13 0 14 0;
#X connect 14 0 7 0;
#X connect 15 0 12 0;
#X connect 16 0 0 0;
#X connect 17 0 1 0;
#X connect 20 0 22 0;
#X connect 21 0 20 0;
#X connect 22 0 10 0;
#X connect 22 1 2 0;
#X connect 22 2 7 0;
#X connect 23 0 4 0;
#X restore 100 391 pd lunes-player;
#X msg 124 330 sequence \$1;
#X floatatom 124 304 5 0 0 0 - - - 0;
#X obj 225 303 hsl 162 19 0 1 0 0 empty empty empty -2 -10 0 12 #fcfcfc #000000 #000000 0 0;
#X msg 222 329 volume \$1;
#X obj 651 323 jl/gflow~ 4;
#N canvas 224 224 964 536 normalize-midi-input 0;
#X obj 139 145 bendin 1;
#X obj 143 282 bendin 2;
#X obj 370 341 bendin 3;
#X obj 370 220 bendin 4;
#X obj 368 100 bendin 5;
#X obj 641 102 notein 7;
#X obj 694 128 != 0;
#X obj 641 155 pack f f;
#X obj 641 183 route 1 2 3 4 5;
#X text 373 315 accel Z;
#X text 374 194 accel Y;
#X text 371 74 accel X;
#X text 144 117 breath;
#X text 156 256 knob;
#X obj 139 197 s phorminx-breath;
#X obj 143 332 s phorminx-knob;
#X obj 368 151 s phorminx-accel-x;
#X obj 370 270 s phorminx-accel-y;
#X obj 370 392 s phorminx-accel-z;
#X obj 607 357 s phorminx-yellow-btn;
#X obj 651 323 s phorminx-btn-1;
#X obj 687 295 s phorminx-btn-2;
#X obj 735 267 s phorminx-btn-3;
#X obj 762 237 s phorminx-btn-4;
#X obj 139 171 expr ($f1/16383)*2-1;
#X obj 143 307 / 16383;
#X obj 370 367 expr ($f1/16383)*2-1;
#X obj 370 245 expr ($f1/16383)*2-1;
#X obj 368 125 expr ($f1/16383)*2-1;
#X connect 0 0 24 0;
#X connect 1 0 25 0;
#X connect 2 0 26 0;
#X connect 3 0 27 0;
#X connect 4 0 28 0;
#X connect 5 0 7 0;
#X connect 5 1 6 0;
#X connect 6 0 7 1;
#X connect 7 0 8 0;
#X connect 8 0 19 0;
#X connect 8 1 20 0;
#X connect 8 2 21 0;
#X connect 8 3 22 0;
#X connect 8 4 23 0;
#X connect 24 0 14 0;
#X connect 25 0 15 0;
#X connect 26 0 18 0;
#X connect 27 0 17 0;
#X connect 28 0 16 0;
#X restore 357 32 pd normalize-midi-input;
#N canvas 32 32 692 468 visualize 0;
#X obj 174 163 vsl 19 162 0 1 0 0 empty empty empty 0 -9 0 12 #c6feff #000000 #000000 0 0;
#X obj 227 163 vsl 19 162 0 1 0 0 empty empty empty 0 -9 0 12 #000000 #ffffff #000000 0 0;
#X obj 281 163 vsl 19 162 0 1 0 0 empty empty empty 0 -9 0 12 #fcfcfc #000000 #000000 0 0;
#X obj 305 163 vsl 19 162 0 1 0 0 empty empty empty 0 -9 0 12 #fcfcfc #000000 #000000 0 0;
#X obj 329 163 vsl 19 162 0 1 0 0 empty empty empty 0 -9 0 12 #fcfcfc #000000 #000000 0 0;
#X obj 378 174 tgl 25 0 empty empty empty 0 -10 0 12 #faff00 #000000 #000000 0 1;
#X obj 381 217 tgl 19 0 empty empty empty 0 -10 0 12 #fcfcfc #000000 #000000 0 1;
#X obj 381 242 tgl 19 0 empty empty empty 0 -10 0 12 #fcfcfc #000000 #000000 0 1;
#X obj 381 267 tgl 19 0 empty empty empty 0 -10 0 12 #fcfcfc #000000 #000000 0 1;
#X obj 381 293 tgl 19 0 empty empty empty 0 -10 0 12 #fcfcfc #000000 #000000 0 1;
#X obj 425 33 r phorminx-accel-z;
#X obj 323 85 r phorminx-accel-y;
#X obj 287 34 r phorminx-accel-x;
#X obj 134 41 r phorminx-breath;
#X obj 193 95 r phorminx-knob;
#X obj 134 65 expr $f1*0.5+0.5;
#X obj 287 59 expr $f1*0.5+0.5;
#X obj 322 109 expr $f1*0.5+0.5;
#X obj 425 57 expr $f1*0.5+0.5;
#X obj 479 96 r phorminx-yellow-btn;
#X obj 476 141 r phorminx-btn-1;
#X obj 476 165 r phorminx-btn-2;
#X obj 476 189 r phorminx-btn-3;
#X obj 476 214 r phorminx-btn-4;
#X text 156 330 souffle;
#X text 221 330 knob;
#X text 284 330 x;
#X text 308 330 y;
#X text 334 330 z;
#X connect 10 0 18 0;
#X connect 11 0 17 0;
#X connect 12 0 16 0;
#X connect 13 0 15 0;
#X connect 14 0 1 0;
#X connect 15 0 0 0;
#X connect 16 0 2 0;
#X connect 17 0 3 0;
#X connect 18 0 4 0;
#X connect 19 0 5 0;
#X connect 20 0 6 0;
#X connect 21 0 7 0;
#X connect 22 0 8 0;
#X connect 23 0 9 0;
#X coords 0 -1 1 1 275 200 2 150 150;
#X restore 75 32 pd visualize;
#N canvas 171 147 1536 1001 orientation-and-trig 0;
#X obj 542 43 hsl 162 19 0 0.99 0 0 empty empty empty -2 -10 0 12 #fcfcfc #000000 #000000 0 0;
#N canvas 192 192 577 491 onepole 0;
#X obj 180 278 f;
#X obj 127 277 +;
#X obj 180 322 *;
#X obj 127 90 t f b, f 8;
#X obj 127 322 t f f;
#X obj 145 139 expr 1-$f1;
#X obj 252 89 t f f;
#X obj 127 420 outlet;
#X obj 61 30 inlet;
#X obj 252 55 inlet;
#X obj 127 166 * 1;
#X obj 87 60 t f f;
#X obj 87 376 -;
#X obj 180 420 outlet;
#X text 255 340 y[n] = x[n] * a - y[n-1] * (1 - a);
#X text 254 381 rightmost :;
#X text 256 405 value = x[n] - y[n] (cheap highpass);
#X text 254 315 leftmost :;
#X connect 0 0 2 0;
#X connect 1 0 4 0;
#X connect 2 0 1 1;
#X connect 3 0 10 0;
#X connect 3 1 0 0;
#X connect 4 0 7 0;
#X connect 4 0 12 1;
#X connect 4 1 0 1;
#X connect 5 0 10 1;
#X connect 6 0 5 0;
#X connect 6 1 2 1;
#X connect 8 0 11 0;
#X connect 9 0 6 0;
#X connect 10 0 1 0;
#X connect 11 0 12 0;
#X connect 11 1 3 0;
#X connect 12 0 13 0;
#X restore 86 105 pd onepole;
#N canvas 192 192 577 491 onepole 0;
#X obj 180 278 f;
#X obj 127 277 +;
#X obj 180 322 *;
#X obj 127 90 t f b, f 8;
#X obj 127 322 t f f;
#X obj 145 139 expr 1-$f1;
#X obj 252 89 t f f;
#X obj 127 420 outlet;
#X obj 61 30 inlet;
#X obj 252 55 inlet;
#X obj 127 166 * 1;
#X obj 87 60 t f f;
#X obj 87 376 -;
#X obj 180 420 outlet;
#X text 255 340 y[n] = x[n] * a - y[n-1] * (1 - a);
#X text 254 381 rightmost :;
#X text 256 405 value = x[n] - y[n] (cheap highpass);
#X text 254 315 leftmost :;
#X connect 0 0 2 0;
#X connect 1 0 4 0;
#X connect 2 0 1 1;
#X connect 3 0 10 0;
#X connect 3 1 0 0;
#X connect 4 0 7 0;
#X connect 4 0 12 1;
#X connect 4 1 0 1;
#X connect 5 0 10 1;
#X connect 6 0 5 0;
#X connect 6 1 2 1;
#X connect 8 0 11 0;
#X connect 9 0 6 0;
#X connect 10 0 1 0;
#X connect 11 0 12 0;
#X connect 11 1 3 0;
#X connect 12 0 13 0;
#X restore 267 106 pd onepole;
#N canvas 192 192 577 491 onepole 0;
#X obj 180 278 f;
#X obj 127 277 +;
#X obj 180 322 *;
#X obj 127 90 t f b, f 8;
#X obj 127 322 t f f;
#X obj 145 139 expr 1-$f1;
#X obj 252 89 t f f;
#X obj 127 420 outlet;
#X obj 61 30 inlet;
#X obj 252 55 inlet;
#X obj 127 166 * 1;
#X obj 87 60 t f f;
#X obj 87 376 -;
#X obj 180 420 outlet;
#X text 255 340 y[n] = x[n] * a - y[n-1] * (1 - a);
#X text 254 381 rightmost :;
#X text 256 405 value = x[n] - y[n] (cheap highpass);
#X text 254 315 leftmost :;
#X connect 0 0 2 0;
#X connect 1 0 4 0;
#X connect 2 0 1 1;
#X connect 3 0 10 0;
#X connect 3 1 0 0;
#X connect 4 0 7 0;
#X connect 4 0 12 1;
#X connect 4 1 0 1;
#X connect 5 0 10 1;
#X connect 6 0 5 0;
#X connect 6 1 2 1;
#X connect 8 0 11 0;
#X connect 9 0 6 0;
#X connect 10 0 1 0;
#X connect 11 0 12 0;
#X connect 11 1 3 0;
#X connect 12 0 13 0;
#X restore 405 133 pd onepole;
#X obj 267 78 r phorminx-accel-y;
#X obj 86 586 vsl 19 162 0 1 0 0 empty empty empty 0 -9 0 12 #fcfcfc #000000 #000000 0 0;
#X obj 110 586 vsl 19 162 0 1 0 0 empty empty empty 0 -9 0 12 #fcfcfc #000000 #000000 0 0;
#X obj 134 586 vsl 19 162 0 1 0 0 empty empty empty 0 -9 0 12 #fcfcfc #000000 #000000 0 0;
#X obj 86 452 expr $f1*0.5+0.5;
#X obj 86 78 r phorminx-accel-x;
#X obj 405 105 r phorminx-accel-z;
#X obj 86 133 clip -0.5 0.5;
#X obj 86 158 * 2;
#X obj 268 134 clip -0.5 0.5;
#X obj 268 159 * 2;
#X obj 405 160 clip -0.5 0.5;
#X obj 405 185 * 2;
#X floatatom 555 79 5 0 0 0 - - - 0;
#X obj 86 185 expr asin($f1)*2/3.14159;
#X msg 539 16 0.91;
#N canvas 128 128 585 858 hit-detection 0;
#X obj 134 50 expr sqrt($f1*$f1 + $f2*$f2 + $f3*$f3);
#X obj 137 267 t f f;
#X obj 137 305 -;
#X obj 134 20 inlet;
#X obj 265 20 inlet;
#X obj 397 20 inlet;
#X obj 216 542 change;
#X obj 216 402 >;
#X floatatom 276 364 5 0 0 0 - - - 0;
#X obj 216 427 sel 1;
#X obj 267 427 sel 1;
#X msg 299 478 0;
#X obj 267 452 t b b;
#X msg 216 478 1;
#X obj 137 583 spigot;
#X obj 227 364 t f f;
#X obj 137 390 f;
#X msg 276 335 0.1;
#X obj 137 331 t b f;
#N canvas 160 160 331 327 onebang 0;
#X obj 125 159 spigot;
#X obj 125 187 t b b;
#X msg 195 173 0;
#X msg 164 126 1;
#X obj 103 43 inlet;
#X obj 164 43 inlet;
#X obj 112 238 outlet;
#X connect 0 0 1 0;
#X connect 1 0 6 0;
#X connect 1 1 2 0;
#X connect 2 0 0 1;
#X connect 3 0 0 1;
#X connect 4 0 0 0;
#X connect 5 0 3 0;
#X restore 267 543 pd onebang;
#X obj 267 569 t b b;
#X obj 184 642 max;
#X obj 184 668 t f f;
#X obj 259 714 f;
#X obj 216 451 t b b;
#X msg 202 616 0;
#X obj 99 175 hsl 162 19 0 0.99 0 0 empty empty empty -2 -10 0 12 #fcfcfc #000000 #000000 0 0;
#X obj 201 231 t f f;
#X obj 276 310 loadbang;
#X obj 267 402 < 0;
#X obj 259 772 outlet;
#X floatatom 96 199 5 0 0 0 - - - 0;
#N canvas 192 192 577 491 onepole 0;
#X obj 180 278 f;
#X obj 127 277 +;
#X obj 180 322 *;
#X obj 127 90 t f b, f 8;
#X obj 127 322 t f f;
#X obj 145 139 expr 1-$f1;
#X obj 252 89 t f f;
#X obj 127 420 outlet;
#X obj 61 30 inlet;
#X obj 252 55 inlet;
#X obj 127 166 * 1;
#X obj 87 60 t f f;
#X obj 87 376 -;
#X obj 180 420 outlet;
#X text 255 340 y[n] = x[n] * a - y[n-1] * (1 - a);
#X text 254 381 rightmost :;
#X text 256 405 value = x[n] - y[n] (cheap highpass);
#X text 254 315 leftmost :;
#X connect 0 0 2 0;
#X connect 1 0 4 0;
#X connect 2 0 1 1;
#X connect 3 0 10 0;
#X connect 3 1 0 0;
#X connect 4 0 7 0;
#X connect 4 0 12 1;
#X connect 4 1 0 1;
#X connect 5 0 10 1;
#X connect 6 0 5 0;
#X connect 6 1 2 1;
#X connect 8 0 11 0;
#X connect 9 0 6 0;
#X connect 10 0 1 0;
#X connect 11 0 12 0;
#X connect 11 1 3 0;
#X connect 12 0 13 0;
#X restore 134 116 pd onepole;
#X floatatom 227 141 5 0 0 0 - - - 0;
#X obj 227 90 loadbang;
#X msg 227 116 0.75;
#X connect 0 0 32 0;
#X connect 1 0 2 1;
#X connect 1 1 2 0;
#X connect 2 0 18 0;
#X connect 3 0 0 0;
#X connect 4 0 0 1;
#X connect 5 0 0 2;
#X connect 6 0 14 1;
#X connect 7 0 9 0;
#X connect 8 0 7 1;
#X connect 9 0 24 0;
#X connect 10 0 12 0;
#X connect 11 0 6 0;
#X connect 12 0 19 0;
#X connect 12 1 11 0;
#X connect 13 0 6 0;
#X connect 14 0 21 0;
#X connect 15 0 7 0;
#X connect 15 1 29 0;
#X connect 16 0 14 0;
#X connect 17 0 8 0;
#X connect 18 0 16 0;
#X connect 18 1 15 0;
#X connect 19 0 20 0;
#X connect 20 0 25 0;
#X connect 20 1 23 0;
#X connect 21 0 22 0;
#X connect 22 0 21 1;
#X connect 22 1 23 1;
#X connect 23 0 30 0;
#X connect 24 0 13 0;
#X connect 24 1 19 1;
#X connect 25 0 21 1;
#X connect 26 0 31 0;
#X connect 27 0 1 0;
#X connect 27 1 16 1;
#X connect 28 0 17 0;
#X connect 29 0 10 0;
#X connect 32 0 26 0;
#X connect 32 0 27 0;
#X connect 33 0 32 1;
#X connect 34 0 35 0;
#X connect 35 0 33 0;
#X restore 429 316 pd hit-detection;
#X obj 429 351 bng 19 250 50 0 empty empty empty 0 -10 0 12 #fcfcfc #000000 #000000;
#X obj 456 351 hsl 162 19 0 0.99 0 0 empty empty empty -2 -10 0 12 #fcfcfc #000000 #000000 0 0;
#X obj 583 16 loadbang;
#X obj 268 226 expr atan2($f1 \, $f2);
#X floatatom 414 483 7 0 0 0 - - - 24;
#X obj 358 396 jl/map -3.14159 3.14159 0 360;
#X obj 110 507 expr $f1*0.5+0.5;
#X obj 134 558 expr $f1*0.5+0.5;
#X obj 110 483 expr asin($f1)*2/3.14159;
#X obj 134 534 expr asin($f1)*2/3.14159;
#X text 422 583 so we add 230 (360 - 130) and apply a modulo;
#X obj 339 698 moses 180;
#X obj 399 724 expr 360 - $f1;
#X obj 339 673 expr fmod(($f1 + 230) \, 360);
#X obj 414 457 i;
#X text 422 565 NB : rest position is approx. at angle 130°;
#X obj 361 771 / 180;
#X floatatom 361 799 7 0 0 0 - - - 24;
#X obj 111 379 s phorminx-inclination;
#X obj 320 844 s phorminx-rotation;
#X obj 557 317 s phorminx-hit;
#X obj 1108 379 vsl 19 162 0 1 0 0 empty empty empty 0 -9 0 12 #fcfcfc #000000 #000000 0 0;
#X obj 1132 379 vsl 19 162 0 1 0 0 empty empty empty 0 -9 0 12 #fcfcfc #000000 #000000 0 0;
#X obj 1156 379 vsl 19 162 0 1 0 0 empty empty empty 0 -9 0 12 #fcfcfc #000000 #000000 0 0;
#X obj 940 633 vsl 19 162 0 1 0 0 empty empty empty 0 -9 0 12 #fcfcfc #000000 #000000 0 0;
#X obj 964 633 vsl 19 162 0 1 0 0 empty empty empty 0 -9 0 12 #fcfcfc #000000 #000000 0 0;
#X obj 988 633 vsl 19 162 0 1 0 0 empty empty empty 0 -9 0 12 #fcfcfc #000000 #000000 0 0;
#X obj 1012 633 vsl 19 162 0 1 0 0 empty empty empty 0 -9 0 12 #fcfcfc #000000 #000000 0 0;
#N canvas 130 130 708 565 split-revolution-in-3 0;
#X obj 189 95 moses 120;
#X obj 252 127 moses 240;
#X obj 121 165 expr $f1/120;
#X obj 217 166 expr ($f1-120)/120;
#X obj 358 166 expr ($f1-240)/120;
#X obj 177 238 expr 1-$f1;
#X obj 258 237 expr 1-$f1;
#X obj 379 238 expr 1-$f1;
#X obj 359 209 t f f b;
#X obj 231 210 t f f b;
#X obj 126 210 t f f b;
#X msg 183 210 0;
#X msg 288 209 0;
#X msg 417 210 0;
#X obj 170 300 t a;
#X obj 261 301 t a;
#X obj 377 297 t a;
#X obj 193 58 inlet;
#X obj 180 394 outlet;
#X obj 247 393 outlet;
#X obj 360 391 outlet;
#X connect 0 0 2 0;
#X connect 0 1 1 0;
#X connect 1 0 3 0;
#X connect 1 1 4 0;
#X connect 2 0 10 0;
#X connect 3 0 9 0;
#X connect 4 0 8 0;
#X connect 5 0 14 0;
#X connect 6 0 15 0;
#X connect 7 0 16 0;
#X connect 8 0 14 0;
#X connect 8 1 7 0;
#X connect 8 2 13 0;
#X connect 9 0 16 0;
#X connect 9 1 6 0;
#X connect 9 2 12 0;
#X connect 10 0 15 0;
#X connect 10 1 5 0;
#X connect 10 2 11 0;
#X connect 11 0 16 0;
#X connect 12 0 14 0;
#X connect 13 0 15 0;
#X connect 14 0 18 0;
#X connect 15 0 19 0;
#X connect 16 0 20 0;
#X connect 17 0 0 0;
#X restore 1050 325 pd split-revolution-in-3;
#N canvas 104 104 640 730 split-revolution-in-4 0;
#X obj 192 38 moses 90;
#X obj 257 66 moses 180;
#X obj 330 92 moses 270;
#X obj 123 175 expr $f1/90;
#X obj 158 308 expr 1-$f1;
#X obj 239 307 expr 1-$f1;
#X obj 360 308 expr 1-$f1;
#X obj 463 308 expr 1-$f1;
#X obj 445 280 t f f b;
#X obj 340 279 t f f b;
#X obj 212 280 t f f b;
#X obj 107 280 t f f b;
#X msg 164 280 0;
#X msg 269 279 0;
#X msg 398 280 0;
#X obj 212 176 expr ($f1-90)/90;
#X obj 340 176 expr ($f1-180)/90;
#X obj 425 202 expr ($f1-270)/90;
#X obj 192 8 inlet;
#X obj 234 494 t a;
#X obj 267 494 t a;
#X obj 300 494 t a;
#X obj 332 494 t a;
#X msg 503 280 0;
#X obj 204 602 outlet;
#X obj 257 602 outlet;
#X obj 308 602 outlet;
#X obj 360 603 outlet;
#X connect 0 0 3 0;
#X connect 0 1 1 0;
#X connect 1 0 15 0;
#X connect 1 1 2 0;
#X connect 2 0 16 0;
#X connect 2 1 17 0;
#X connect 3 0 11 0;
#X connect 4 0 19 0;
#X connect 5 0 20 0;
#X connect 6 0 21 0;
#X connect 7 0 22 0;
#X connect 8 0 19 0;
#X connect 8 1 7 0;
#X connect 8 2 23 0;
#X connect 9 0 22 0;
#X connect 9 1 6 0;
#X connect 9 2 14 0;
#X connect 10 0 21 0;
#X connect 10 1 5 0;
#X connect 10 2 13 0;
#X connect 11 0 20 0;
#X connect 11 1 4 0;
#X connect 11 2 12 0;
#X connect 12 0 22 0;
#X connect 12 0 21 0;
#X connect 13 0 22 0;
#X connect 13 0 19 0;
#X connect 14 0 20 0;
#X connect 14 0 19 0;
#X connect 15 0 10 0;
#X connect 16 0 9 0;
#X connect 17 0 8 0;
#X connect 18 0 0 0;
#X connect 19 0 24 0;
#X connect 20 0 25 0;
#X connect 21 0 26 0;
#X connect 22 0 27 0;
#X connect 23 0 21 0;
#X connect 23 0 20 0;
#X restore 909 577 pd split-revolution-in-4;
#X connect 0 0 1 1;
#X connect 0 0 2 1;
#X connect 0 0 3 1;
#X connect 0 0 17 0;
#X connect 1 0 11 0;
#X connect 1 1 20 0;
#X connect 2 0 13 0;
#X connect 2 1 20 1;
#X connect 3 0 15 0;
#X connect 3 1 20 2;
#X connect 4 0 2 0;
#X connect 8 0 5 0;
#X connect 9 0 1 0;
#X connect 10 0 3 0;
#X connect 11 0 12 0;
#X connect 12 0 18 0;
#X connect 13 0 14 0;
#X connect 14 0 24 0;
#X connect 15 0 16 0;
#X connect 16 0 24 1;
#X connect 18 0 8 0;
#X connect 18 0 39 0;
#X connect 19 0 0 0;
#X connect 20 0 21 0;
#X connect 20 0 22 0;
#X connect 20 0 41 0;
#X connect 23 0 19 0;
#X connect 24 0 26 0;
#X connect 26 0 34 0;
#X connect 26 0 35 0;
#X connect 27 0 6 0;
#X connect 28 0 7 0;
#X connect 29 0 27 0;
#X connect 30 0 28 0;
#X connect 32 0 37 0;
#X connect 32 1 33 0;
#X connect 33 0 37 0;
#X connect 34 0 32 0;
#X connect 34 0 50 0;
#X connect 34 0 49 0;
#X connect 35 0 25 0;
#X connect 37 0 38 0;
#X connect 37 0 40 0;
#X connect 49 0 42 0;
#X connect 49 1 43 0;
#X connect 49 2 44 0;
#X connect 50 0 45 0;
#X connect 50 1 46 0;
#X connect 50 2 47 0;
#X connect 50 3 48 0;
#X restore 357 58 pd orientation-and-trig;
#N canvas 64 64 661 438 accel-calibration 0;
#X obj 350 170 tgl 19 0 empty empty empty 0 -10 0 12 #fcfcfc #000000 #000000 0 1;
#N canvas 192 192 643 432 calibrate-accels 0;
#N canvas 96 96 450 300 bounds 0;
#X obj 171 162 <;
#X obj 132 189 spigot;
#X obj 132 132 t f f;
#X obj 207 188 spigot;
#X obj 207 131 t f f;
#X obj 246 161 >;
#X obj 132 46 inlet;
#X obj 189 45 inlet;
#X obj 264 45 inlet;
#X obj 132 223 outlet;
#X obj 207 222 outlet;
#X obj 132 75 t f f;
#X connect 0 0 1 1;
#X connect 1 0 0 1;
#X connect 1 0 9 0;
#X connect 2 0 1 0;
#X connect 2 1 0 0;
#X connect 3 0 5 1;
#X connect 3 0 10 0;
#X connect 4 0 3 0;
#X connect 4 1 5 0;
#X connect 5 0 3 1;
#X connect 6 0 11 0;
#X connect 7 0 0 1;
#X connect 8 0 5 1;
#X connect 11 0 2 0;
#X connect 11 1 4 0;
#X restore 115 253 pd bounds;
#X obj 145 223 t f f;
#N canvas 96 96 450 300 bounds 0;
#X obj 171 162 <;
#X obj 132 189 spigot;
#X obj 132 132 t f f;
#X obj 207 188 spigot;
#X obj 207 131 t f f;
#X obj 246 161 >;
#X obj 132 46 inlet;
#X obj 189 45 inlet;
#X obj 264 45 inlet;
#X obj 132 223 outlet;
#X obj 207 222 outlet;
#X obj 132 75 t f f;
#X connect 0 0 1 1;
#X connect 1 0 0 1;
#X connect 1 0 9 0;
#X connect 2 0 1 0;
#X connect 2 1 0 0;
#X connect 3 0 5 1;
#X connect 3 0 10 0;
#X connect 4 0 3 0;
#X connect 4 1 5 0;
#X connect 5 0 3 1;
#X connect 6 0 11 0;
#X connect 7 0 0 1;
#X connect 8 0 5 1;
#X connect 11 0 2 0;
#X connect 11 1 4 0;
#X restore 218 252 pd bounds;
#X obj 248 222 t f f;
#N canvas 96 96 450 300 bounds 0;
#X obj 171 162 <;
#X obj 132 189 spigot;
#X obj 132 132 t f f;
#X obj 207 188 spigot;
#X obj 207 131 t f f;
#X obj 246 161 >;
#X obj 132 46 inlet;
#X obj 189 45 inlet;
#X obj 264 45 inlet;
#X obj 132 223 outlet;
#X obj 207 222 outlet;
#X obj 132 75 t f f;
#X connect 0 0 1 1;
#X connect 1 0 0 1;
#X connect 1 0 9 0;
#X connect 2 0 1 0;
#X connect 2 1 0 0;
#X connect 3 0 5 1;
#X connect 3 0 10 0;
#X connect 4 0 3 0;
#X connect 4 1 5 0;
#X connect 5 0 3 1;
#X connect 6 0 11 0;
#X connect 7 0 0 1;
#X connect 8 0 5 1;
#X connect 11 0 2 0;
#X connect 11 1 4 0;
#X restore 321 250 pd bounds;
#X obj 351 220 t f f;
#X obj 115 184 spigot;
#X obj 218 184 spigot;
#X obj 321 184 spigot;
#X obj 115 39 inlet;
#X obj 159 39 inlet;
#X obj 202 39 inlet;
#X obj 266 39 inlet;
#X obj 360 39 inlet;
#X obj 115 290 pack f f;
#X obj 115 317 outlet;
#X obj 218 290 pack f f;
#X obj 218 317 outlet;
#X obj 321 290 pack f f;
#X obj 321 317 outlet;
#X connect 0 0 14 0;
#X connect 0 1 14 1;
#X connect 1 0 0 1;
#X connect 1 1 0 2;
#X connect 2 0 16 0;
#X connect 2 1 16 1;
#X connect 3 0 2 1;
#X connect 3 1 2 2;
#X connect 4 0 18 0;
#X connect 4 1 18 1;
#X connect 5 0 4 1;
#X connect 5 1 4 2;
#X connect 6 0 0 0;
#X connect 7 0 2 0;
#X connect 8 0 4 0;
#X connect 9 0 6 0;
#X connect 10 0 7 0;
#X connect 11 0 8 0;
#X connect 12 0 1 0;
#X connect 12 0 3 0;
#X connect 12 0 5 0;
#X connect 13 0 6 1;
#X connect 13 0 7 1;
#X connect 13 0 8 1;
#X connect 14 0 15 0;
#X connect 16 0 17 0;
#X connect 18 0 19 0;
#X restore 205 170 pd calibrate-accels;
#X text 341 137 reset to center value;
#X text 375 169 enable calibration;
#X obj 205 62 r phorminx-accel-z;
#X obj 237 85 r phorminx-accel-y;
#X obj 270 108 r phorminx-accel-x;
#X floatatom 118 284 9 0 0 0 - - - 0;
#X floatatom 185 284 9 0 0 0 - - - 0;
#X obj 118 257 unpack f f;
#X floatatom 270 284 9 0 0 0 - - - 0;
#X floatatom 337 284 9 0 0 0 - - - 0;
#X obj 270 257 unpack f f;
#X floatatom 423 284 9 0 0 0 - - - 0;
#X floatatom 490 284 9 0 0 0 - - - 0;
#X obj 423 257 unpack f f;
#X msg 302 138 0;
#X connect 0 0 1 4;
#X connect 1 0 9 0;
#X connect 1 1 12 0;
#X connect 1 2 15 0;
#X connect 4 0 1 0;
#X connect 5 0 1 1;
#X connect 6 0 1 2;
#X connect 9 0 7 0;
#X connect 9 1 8 0;
#X connect 12 0 10 0;
#X connect 12 1 11 0;
#X connect 15 0 13 0;
#X connect 15 1 14 0;
#X connect 16 0 1 3;
#X restore 357 110 pd accel-calibration (archive);
#N canvas 64 64 538 702 DEV-NOTES 0;
#X text 44 99 - harpe avec inclino (séparation gravite / mouvement);
#X text 43 157 - interface "trompette" (sons abstraits);
#X text 44 179 - inclinos pour modulation bande (gbend pitch / filtre);
#X text 42 120 - samples percussifs (détection onsets accéléro / et ou boutons);
#X text 45 222 structure : 12 parties;
#X text 45 265 en tout 36 séquences dont seules 12 seront jouées pendant la performance;
#X text 45 243 chaque partie a 3 versions \, séparées en Dithyrambe / Lune;
#X text 42 50 Thyrse : bâton de fécondité de Dionysos, f 41;
#X text 42 30 Phorminx : mot antique pour lyre / cithare;
#X restore 357 84 pd DEV-NOTES;
#X text 660 289 granular;
#X text 573 289 fm synth;
#N canvas 81 440 1101 652 FM 0;
#X obj 167 152 jl/feedfm~;
#X obj 367 453 osc~;
#X obj 367 424 +~;
#X obj 471 201 r frequency;
#X obj 471 330 *~;
#X obj 471 249 line~;
#X msg 471 225 \$1 5;
#X obj 568 249 line~;
#X msg 568 225 \$1 5;
#X obj 568 201 r ratio;
#X obj 366 131 inlet~ modulation;
#X obj 670 223 r index;
#X obj 670 271 line~;
#X msg 670 247 \$1 5;
#X obj 529 386 *~;
#X obj 368 521 *~;
#X connect 1 0 15 0;
#X connect 2 0 1 0;
#X connect 3 0 6 0;
#X connect 4 0 2 1;
#X connect 4 0 14 0;
#X connect 5 0 4 0;
#X connect 6 0 5 0;
#X connect 7 0 4 1;
#X connect 8 0 7 0;
#X connect 9 0 8 0;
#X connect 10 0 2 0;
#X connect 11 0 13 0;
#X connect 12 0 14 1;
#X connect 13 0 12 0;
#X connect 14 0 15 1;
#X restore 584 323 pd FM;
#N canvas 128 128 939 613 sampler 0;
#N canvas 64 64 760 730 samples-player 0;
#X obj 185 458 jl/gbend~;
#X obj 260 458 jl/gbend~;
#X floatatom 310 218 5 0 0 0 - - - 0;
#X obj 342 300 t f f;
#X obj 522 353 *~ 1;
#X obj 186 554 *~;
#X obj 261 554 *~;
#X obj 185 342 t a a;
#X obj 337 508 line~;
#X msg 337 483 \$1 10;
#X obj 340 458 hsl 162 19 0 1 0 0 empty empty empty -2 -10 0 12 #fcfcfc #000000 #000000 0 0;
#X obj 310 242 t f f;
#X msg 284 299 end \$1;
#X obj 147 245 loadbang;
#X msg 147 270 loop 1;
#X obj 187 610 outlet~;
#X obj 262 610 outlet~;
#X obj 185 139 t a;
#X obj 185 76 inlet;
#X obj 185 164 route volume sequence;
#X obj 521 75 inlet~;
#X msg 342 324 set samples-\$1-L;
#X msg 374 348 set samples-\$1-R;
#X obj 284 273 text get samples;
#X connect 0 0 5 0;
#X connect 1 0 6 0;
#X connect 2 0 11 0;
#X connect 3 0 21 0;
#X connect 3 1 22 0;
#X connect 4 0 0 0;
#X connect 4 0 1 0;
#X connect 5 0 15 0;
#X connect 6 0 16 0;
#X connect 7 0 0 0;
#X connect 7 1 1 0;
#X connect 8 0 5 1;
#X connect 8 0 6 1;
#X connect 9 0 8 0;
#X connect 10 0 9 0;
#X connect 11 0 23 0;
#X connect 11 1 3 0;
#X connect 12 0 7 0;
#X connect 13 0 14 0;
#X connect 14 0 7 0;
#X connect 17 0 19 0;
#X connect 18 0 17 0;
#X connect 19 0 10 0;
#X connect 19 1 2 0;
#X connect 19 2 7 0;
#X connect 20 0 4 0;
#X connect 21 0 0 0;
#X connect 22 0 1 0;
#X connect 23 0 12 0;
#X restore 161 189 pd samples-player;
#X obj 123 103 bng 19 250 50 0 empty empty empty 0 -10 0 12 #fcfcfc #000000 #000000;
#X msg 81 103 stop;
#X msg 185 128 sequence \$1;
#X floatatom 185 102 5 0 0 0 - - - 0;
#X obj 286 101 hsl 162 19 0 1 0 0 empty empty empty -2 -10 0 12 #fcfcfc #000000 #000000 0 0;
#X msg 283 127 volume \$1;
#N canvas 64 64 760 730 samples-player 0;
#X obj 185 458 jl/gbend~;
#X obj 260 458 jl/gbend~;
#X floatatom 310 218 5 0 0 0 - - - 0;
#X obj 342 300 t f f;
#X obj 522 353 *~ 1;
#X obj 186 554 *~;
#X obj 261 554 *~;
#X obj 185 342 t a a;
#X obj 337 508 line~;
#X msg 337 483 \$1 10;
#X obj 340 458 hsl 162 19 0 1 0 0 empty empty empty -2 -10 0 12 #fcfcfc #000000 #000000 0 0;
#X obj 310 242 t f f;
#X msg 284 299 end \$1;
#X obj 147 245 loadbang;
#X msg 147 270 loop 1;
#X obj 187 610 outlet~;
#X obj 262 610 outlet~;
#X obj 185 139 t a;
#X obj 185 76 inlet;
#X obj 185 164 route volume sequence;
#X obj 521 75 inlet~;
#X msg 342 324 set samples-\$1-L;
#X msg 374 348 set samples-\$1-R;
#X obj 284 273 text get samples;
#X connect 0 0 5 0;
#X connect 1 0 6 0;
#X connect 2 0 11 0;
#X connect 3 0 21 0;
#X connect 3 1 22 0;
#X connect 4 0 0 0;
#X connect 4 0 1 0;
#X connect 5 0 15 0;
#X connect 6 0 16 0;
#X connect 7 0 0 0;
#X connect 7 1 1 0;
#X connect 8 0 5 1;
#X connect 8 0 6 1;
#X connect 9 0 8 0;
#X connect 10 0 9 0;
#X connect 11 0 23 0;
#X connect 11 1 3 0;
#X connect 12 0 7 0;
#X connect 13 0 14 0;
#X connect 14 0 7 0;
#X connect 17 0 19 0;
#X connect 18 0 17 0;
#X connect 19 0 10 0;
#X connect 19 1 2 0;
#X connect 19 2 7 0;
#X connect 20 0 4 0;
#X connect 21 0 0 0;
#X connect 22 0 1 0;
#X connect 23 0 12 0;
#X restore 559 188 pd samples-player;
#X obj 521 102 bng 19 250 50 0 empty empty empty 0 -10 0 12 #fcfcfc #000000 #000000;
#X msg 479 102 stop;
#X msg 583 127 sequence \$1;
#X floatatom 583 101 5 0 0 0 - - - 0;
#X obj 684 100 hsl 162 19 0 1 0 0 empty empty empty -2 -10 0 12 #fcfcfc #000000 #000000 0 0;
#X msg 681 126 volume \$1;
#X obj 663 289 line~;
#X obj 390 378 *~;
#X obj 423 378 *~;
#X msg 663 264 \$1 10;
#X msg 366 46 fade \$1;
#X obj 342 521 outlet~;
#X obj 403 521 outlet~;
#X connect 0 0 15 0;
#X connect 0 1 16 0;
#X connect 1 0 0 0;
#X connect 2 0 0 0;
#X connect 3 0 0 0;
#X connect 4 0 3 0;
#X connect 5 0 6 0;
#X connect 6 0 0 0;
#X connect 7 0 15 0;
#X connect 7 1 16 0;
#X connect 8 0 7 0;
#X connect 9 0 7 0;
#X connect 10 0 7 0;
#X connect 11 0 10 0;
#X connect 12 0 13 0;
#X connect 13 0 7 0;
#X connect 14 0 15 1;
#X connect 14 0 16 1;
#X connect 15 0 19 0;
#X connect 16 0 20 0;
#X connect 17 0 14 0;
#X connect 18 0 0 0;
#X connect 18 0 7 0;
#X restore 226 390 pd sampler;
#X obj 864 519 r phorminx-inclination;
#X obj 864 546 r phorminx-rotation;
#X obj 864 573 r phorminx-hit;
#X obj 824 453 r phorminx-breath;
#X obj 825 479 r phorminx-knob;
#X obj 850 632 r phorminx-yellow-btn;
#X obj 834 673 r phorminx-btn-1;
#X obj 834 697 r phorminx-btn-2;
#X obj 834 721 r phorminx-btn-3;
#X obj 834 746 r phorminx-btn-4;
#X text 837 318 dépendances (à installer avec deken) :;
#X text 837 335 - jl;
#X text 837 353 - hcs;
#X text 837 371 - vstplugin~;
#X obj 357 191 bng 19 250 50 0 empty empty empty 0 -10 0 12 #fcfcfc #000000 #000000;
#N canvas 304 145 502 859 samples-soundbank 0;
#X obj 113 114 openpanel 1;
#X obj 113 164 hcs/folder_list;
#X obj 113 139 makefilename %s/*.wav;
#X obj 185 329 f;
#X obj 214 329 + 1;
#X floatatom 246 356 5 0 0 0 - - - 0;
#X obj 113 501 soundfiler;
#X obj 113 449 pack s s s;
#X obj 113 193 t s b;
#X msg 113 475 read -resize \$1 \$2 \$3;
#X obj 180 550 * 0.001;
#X msg 180 526 \$1;
#X obj 113 586 /;
#X obj 185 355 t f f f;
#X obj 226 637 pack f f;
#X obj 226 685 unpack f f;
#X msg 226 661 \$1 \$2;
#X msg 243 220 -1;
#X obj 113 78 t b b b;
#X msg 221 285 0;
#X obj 113 30 inlet;
#X obj 243 246 text delete samples;
#X obj 208 405 makefilename samples-%d-R;
#X obj 185 380 makefilename samples-%d-L;
#X obj 293 515 text define samples;
#X obj 226 719 text set samples;
#X obj 117 770 clone -s 0 stereo-soundbank-unit 72 samples;
#X connect 0 0 2 0;
#X connect 1 0 8 0;
#X connect 2 0 1 0;
#X connect 3 0 4 0;
#X connect 3 0 13 0;
#X connect 4 0 3 1;
#X connect 6 0 12 0;
#X connect 6 1 11 0;
#X connect 7 0 9 0;
#X connect 8 0 7 0;
#X connect 8 1 3 0;
#X connect 9 0 6 0;
#X connect 10 0 12 1;
#X connect 11 0 10 0;
#X connect 12 0 14 0;
#X connect 13 0 23 0;
#X connect 13 1 22 0;
#X connect 13 2 5 0;
#X connect 13 2 14 1;
#X connect 14 0 16 0;
#X connect 15 0 25 0;
#X connect 15 1 25 1;
#X connect 16 0 15 0;
#X connect 17 0 21 0;
#X connect 18 0 0 0;
#X connect 18 1 19 0;
#X connect 18 2 17 0;
#X connect 19 0 3 1;
#X connect 20 0 18 0;
#X connect 22 0 7 2;
#X connect 23 0 7 1;
#X restore 357 220 pd samples-soundbank;
#N canvas 393 202 1036 778 pan 0;
#X msg 427 394 f0 \$1;
#X msg 477 394 cutoffratio \$1;
#X msg 588 394 Q \$1;
#X floatatom 428 370 5 0 0 0 - - - 0;
#X floatatom 477 369 5 0 0 0 - - - 0;
#X floatatom 589 370 5 0 0 0 - - - 0;
#X obj 511 442 t a;
#X floatatom 681 338 5 0 0 0 - - - 0;
#X floatatom 743 337 5 0 0 0 - - - 0;
#X obj 711 404 t a;
#X msg 680 362 flow \$1;
#X msg 743 362 noise \$1;
#X floatatom 758 458 5 0 0 0 - - - 0;
#X floatatom 820 457 5 0 0 0 - - - 0;
#X obj 788 524 t a;
#X msg 757 482 emb \$1;
#X msg 820 482 bore \$1;
#X msg 774 422 0.9;
#X msg 807 421 0.1;
#X msg 684 298 0.85;
#X msg 741 296 80;
#X msg 538 332 1;
#X obj 584 597 slideflute~;
#X obj 921 331 loadbang;
#X obj 919 355 bng 19 250 50 0 empty empty empty 0 -10 0 12 #fcfcfc #000000 #000000;
#X obj 577 42 r phorminx-breath;
#X obj 577 69 clip 0 1;
#X msg 469 68 xfactor \$1;
#X floatatom 469 44 5 0 0 0 - - - 0;
#X obj 97 85 r phorminx-btn-1;
#X obj 140 116 r phorminx-btn-2;
#X obj 179 149 r phorminx-btn-3;
#X obj 236 182 r phorminx-btn-4;
#X obj 140 142 * 2;
#X obj 179 174 * 3;
#X obj 236 207 * 4;
#X obj 109 246 +;
#X obj 128 211 t b f;
#X obj 160 287 +;
#X obj 179 252 t b f;
#X obj 209 317 +;
#X obj 228 282 t b f;
#X obj 210 372 mtof;
#X msg 285 223 0;
#X obj 626 130 jl/map 0 1 0 0.86 -10;
#X obj 494 137 jl/map 0 1 1 20;
#X obj 209 344 + 36;
#X obj 594 660 outlet~;
#X obj 183 592 pack f f f f;
#X obj 186 493 t b f;
#X obj 239 514 t b f;
#X obj 287 547 t b f;
#X obj 145 440 r phorminx-btn-1;
#X obj 186 465 r phorminx-btn-2;
#X obj 239 490 r phorminx-btn-3;
#X obj 287 522 r phorminx-btn-4;
#X connect 0 0 6 0;
#X connect 1 0 6 0;
#X connect 2 0 6 0;
#X connect 3 0 0 0;
#X connect 4 0 1 0;
#X connect 5 0 2 0;
#X connect 6 0 22 0;
#X connect 7 0 10 0;
#X connect 8 0 11 0;
#X connect 9 0 22 0;
#X connect 10 0 9 0;
#X connect 11 0 9 0;
#X connect 12 0 15 0;
#X connect 13 0 16 0;
#X connect 14 0 22 0;
#X connect 15 0 14 0;
#X connect 16 0 14 0;
#X connect 17 0 12 0;
#X connect 18 0 13 0;
#X connect 19 0 7 0;
#X connect 20 0 8 0;
#X connect 21 0 5 0;
#X connect 21 0 4 0;
#X connect 22 0 47 0;
#X connect 23 0 24 0;
#X connect 24 0 18 0;
#X connect 24 0 17 0;
#X connect 24 0 20 0;
#X connect 24 0 19 0;
#X connect 24 0 21 0;
#X connect 25 0 26 0;
#X connect 26 0 44 0;
#X connect 26 0 45 0;
#X connect 27 0 45 0;
#X connect 28 0 27 0;
#X connect 29 0 36 0;
#X connect 30 0 33 0;
#X connect 31 0 34 0;
#X connect 32 0 35 0;
#X connect 33 0 37 0;
#X connect 34 0 39 0;
#X connect 35 0 41 0;
#X connect 36 0 38 0;
#X connect 37 0 36 0;
#X connect 37 1 36 1;
#X connect 38 0 40 0;
#X connect 39 0 38 0;
#X connect 39 1 38 1;
#X connect 40 0 46 0;
#X connect 41 0 40 0;
#X connect 41 1 40 1;
#X connect 42 0 3 0;
#X connect 43 0 46 0;
#X connect 44 0 7 0;
#X connect 45 0 4 0;
#X connect 46 0 42 0;
#X connect 49 0 48 0;
#X connect 49 1 48 1;
#X connect 50 0 48 0;
#X connect 50 1 48 2;
#X connect 51 0 48 0;
#X connect 51 1 48 3;
#X connect 52 0 48 0;
#X connect 53 0 49 0;
#X connect 54 0 50 0;
#X connect 55 0 51 0;
#X restore 369 473 pd pan;
#X obj 428 283 vsl 19 162 0 1 0 0 empty empty empty 0 -9 0 12 #fcfcfc #000000 #000000 0 0;
#X obj 396 515 *~;
#X obj 428 479 line~;
#X msg 428 454 \$1 10;
#X obj 396 541 jl/split~;
#N canvas 52 52 758 634 effects 0;
#X obj 442 224 r gdelay-params;
#X obj 184 215 jl/split~;
#X obj 183 504 dac~ 1 2;
#X obj 285 214 jl/split~;
#X obj 315 361 jl/gdelay~ 3 3000;
#X obj 415 334 jl/gdelay~ 3 3000;
#X obj 442 252 route pan width;
#X msg 559 252 pan 0 \, width 0;
#X obj 559 224 loadbang;
#N canvas 873 248 462 611 gdel-params 0;
#X msg 80 63 drywet \$1;
#X obj 80 173 s to-gdelay;
#X obj 83 43 hsl 128 15 0 1 0 0 empty empty empty -2 -8 0 10 #fcfcfc #000000 #000000 0 0;
#X obj 112 87 hsl 128 15 0 1 0 0 empty empty empty -2 -8 0 10 #fcfcfc #000000 #000000 0 0;
#X obj 112 127 hsl 128 15 0 1 0 0 empty empty empty -2 -8 0 10 #fcfcfc #000000 #000000 0 0;
#X msg 109 107 pan \$1;
#X msg 109 147 width \$1;
#X msg 246 87 0.5;
#X obj 80 356 s to-gdelay;
#X msg 80 258 size \$1;
#X floatatom 80 238 5 0 0 0 - - - 0;
#X floatatom 133 238 5 0 0 0 - - - 0;
#X msg 133 258 rsize \$1;
#X floatatom 142 300 5 0 0 0 - - - 0;
#X msg 142 320 mindelay \$1;
#X floatatom 220 300 5 0 0 0 - - - 0;
#X msg 220 320 maxdelay \$1;
#X obj 113 437 hsl 128 15 0 1 0 0 empty empty empty -2 -8 0 10 #fcfcfc #000000 #000000 0 0;
#X obj 113 478 hsl 128 15 0 1 0 0 empty empty empty -2 -8 0 10 #fcfcfc #000000 #000000 0 0;
#X obj 83 397 hsl 128 15 0 1 0 0 empty empty empty -2 -8 0 10 #fcfcfc #000000 #000000 0 0;
#X msg 80 417 feedback \$1;
#X msg 110 457 shorten \$1;
#X msg 110 498 drive \$1;
#X msg 246 126 1;
#X obj 290 55 loadbang;
#X msg 80 218 250;
#X msg 133 218 500;
#X msg 142 280 25;
#X msg 220 280 600, f 4;
#X obj 293 175 loadbang;
#X msg 247 437 0.1;
#X msg 247 478 0.2;
#X obj 295 368 loadbang;
#X obj 80 523 s to-gdelay;
#X msg 217 397 0.85;
#X connect 0 0 1 0;
#X connect 2 0 0 0;
#X connect 3 0 5 0;
#X connect 4 0 6 0;
#X connect 5 0 1 0;
#X connect 6 0 1 0;
#X connect 7 0 3 0;
#X connect 9 0 8 0;
#X connect 10 0 9 0;
#X connect 11 0 12 0;
#X connect 12 0 8 0;
#X connect 13 0 14 0;
#X connect 14 0 8 0;
#X connect 15 0 16 0;
#X connect 16 0 8 0;
#X connect 17 0 21 0;
#X connect 18 0 22 0;
#X connect 19 0 20 0;
#X connect 20 0 33 0;
#X connect 21 0 33 0;
#X connect 22 0 33 0;
#X connect 23 0 4 0;
#X connect 24 0 7 0;
#X connect 24 0 23 0;
#X connect 25 0 10 0;
#X connect 26 0 11 0;
#X connect 27 0 13 0;
#X connect 28 0 15 0;
#X connect 29 0 25 0;
#X connect 29 0 26 0;
#X connect 29 0 27 0;
#X connect 29 0 28 0;
#X connect 30 0 17 0;
#X connect 31 0 18 0;
#X connect 32 0 30 0;
#X connect 32 0 31 0;
#X connect 32 0 34 0;
#X connect 34 0 19 0;
#X restore 446 361 pd gdel-params;
#X obj 464 191 r to-gdelay;
#X obj 272 504 jl/bibi~;
#X obj 337 504 jl/bibi~;
#X obj 348 165 hsl 162 19 0 1 0 0 empty empty empty -2 -10 0 12 #fcfcfc #000000 #000000 0 0;
#X obj 144 82 inlet~;
#X obj 199 82 inlet~;
#X connect 0 0 6 0;
#X connect 1 0 2 0;
#X connect 1 1 4 0;
#X connect 3 0 2 1;
#X connect 3 1 5 0;
#X connect 4 0 2 0;
#X connect 5 0 2 1;
#X connect 6 2 5 1;
#X connect 6 2 4 1;
#X connect 7 0 4 1;
#X connect 7 0 5 1;
#X connect 8 0 7 0;
#X connect 10 0 6 0;
#X connect 13 0 1 1;
#X connect 13 0 3 1;
#X connect 14 0 1 0;
#X connect 15 0 3 0;
#X restore 151 583 pd effects;
#X connect 0 0 1 0;
#X connect 2 0 4 0;
#X connect 3 0 4 0;
#X connect 5 0 4 0;
#X connect 6 0 5 0;
#X connect 7 0 8 0;
#X connect 8 0 4 0;
#X connect 33 0 34 0;
#X connect 35 0 37 0;
#X connect 36 0 39 0;
#X connect 37 0 40 0;
#X connect 38 0 37 1;
#X connect 39 0 38 0;
