#N canvas 150 192 923 542 12;
#X declare -lib jl -path jl;
#X obj 62 62 declare -lib jl -path jl;
#X obj 62 37 clone -s 1 soundbank-unit 12 soundbank;
#X obj 355 224 gbend~;
#X msg 355 136 set soundbank-\$1;
#X floatatom 355 110 5 0 0 0 - - - 0;
#X obj 326 183 bng 19 250 50 0 empty empty empty 0 -10 0 12 #fcfcfc #000000 #000000;
#X obj 464 196 vsl 19 162 0 1 0 0 empty empty empty 0 -9 0 12 #fcfcfc #000000 #000000 0 0;
#X obj 355 363 *~;
#X obj 464 392 line~;
#X msg 464 367 \$1 10;
#X obj 338 430 dac~ 1 2;
#X obj 574 320 openpanel 1;
#X obj 574 286 bng 19 250 50 0 empty empty empty 0 -10 0 12 #fcfcfc #000000 #000000;
#X connect 2 0 7 0;
#X connect 3 0 2 0;
#X connect 4 0 3 0;
#X connect 5 0 2 0;
#X connect 6 0 9 0;
#X connect 7 0 10 0;
#X connect 7 0 10 1;
#X connect 8 0 7 1;
#X connect 9 0 8 0;
#X connect 12 0 11 0;
