#N canvas 139 75 588 524 12;
#X obj 357 140 bng 19 250 50 0 empty empty empty 0 -10 0 12 #fcfcfc #000000 #000000;
#N canvas 304 145 775 918 lunes-soundbank 0;
#X obj 113 114 openpanel 1;
#X obj 113 250 hcs/folder_list;
#X obj 185 396 f;
#X obj 214 396 + 1;
#X floatatom 246 423 5 0 0 0 - - - 0;
#X obj 113 568 soundfiler;
#X obj 113 516 pack s s s;
#X obj 113 279 t s b;
#X msg 113 542 read -resize \$1 \$2 \$3;
#X obj 180 617 * 0.001;
#X msg 180 593 \$1;
#X obj 113 653 /;
#X obj 185 422 t f f f;
#X obj 226 704 pack f f;
#X obj 226 752 unpack f f;
#X msg 226 728 \$1 \$2;
#X msg 243 287 -1;
#X obj 113 78 t b b b;
#X msg 221 352 0;
#X obj 113 30 inlet;
#X obj 117 837 clone -s 0 stereo-soundbank-unit 72 lunes;
#X obj 293 582 text define lunes;
#X obj 226 786 text set lunes;
#X obj 185 447 makefilename lunes-%d-L;
#X obj 208 472 makefilename lunes-%d-R;
#X obj 243 313 text delete lunes;
#X obj 113 225 makefilename %s/*.wav;
#X msg 259 147 C:/Users/joseph/Projects/git-repositories/scrime-u-bordeaux/Thyrse/Sons/lunes;
#X obj 275 86 makefilename %s;
#X msg 275 110 set \$1;
#X obj 243 45 loadbang;
#X obj 259 185 symbol;
#X connect 0 0 26 0;
#X connect 0 0 28 0;
#X connect 1 0 7 0;
#X connect 2 0 3 0;
#X connect 2 0 12 0;
#X connect 3 0 2 1;
#X connect 5 0 11 0;
#X connect 5 1 10 0;
#X connect 6 0 8 0;
#X connect 7 0 6 0;
#X connect 7 1 2 0;
#X connect 8 0 5 0;
#X connect 9 0 11 1;
#X connect 10 0 9 0;
#X connect 11 0 13 0;
#X connect 12 0 23 0;
#X connect 12 1 24 0;
#X connect 12 2 4 0;
#X connect 12 2 13 1;
#X connect 13 0 15 0;
#X connect 14 0 22 0;
#X connect 14 1 22 1;
#X connect 15 0 14 0;
#X connect 16 0 25 0;
#X connect 17 0 0 0;
#X connect 17 1 18 0;
#X connect 17 2 16 0;
#X connect 18 0 2 1;
#X connect 19 0 17 0;
#X connect 23 0 6 1;
#X connect 24 0 6 2;
#X connect 26 0 1 0;
#X connect 27 0 31 0;
#X connect 28 0 29 0;
#X connect 29 0 27 0;
#X connect 30 0 27 0;
#X connect 31 0 26 0;
#X restore 357 164 pd lunes-soundbank;
#N canvas 224 224 1144 548 normalize-midi-input 0;
#X obj 139 145 bendin 1;
#X obj 143 282 bendin 2;
#X obj 370 341 bendin 3;
#X obj 370 220 bendin 4;
#X obj 368 100 bendin 5;
#X obj 641 102 notein 7;
#X obj 694 128 != 0;
#X obj 641 155 pack f f;
#X obj 641 183 route 1 2 3 4 5;
#X text 373 315 accel Z;
#X text 374 194 accel Y;
#X text 371 74 accel X;
#X text 144 117 breath;
#X text 156 256 knob;
#X obj 139 197 s phorminx-breath;
#X obj 143 332 s phorminx-knob;
#X obj 368 151 s phorminx-accel-x;
#X obj 370 270 s phorminx-accel-y;
#X obj 370 392 s phorminx-accel-z;
#X obj 607 357 s phorminx-yellow-btn;
#X obj 651 323 s phorminx-btn-1;
#X obj 687 295 s phorminx-btn-2;
#X obj 735 267 s phorminx-btn-3;
#X obj 762 237 s phorminx-btn-4;
#X obj 139 171 expr ($f1/16383)*2-1;
#X obj 143 307 / 16383;
#X obj 370 367 expr ($f1/16383)*2-1;
#X obj 370 245 expr ($f1/16383)*2-1;
#X obj 368 125 expr ($f1/16383)*2-1;
#X connect 0 0 24 0;
#X connect 1 0 25 0;
#X connect 2 0 26 0;
#X connect 3 0 27 0;
#X connect 4 0 28 0;
#X connect 5 0 7 0;
#X connect 5 1 6 0;
#X connect 6 0 7 1;
#X connect 7 0 8 0;
#X connect 8 0 19 0;
#X connect 8 1 20 0;
#X connect 8 2 21 0;
#X connect 8 3 22 0;
#X connect 8 4 23 0;
#X connect 24 0 14 0;
#X connect 25 0 15 0;
#X connect 26 0 18 0;
#X connect 27 0 17 0;
#X connect 28 0 16 0;
#X restore 357 32 pd normalize-midi-input;
#N canvas 32 32 692 468 visualize 0;
#X obj 174 163 vsl 19 162 0 1 0 0 empty empty empty 0 -9 0 12 #c6feff #000000 #000000 0 0;
#X obj 227 163 vsl 19 162 0 1 0 0 empty empty empty 0 -9 0 12 #000000 #ffffff #000000 0 0;
#X obj 281 163 vsl 19 162 0 1 0 0 empty empty empty 0 -9 0 12 #fcfcfc #000000 #000000 0 0;
#X obj 305 163 vsl 19 162 0 1 0 0 empty empty empty 0 -9 0 12 #fcfcfc #000000 #000000 0 0;
#X obj 329 163 vsl 19 162 0 1 0 0 empty empty empty 0 -9 0 12 #fcfcfc #000000 #000000 0 0;
#X obj 378 174 tgl 25 0 empty empty empty 0 -10 0 12 #faff00 #000000 #000000 0 1;
#X obj 381 217 tgl 19 0 empty empty empty 0 -10 0 12 #fcfcfc #000000 #000000 0 1;
#X obj 381 242 tgl 19 0 empty empty empty 0 -10 0 12 #fcfcfc #000000 #000000 0 1;
#X obj 381 267 tgl 19 0 empty empty empty 0 -10 0 12 #fcfcfc #000000 #000000 0 1;
#X obj 381 293 tgl 19 0 empty empty empty 0 -10 0 12 #fcfcfc #000000 #000000 0 1;
#X obj 425 33 r phorminx-accel-z;
#X obj 323 85 r phorminx-accel-y;
#X obj 281 34 r phorminx-accel-x;
#X obj 134 41 r phorminx-breath;
#X obj 193 95 r phorminx-knob;
#X obj 134 65 expr $f1*0.5+0.5;
#X obj 281 59 expr $f1*0.5+0.5;
#X obj 322 109 expr $f1*0.5+0.5;
#X obj 425 57 expr $f1*0.5+0.5;
#X obj 479 96 r phorminx-yellow-btn;
#X obj 476 141 r phorminx-btn-1;
#X obj 476 165 r phorminx-btn-2;
#X obj 476 189 r phorminx-btn-3;
#X obj 476 214 r phorminx-btn-4;
#X text 156 330 souffle;
#X text 221 330 knob;
#X text 284 330 x;
#X text 308 330 y;
#X text 334 330 z;
#X connect 10 0 18 0;
#X connect 11 0 17 0;
#X connect 12 0 16 0;
#X connect 13 0 15 0;
#X connect 14 0 1 0;
#X connect 15 0 0 0;
#X connect 16 0 2 0;
#X connect 17 0 3 0;
#X connect 18 0 4 0;
#X connect 19 0 5 0;
#X connect 20 0 6 0;
#X connect 21 0 7 0;
#X connect 22 0 8 0;
#X connect 23 0 9 0;
#X coords 0 -1 1 1 275 200 2 150 150;
#X restore 75 32 pd visualize;
#N canvas 161 41 1025 914 orientation-and-trig 0;
#X obj 542 43 hsl 162 19 0 0.99 0 0 empty empty empty -2 -10 0 12 #fcfcfc #000000 #000000 0 0;
#N canvas 192 192 577 491 onepole 0;
#X obj 180 278 f;
#X obj 127 277 +;
#X obj 180 322 *;
#X obj 127 90 t f b, f 8;
#X obj 127 322 t f f;
#X obj 145 139 expr 1-$f1;
#X obj 252 89 t f f;
#X obj 127 420 outlet;
#X obj 61 30 inlet;
#X obj 252 55 inlet;
#X obj 127 166 * 1;
#X obj 87 60 t f f;
#X obj 87 376 -;
#X obj 180 420 outlet;
#X text 255 340 y[n] = x[n] * a - y[n-1] * (1 - a);
#X text 254 381 rightmost :;
#X text 256 405 value = x[n] - y[n] (cheap highpass);
#X text 254 315 leftmost :;
#X connect 0 0 2 0;
#X connect 1 0 4 0;
#X connect 2 0 1 1;
#X connect 3 0 10 0;
#X connect 3 1 0 0;
#X connect 4 0 7 0;
#X connect 4 0 12 1;
#X connect 4 1 0 1;
#X connect 5 0 10 1;
#X connect 6 0 5 0;
#X connect 6 1 2 1;
#X connect 8 0 11 0;
#X connect 9 0 6 0;
#X connect 10 0 1 0;
#X connect 11 0 12 0;
#X connect 11 1 3 0;
#X connect 12 0 13 0;
#X restore 86 105 pd onepole;
#N canvas 192 192 577 491 onepole 0;
#X obj 180 278 f;
#X obj 127 277 +;
#X obj 180 322 *;
#X obj 127 90 t f b, f 8;
#X obj 127 322 t f f;
#X obj 145 139 expr 1-$f1;
#X obj 252 89 t f f;
#X obj 127 420 outlet;
#X obj 61 30 inlet;
#X obj 252 55 inlet;
#X obj 127 166 * 1;
#X obj 87 60 t f f;
#X obj 87 376 -;
#X obj 180 420 outlet;
#X text 255 340 y[n] = x[n] * a - y[n-1] * (1 - a);
#X text 254 381 rightmost :;
#X text 256 405 value = x[n] - y[n] (cheap highpass);
#X text 254 315 leftmost :;
#X connect 0 0 2 0;
#X connect 1 0 4 0;
#X connect 2 0 1 1;
#X connect 3 0 10 0;
#X connect 3 1 0 0;
#X connect 4 0 7 0;
#X connect 4 0 12 1;
#X connect 4 1 0 1;
#X connect 5 0 10 1;
#X connect 6 0 5 0;
#X connect 6 1 2 1;
#X connect 8 0 11 0;
#X connect 9 0 6 0;
#X connect 10 0 1 0;
#X connect 11 0 12 0;
#X connect 11 1 3 0;
#X connect 12 0 13 0;
#X restore 267 106 pd onepole;
#N canvas 192 192 577 491 onepole 0;
#X obj 180 278 f;
#X obj 127 277 +;
#X obj 180 322 *;
#X obj 127 90 t f b, f 8;
#X obj 127 322 t f f;
#X obj 145 139 expr 1-$f1;
#X obj 252 89 t f f;
#X obj 127 420 outlet;
#X obj 61 30 inlet;
#X obj 252 55 inlet;
#X obj 127 166 * 1;
#X obj 87 60 t f f;
#X obj 87 376 -;
#X obj 180 420 outlet;
#X text 255 340 y[n] = x[n] * a - y[n-1] * (1 - a);
#X text 254 381 rightmost :;
#X text 256 405 value = x[n] - y[n] (cheap highpass);
#X text 254 315 leftmost :;
#X connect 0 0 2 0;
#X connect 1 0 4 0;
#X connect 2 0 1 1;
#X connect 3 0 10 0;
#X connect 3 1 0 0;
#X connect 4 0 7 0;
#X connect 4 0 12 1;
#X connect 4 1 0 1;
#X connect 5 0 10 1;
#X connect 6 0 5 0;
#X connect 6 1 2 1;
#X connect 8 0 11 0;
#X connect 9 0 6 0;
#X connect 10 0 1 0;
#X connect 11 0 12 0;
#X connect 11 1 3 0;
#X connect 12 0 13 0;
#X restore 405 133 pd onepole;
#X obj 267 78 r phorminx-accel-y;
#X obj 86 586 vsl 19 162 0 1 0 0 empty empty empty 0 -9 0 12 #fcfcfc #000000 #000000 0 0;
#X obj 110 586 vsl 19 162 0 1 0 0 empty empty empty 0 -9 0 12 #fcfcfc #000000 #000000 0 0;
#X obj 134 586 vsl 19 162 0 1 0 0 empty empty empty 0 -9 0 12 #fcfcfc #000000 #000000 0 0;
#X obj 86 452 expr $f1*0.5+0.5;
#X obj 86 78 r phorminx-accel-x;
#X obj 405 105 r phorminx-accel-z;
#X obj 86 133 clip -0.5 0.5;
#X obj 86 158 * 2;
#X obj 268 134 clip -0.5 0.5;
#X obj 268 159 * 2;
#X obj 405 160 clip -0.5 0.5;
#X obj 405 185 * 2;
#X floatatom 555 79 5 0 0 0 - - - 0;
#X obj 86 185 expr asin($f1)*2/3.14159;
#X msg 539 16 0.91;
#N canvas 128 128 585 858 hit-detection 0;
#X obj 134 50 expr sqrt($f1*$f1 + $f2*$f2 + $f3*$f3);
#X obj 137 267 t f f;
#X obj 137 305 -;
#X obj 134 20 inlet;
#X obj 265 20 inlet;
#X obj 397 20 inlet;
#X obj 216 542 change;
#X obj 216 402 >;
#X floatatom 276 364 5 0 0 0 - - - 0;
#X obj 216 427 sel 1;
#X obj 267 427 sel 1;
#X msg 299 478 0;
#X obj 267 452 t b b;
#X msg 216 478 1;
#X obj 137 583 spigot;
#X obj 227 364 t f f;
#X obj 137 390 f;
#X msg 276 335 0.1;
#X obj 137 331 t b f;
#N canvas 160 160 331 327 onebang 0;
#X obj 125 159 spigot;
#X obj 125 187 t b b;
#X msg 195 173 0;
#X msg 164 126 1;
#X obj 103 43 inlet;
#X obj 164 43 inlet;
#X obj 112 238 outlet;
#X connect 0 0 1 0;
#X connect 1 0 6 0;
#X connect 1 1 2 0;
#X connect 2 0 0 1;
#X connect 3 0 0 1;
#X connect 4 0 0 0;
#X connect 5 0 3 0;
#X restore 267 543 pd onebang;
#X obj 267 569 t b b;
#X obj 184 642 max;
#X obj 184 668 t f f;
#X obj 259 714 f;
#X obj 216 451 t b b;
#X msg 202 616 0;
#X obj 99 175 hsl 162 19 0 0.99 0 0 empty empty empty -2 -10 0 12 #fcfcfc #000000 #000000 0 0;
#X obj 201 231 t f f;
#X obj 276 310 loadbang;
#X obj 267 402 < 0;
#X obj 259 772 outlet;
#X floatatom 96 199 5 0 0 0 - - - 0;
#N canvas 192 192 577 491 onepole 0;
#X obj 180 278 f;
#X obj 127 277 +;
#X obj 180 322 *;
#X obj 127 90 t f b, f 8;
#X obj 127 322 t f f;
#X obj 145 139 expr 1-$f1;
#X obj 252 89 t f f;
#X obj 127 420 outlet;
#X obj 61 30 inlet;
#X obj 252 55 inlet;
#X obj 127 166 * 1;
#X obj 87 60 t f f;
#X obj 87 376 -;
#X obj 180 420 outlet;
#X text 255 340 y[n] = x[n] * a - y[n-1] * (1 - a);
#X text 254 381 rightmost :;
#X text 256 405 value = x[n] - y[n] (cheap highpass);
#X text 254 315 leftmost :;
#X connect 0 0 2 0;
#X connect 1 0 4 0;
#X connect 2 0 1 1;
#X connect 3 0 10 0;
#X connect 3 1 0 0;
#X connect 4 0 7 0;
#X connect 4 0 12 1;
#X connect 4 1 0 1;
#X connect 5 0 10 1;
#X connect 6 0 5 0;
#X connect 6 1 2 1;
#X connect 8 0 11 0;
#X connect 9 0 6 0;
#X connect 10 0 1 0;
#X connect 11 0 12 0;
#X connect 11 1 3 0;
#X connect 12 0 13 0;
#X restore 134 116 pd onepole;
#X floatatom 227 141 5 0 0 0 - - - 0;
#X obj 227 90 loadbang;
#X msg 227 116 0.75;
#X connect 0 0 32 0;
#X connect 1 0 2 1;
#X connect 1 1 2 0;
#X connect 2 0 18 0;
#X connect 3 0 0 0;
#X connect 4 0 0 1;
#X connect 5 0 0 2;
#X connect 6 0 14 1;
#X connect 7 0 9 0;
#X connect 8 0 7 1;
#X connect 9 0 24 0;
#X connect 10 0 12 0;
#X connect 11 0 6 0;
#X connect 12 0 19 0;
#X connect 12 1 11 0;
#X connect 13 0 6 0;
#X connect 14 0 21 0;
#X connect 15 0 7 0;
#X connect 15 1 29 0;
#X connect 16 0 14 0;
#X connect 17 0 8 0;
#X connect 18 0 16 0;
#X connect 18 1 15 0;
#X connect 19 0 20 0;
#X connect 20 0 25 0;
#X connect 20 1 23 0;
#X connect 21 0 22 0;
#X connect 22 0 21 1;
#X connect 22 1 23 1;
#X connect 23 0 30 0;
#X connect 24 0 13 0;
#X connect 24 1 19 1;
#X connect 25 0 21 1;
#X connect 26 0 31 0;
#X connect 27 0 1 0;
#X connect 27 1 16 1;
#X connect 28 0 17 0;
#X connect 29 0 10 0;
#X connect 32 0 26 0;
#X connect 32 0 27 0;
#X connect 33 0 32 1;
#X connect 34 0 35 0;
#X connect 35 0 33 0;
#X restore 429 316 pd hit-detection;
#X obj 429 351 bng 19 250 50 0 empty empty empty 0 -10 0 12 #fcfcfc #000000 #000000;
#X obj 456 351 hsl 162 19 0 0.99 0 0 empty empty empty -2 -10 0 12 #fcfcfc #000000 #000000 0 0;
#X obj 583 16 loadbang;
#X obj 268 226 expr atan2($f1 \, $f2);
#X floatatom 414 483 7 0 0 0 - - - 24;
#X obj 358 396 jl/map -3.14159 3.14159 0 360;
#X obj 110 507 expr $f1*0.5+0.5;
#X obj 134 558 expr $f1*0.5+0.5;
#X obj 110 483 expr asin($f1)*2/3.14159;
#X obj 134 534 expr asin($f1)*2/3.14159;
#X text 422 583 so we add 230 (360 - 130) and apply a modulo;
#X obj 339 698 moses 180;
#X obj 399 724 expr 360 - $f1;
#X obj 339 673 expr fmod(($f1 + 230) \, 360);
#X obj 414 457 i;
#X text 422 565 NB : rest position is approx. at angle 130°;
#X obj 361 771 / 180;
#X floatatom 361 799 7 0 0 0 - - - 24;
#X obj 111 379 s phorminx-inclination;
#X obj 320 844 s phorminx-rotation;
#X obj 557 317 s phorminx-hit;
#X obj 777 221 vsl 19 162 0 1 0 0 empty empty empty 0 -9 0 12 #fcfcfc #000000 #000000 0 0;
#X obj 801 221 vsl 19 162 0 1 0 0 empty empty empty 0 -9 0 12 #fcfcfc #000000 #000000 0 0;
#X obj 825 221 vsl 19 162 0 1 0 0 empty empty empty 0 -9 0 12 #fcfcfc #000000 #000000 0 0;
#X obj 830 476 vsl 19 162 0 1 0 0 empty empty empty 0 -9 0 12 #fcfcfc #000000 #000000 0 0;
#X obj 854 476 vsl 19 162 0 1 0 0 empty empty empty 0 -9 0 12 #fcfcfc #000000 #000000 0 0;
#X obj 878 476 vsl 19 162 0 1 0 0 empty empty empty 0 -9 0 12 #fcfcfc #000000 #000000 0 0;
#X obj 902 476 vsl 19 162 0 1 0 0 empty empty empty 0 -9 0 12 #fcfcfc #000000 #000000 0 0;
#N canvas 130 130 708 565 split-revolution-in-3 0;
#X obj 189 95 moses 120;
#X obj 252 127 moses 240;
#X obj 121 165 expr $f1/120;
#X obj 217 166 expr ($f1-120)/120;
#X obj 358 166 expr ($f1-240)/120;
#X obj 177 238 expr 1-$f1;
#X obj 258 237 expr 1-$f1;
#X obj 379 238 expr 1-$f1;
#X obj 359 209 t f f b;
#X obj 231 210 t f f b;
#X obj 126 210 t f f b;
#X msg 183 210 0;
#X msg 288 209 0;
#X msg 417 210 0;
#X obj 170 300 t a;
#X obj 261 301 t a;
#X obj 377 297 t a;
#X obj 193 58 inlet;
#X obj 180 394 outlet;
#X obj 247 393 outlet;
#X obj 360 391 outlet;
#X connect 0 0 2 0;
#X connect 0 1 1 0;
#X connect 1 0 3 0;
#X connect 1 1 4 0;
#X connect 2 0 10 0;
#X connect 3 0 9 0;
#X connect 4 0 8 0;
#X connect 5 0 14 0;
#X connect 6 0 15 0;
#X connect 7 0 16 0;
#X connect 8 0 14 0;
#X connect 8 1 7 0;
#X connect 8 2 13 0;
#X connect 9 0 16 0;
#X connect 9 1 6 0;
#X connect 9 2 12 0;
#X connect 10 0 15 0;
#X connect 10 1 5 0;
#X connect 10 2 11 0;
#X connect 11 0 16 0;
#X connect 12 0 14 0;
#X connect 13 0 15 0;
#X connect 14 0 18 0;
#X connect 15 0 19 0;
#X connect 16 0 20 0;
#X connect 17 0 0 0;
#X restore 719 167 pd split-revolution-in-3;
#N canvas 104 104 640 730 split-revolution-in-4 0;
#X obj 192 38 moses 90;
#X obj 257 66 moses 180;
#X obj 330 92 moses 270;
#X obj 123 175 expr $f1/90;
#X obj 158 308 expr 1-$f1;
#X obj 239 307 expr 1-$f1;
#X obj 360 308 expr 1-$f1;
#X obj 463 308 expr 1-$f1;
#X obj 445 280 t f f b;
#X obj 340 279 t f f b;
#X obj 212 280 t f f b;
#X obj 107 280 t f f b;
#X msg 164 280 0;
#X msg 269 279 0;
#X msg 398 280 0;
#X obj 212 176 expr ($f1-90)/90;
#X obj 340 176 expr ($f1-180)/90;
#X obj 425 202 expr ($f1-270)/90;
#X obj 192 8 inlet;
#X obj 234 494 t a;
#X obj 267 494 t a;
#X obj 300 494 t a;
#X obj 332 494 t a;
#X msg 503 280 0;
#X obj 204 602 outlet;
#X obj 257 602 outlet;
#X obj 308 602 outlet;
#X obj 360 603 outlet;
#X connect 0 0 3 0;
#X connect 0 1 1 0;
#X connect 1 0 15 0;
#X connect 1 1 2 0;
#X connect 2 0 16 0;
#X connect 2 1 17 0;
#X connect 3 0 11 0;
#X connect 4 0 19 0;
#X connect 5 0 20 0;
#X connect 6 0 21 0;
#X connect 7 0 22 0;
#X connect 8 0 19 0;
#X connect 8 1 7 0;
#X connect 8 2 23 0;
#X connect 9 0 22 0;
#X connect 9 1 6 0;
#X connect 9 2 14 0;
#X connect 10 0 21 0;
#X connect 10 1 5 0;
#X connect 10 2 13 0;
#X connect 11 0 20 0;
#X connect 11 1 4 0;
#X connect 11 2 12 0;
#X connect 12 0 22 0;
#X connect 12 0 21 0;
#X connect 13 0 22 0;
#X connect 13 0 19 0;
#X connect 14 0 20 0;
#X connect 14 0 19 0;
#X connect 15 0 10 0;
#X connect 16 0 9 0;
#X connect 17 0 8 0;
#X connect 18 0 0 0;
#X connect 19 0 24 0;
#X connect 20 0 25 0;
#X connect 21 0 26 0;
#X connect 22 0 27 0;
#X connect 23 0 21 0;
#X connect 23 0 20 0;
#X restore 799 420 pd split-revolution-in-4;
#X obj 530 718 s phorminx-azimuth;
#X connect 0 0 1 1;
#X connect 0 0 2 1;
#X connect 0 0 3 1;
#X connect 0 0 17 0;
#X connect 1 0 11 0;
#X connect 1 1 20 0;
#X connect 2 0 13 0;
#X connect 2 1 20 1;
#X connect 3 0 15 0;
#X connect 3 1 20 2;
#X connect 4 0 2 0;
#X connect 8 0 5 0;
#X connect 9 0 1 0;
#X connect 10 0 3 0;
#X connect 11 0 12 0;
#X connect 12 0 18 0;
#X connect 13 0 14 0;
#X connect 14 0 24 0;
#X connect 15 0 16 0;
#X connect 16 0 24 1;
#X connect 18 0 8 0;
#X connect 18 0 39 0;
#X connect 19 0 0 0;
#X connect 20 0 21 0;
#X connect 20 0 22 0;
#X connect 20 0 41 0;
#X connect 23 0 19 0;
#X connect 24 0 26 0;
#X connect 26 0 34 0;
#X connect 26 0 35 0;
#X connect 27 0 6 0;
#X connect 28 0 7 0;
#X connect 29 0 27 0;
#X connect 30 0 28 0;
#X connect 32 0 37 0;
#X connect 32 1 33 0;
#X connect 33 0 37 0;
#X connect 34 0 32 0;
#X connect 34 0 51 0;
#X connect 35 0 25 0;
#X connect 37 0 38 0;
#X connect 37 0 40 0;
#X connect 49 0 42 0;
#X connect 49 1 43 0;
#X connect 49 2 44 0;
#X connect 50 0 45 0;
#X connect 50 1 46 0;
#X connect 50 2 47 0;
#X connect 50 3 48 0;
#X restore 357 56 pd orientation-and-trig;
#N canvas 64 64 538 702 DEV-NOTES 0;
#X text 44 99 - harpe avec inclino (séparation gravite / mouvement);
#X text 43 157 - interface "trompette" (sons abstraits);
#X text 44 179 - inclinos pour modulation bande (gbend pitch / filtre);
#X text 42 120 - samples percussifs (détection onsets accéléro / et ou boutons);
#X text 45 222 structure : 12 parties;
#X text 45 265 en tout 36 séquences dont seules 12 seront jouées pendant la performance;
#X text 45 243 chaque partie a 3 versions \, séparées en Dithyrambe / Lune;
#X text 42 50 Thyrse : bâton de fécondité de Dionysos, f 41;
#X text 42 30 Phorminx : mot antique pour lyre / cithare;
#X restore 357 80 pd DEV-NOTES;
#N canvas 109 163 1074 842 effects 0;
#X obj 405 635 jl/gdelay~ 3 3000;
#X obj 468 608 jl/gdelay~ 3 3000;
#X obj 486 573 route pan width;
#X msg 600 573 pan 0 \, width 0;
#X obj 600 547 loadbang;
#N canvas 873 248 653 576 gdel-params 0;
#X msg 80 63 drywet \$1;
#X obj 83 43 hsl 128 15 0 1 0 0 empty empty empty -2 -8 0 10 #fcfcfc #000000 #000000 0 0;
#X obj 112 87 hsl 128 15 0 1 0 0 empty empty empty -2 -8 0 10 #fcfcfc #000000 #000000 0 0;
#X obj 112 127 hsl 128 15 0 1 0 0 empty empty empty -2 -8 0 10 #fcfcfc #000000 #000000 0 0;
#X msg 109 107 pan \$1;
#X msg 109 147 width \$1;
#X msg 228 52 0.5;
#X msg 199 214 size \$1;
#X floatatom 199 194 5 0 0 0 - - - 0;
#X floatatom 252 194 5 0 0 0 - - - 0;
#X msg 252 214 rsize \$1;
#X floatatom 261 256 5 0 0 0 - - - 0;
#X msg 261 276 mindelay \$1;
#X floatatom 339 256 5 0 0 0 - - - 0;
#X msg 339 276 maxdelay \$1;
#X obj 355 360 hsl 128 15 0 1 0 0 empty empty empty -2 -8 0 10 #fcfcfc #000000 #000000 0 0;
#X obj 355 401 hsl 128 15 0 1 0 0 empty empty empty -2 -8 0 10 #fcfcfc #000000 #000000 0 0;
#X obj 325 320 hsl 128 15 0 1 0 0 empty empty empty -2 -8 0 10 #fcfcfc #000000 #000000 0 0;
#X msg 322 340 feedback \$1;
#X msg 352 380 shorten \$1;
#X msg 352 421 drive \$1;
#X msg 246 126 1;
#X obj 262 18 loadbang;
#X msg 261 236 25;
#X msg 339 236 600, f 4;
#X obj 412 131 loadbang;
#X obj 537 291 loadbang;
#X obj 80 173 t a;
#X obj 199 312 t a;
#X obj 322 446 t a;
#X obj 199 515 outlet;
#X msg 199 174 314;
#X floatatom 283 356 5 0 0 0 - - - 0;
#X floatatom 281 380 5 0 0 0 - - - 0;
#X floatatom 284 406 5 0 0 0 - - - 0;
#X floatatom 18 91 5 0 0 0 - - - 0;
#X msg 91 14 0.18;
#X msg 459 320 0.23;
#X msg 489 360 0;
#X msg 489 401 0.88;
#X msg 252 174 597;
#X connect 0 0 27 0;
#X connect 1 0 0 0;
#X connect 1 0 35 0;
#X connect 2 0 4 0;
#X connect 3 0 5 0;
#X connect 4 0 27 0;
#X connect 5 0 27 0;
#X connect 6 0 2 0;
#X connect 6 0 3 0;
#X connect 7 0 28 0;
#X connect 8 0 7 0;
#X connect 9 0 10 0;
#X connect 10 0 28 0;
#X connect 11 0 12 0;
#X connect 12 0 28 0;
#X connect 13 0 14 0;
#X connect 14 0 28 0;
#X connect 15 0 19 0;
#X connect 15 0 33 0;
#X connect 16 0 20 0;
#X connect 16 0 34 0;
#X connect 17 0 18 0;
#X connect 17 0 32 0;
#X connect 18 0 29 0;
#X connect 19 0 29 0;
#X connect 20 0 29 0;
#X connect 21 0 3 0;
#X connect 22 0 6 0;
#X connect 22 0 36 0;
#X connect 23 0 11 0;
#X connect 24 0 13 0;
#X connect 25 0 31 0;
#X connect 25 0 40 0;
#X connect 25 0 23 0;
#X connect 25 0 24 0;
#X connect 26 0 38 0;
#X connect 26 0 39 0;
#X connect 26 0 37 0;
#X connect 27 0 30 0;
#X connect 28 0 30 0;
#X connect 29 0 30 0;
#X connect 31 0 8 0;
#X connect 36 0 1 0;
#X connect 37 0 17 0;
#X connect 38 0 15 0;
#X connect 39 0 16 0;
#X connect 40 0 9 0;
#X restore 188 147 pd gdel-params;
#X obj 822 561 jl/bibi~;
#X obj 887 561 jl/bibi~;
#X obj 344 99 receive~ lunes-L;
#X obj 384 125 receive~ lunes-R;
#X obj 72 113 receive~ slideflute;
#X obj 326 564 jl/split~;
#X obj 400 563 jl/split~;
#X obj 459 497 hsl 162 19 0 1 0 0 empty empty empty -2 -10 0 12 #fcfcfc #000000 #000000 0 0;
#X obj 386 513 *~ 1;
#X obj 344 513 *~ 1;
#X obj 437 730 *~;
#X obj 501 730 *~;
#X obj 71 272 *~;
#X obj 188 272 *~;
#X obj 550 691 line~;
#X obj 230 232 line~;
#X obj 344 242 *~;
#X obj 385 242 *~;
#X obj 506 125 line~;
#X msg 506 100 \$1 10;
#X obj 510 371 *~;
#X obj 551 371 *~;
#X obj 689 258 line~;
#X msg 689 233 \$1 10;
#X obj 509 74 hsl 162 19 0 1 0 0 empty empty empty -2 -10 0 12 #fcfcfc #000000 #000000 0 0;
#X obj 692 207 hsl 162 19 0 1 0 0 empty empty empty -2 -10 0 12 #fcfcfc #000000 #000000 0 0;
#X obj 233 206 hsl 162 19 0 1 0 0 empty empty empty -2 -10 0 12 #fcfcfc #000000 #000000 0 0;
#X obj 436 767 dac~ 1 2;
#X obj 553 665 hsl 162 19 0 1 0 0 empty empty empty -2 -10 0 12 #fcfcfc #000000 #000000 0 0;
#X obj 550 639 r phorminx-knob;
#X obj 510 232 receive~ loops-L;
#X obj 551 258 receive~ loops-R;
#X obj 72 173 jl/gdelay~ 4 2000;
#X msg 752 32 1;
#X obj 752 8 loadbang;
#X obj 230 87 loadbang;
#N canvas 873 248 653 576 gdel-params 0;
#X msg 80 63 drywet \$1;
#X obj 83 43 hsl 128 15 0 1 0 0 empty empty empty -2 -8 0 10 #fcfcfc #000000 #000000 0 0;
#X obj 112 87 hsl 128 15 0 1 0 0 empty empty empty -2 -8 0 10 #fcfcfc #000000 #000000 0 0;
#X obj 112 127 hsl 128 15 0 1 0 0 empty empty empty -2 -8 0 10 #fcfcfc #000000 #000000 0 0;
#X msg 109 107 pan \$1;
#X msg 109 147 width \$1;
#X msg 228 52 0.5;
#X msg 199 214 size \$1;
#X floatatom 199 194 5 0 0 0 - - - 0;
#X floatatom 252 194 5 0 0 0 - - - 0;
#X msg 252 214 rsize \$1;
#X floatatom 261 256 5 0 0 0 - - - 0;
#X msg 261 276 mindelay \$1;
#X floatatom 339 256 5 0 0 0 - - - 0;
#X msg 339 276 maxdelay \$1;
#X obj 355 360 hsl 128 15 0 1 0 0 empty empty empty -2 -8 0 10 #fcfcfc #000000 #000000 0 0;
#X obj 355 401 hsl 128 15 0 1 0 0 empty empty empty -2 -8 0 10 #fcfcfc #000000 #000000 0 0;
#X obj 325 320 hsl 128 15 0 1 0 0 empty empty empty -2 -8 0 10 #fcfcfc #000000 #000000 0 0;
#X msg 322 340 feedback \$1;
#X msg 352 380 shorten \$1;
#X msg 352 421 drive \$1;
#X msg 246 126 1;
#X obj 262 18 loadbang;
#X msg 261 236 25;
#X msg 339 236 600, f 4;
#X obj 412 131 loadbang;
#X obj 537 291 loadbang;
#X obj 80 173 t a;
#X obj 199 312 t a;
#X obj 322 446 t a;
#X obj 199 515 outlet;
#X msg 199 174 314;
#X floatatom 283 356 5 0 0 0 - - - 0;
#X floatatom 281 380 5 0 0 0 - - - 0;
#X floatatom 284 406 5 0 0 0 - - - 0;
#X floatatom 18 91 5 0 0 0 - - - 0;
#X msg 459 320 0.23;
#X msg 489 360 0;
#X msg 489 401 0.88;
#X msg 252 174 597;
#X floatatom 315 102 5 0 0 0 - - - 0;
#X msg 315 82 600, f 4;
#X msg 315 122 speed \$1;
#X msg 91 14 0.188;
#X connect 0 0 27 0;
#X connect 1 0 0 0;
#X connect 1 0 35 0;
#X connect 2 0 4 0;
#X connect 3 0 5 0;
#X connect 4 0 27 0;
#X connect 5 0 27 0;
#X connect 6 0 2 0;
#X connect 6 0 3 0;
#X connect 7 0 28 0;
#X connect 8 0 7 0;
#X connect 9 0 10 0;
#X connect 10 0 28 0;
#X connect 11 0 12 0;
#X connect 12 0 28 0;
#X connect 13 0 14 0;
#X connect 14 0 28 0;
#X connect 15 0 19 0;
#X connect 15 0 33 0;
#X connect 16 0 20 0;
#X connect 16 0 34 0;
#X connect 17 0 18 0;
#X connect 17 0 32 0;
#X connect 18 0 29 0;
#X connect 19 0 29 0;
#X connect 20 0 29 0;
#X connect 21 0 3 0;
#X connect 22 0 6 0;
#X connect 22 0 43 0;
#X connect 23 0 11 0;
#X connect 24 0 13 0;
#X connect 25 0 31 0;
#X connect 25 0 39 0;
#X connect 25 0 23 0;
#X connect 25 0 24 0;
#X connect 26 0 37 0;
#X connect 26 0 38 0;
#X connect 26 0 36 0;
#X connect 27 0 30 0;
#X connect 28 0 30 0;
#X connect 29 0 30 0;
#X connect 31 0 8 0;
#X connect 36 0 17 0;
#X connect 37 0 15 0;
#X connect 38 0 16 0;
#X connect 39 0 9 0;
#X connect 40 0 42 0;
#X connect 41 0 40 0;
#X connect 42 0 28 0;
#X connect 43 0 1 0;
#X restore 486 547 pd gdel-params;
#X msg 230 112 0.5;
#X connect 0 0 16 0;
#X connect 1 0 17 0;
#X connect 2 2 1 1;
#X connect 2 2 0 1;
#X connect 3 0 0 1;
#X connect 3 0 1 1;
#X connect 4 0 3 0;
#X connect 5 0 38 1;
#X connect 8 0 22 0;
#X connect 9 0 23 0;
#X connect 10 0 38 0;
#X connect 11 0 16 0;
#X connect 11 1 0 0;
#X connect 12 0 17 0;
#X connect 12 1 1 0;
#X connect 13 0 11 1;
#X connect 13 0 12 1;
#X connect 14 0 12 0;
#X connect 15 0 11 0;
#X connect 16 0 33 0;
#X connect 17 0 33 1;
#X connect 18 0 15 0;
#X connect 19 0 14 0;
#X connect 20 0 16 1;
#X connect 20 0 17 1;
#X connect 21 0 19 1;
#X connect 21 0 18 1;
#X connect 22 0 15 0;
#X connect 23 0 14 0;
#X connect 24 0 23 1;
#X connect 24 0 22 1;
#X connect 25 0 24 0;
#X connect 26 0 15 0;
#X connect 27 0 14 0;
#X connect 28 0 27 1;
#X connect 28 0 26 1;
#X connect 29 0 28 0;
#X connect 30 0 25 0;
#X connect 31 0 29 0;
#X connect 32 0 21 0;
#X connect 34 0 20 0;
#X connect 35 0 34 0;
#X connect 36 0 26 0;
#X connect 37 0 27 0;
#X connect 38 0 18 0;
#X connect 38 1 19 0;
#X connect 39 0 30 0;
#X connect 39 0 31 0;
#X connect 40 0 39 0;
#X connect 41 0 43 0;
#X connect 42 0 2 0;
#X connect 43 0 32 0;
#X restore 335 251 pd effects;
#X obj 357 188 bng 19 250 50 0 empty empty empty 0 -10 0 12 #fcfcfc #000000 #000000;
#N canvas 1083 155 675 841 scenario-control 0;
#X obj 85 72 r phorminx-yellow-btn;
#X obj 179 104 r phorminx-btn-1;
#X obj 234 129 r phorminx-btn-2;
#X obj 179 240 spigot;
#X obj 179 267 sel 1;
#X obj 234 241 spigot;
#X obj 234 268 sel 1;
#X obj 250 390 bng 19 250 50 0 empty empty empty 0 -10 0 12 #fcfcfc #000000 #000000;
#X obj 192 390 bng 19 250 50 0 empty empty empty 0 -10 0 12 #fcfcfc #000000 #000000;
#X floatatom 421 540 5 0 0 0 - - - 0;
#X obj 287 241 spigot;
#X obj 287 268 sel 1;
#X obj 342 242 spigot;
#X obj 342 269 sel 1;
#X obj 287 298 bng 19 250 50 0 empty empty empty 0 -10 0 12 #fcfcfc #000000 #000000;
#X obj 342 298 bng 19 250 50 0 empty empty empty 0 -10 0 12 #fcfcfc #000000 #000000;
#X obj 287 154 r phorminx-btn-3;
#X obj 342 179 r phorminx-btn-4;
#X obj 133 561 / 2;
#X obj 133 586 i;
#X obj 181 561 % 2;
#X floatatom 211 561 5 0 0 0 - - - 0;
#N canvas 234 234 730 716 step-sequences 0;
#X obj 345 492 moses 0;
#X obj 444 542 t b;
#X obj 345 518 t b;
#X obj 391 517 moses 24;
#X msg 444 566 0;
#X obj 220 478 f;
#X obj 346 467 +;
#X msg 410 434 1;
#X msg 378 434 -1;
#X obj 125 236 bng 19 250 50 0 empty empty empty 0 -10 0 12 #fcfcfc #000000 #000000;
#X obj 218 157 t b b;
#X obj 299 157 t b b;
#X obj 218 131 bng 19 250 50 0 empty empty empty 0 -10 0 12 #fcfcfc #000000 #000000;
#X obj 299 131 bng 19 250 50 0 empty empty empty 0 -10 0 12 #fcfcfc #000000 #000000;
#X obj 65 518 f;
#X obj 65 420 spigot;
#X obj 217 424 spigot;
#X obj 65 446 t b b;
#X obj 205 352 t b f;
#X msg 242 394 0;
#X msg 155 393 1;
#X msg 123 393 0;
#X msg 274 394 1;
#X obj 217 448 t b;
#X obj 121 359 t b b;
#X msg 192 265 15;
#X msg 227 265 25;
#X msg 158 266 0;
#X obj 345 544 f 23;
#X text 166 239 next value;
#X obj 423 653 outlet;
#X obj 391 606 t f f;
#X obj 202 42 inlet prev;
#X obj 331 66 inlet next;
#X obj 462 132 inlet set-and-arm;
#X obj 461 465 t f f;
#X obj 505 465 + 1;
#X obj 543 180 inlet max-seq-index;
#X connect 0 0 2 0;
#X connect 0 1 3 0;
#X connect 1 0 4 0;
#X connect 2 0 28 0;
#X connect 3 0 31 0;
#X connect 3 1 1 0;
#X connect 4 0 31 0;
#X connect 5 0 6 0;
#X connect 6 0 0 0;
#X connect 7 0 6 1;
#X connect 8 0 6 1;
#X connect 9 0 24 0;
#X connect 10 0 9 0;
#X connect 10 1 8 0;
#X connect 11 0 9 0;
#X connect 11 1 7 0;
#X connect 12 0 10 0;
#X connect 13 0 11 0;
#X connect 14 0 0 0;
#X connect 15 0 17 0;
#X connect 16 0 23 0;
#X connect 17 0 14 0;
#X connect 17 1 22 0;
#X connect 17 1 21 0;
#X connect 18 0 19 0;
#X connect 18 0 20 0;
#X connect 18 1 14 1;
#X connect 19 0 16 1;
#X connect 20 0 15 1;
#X connect 21 0 15 1;
#X connect 22 0 16 1;
#X connect 23 0 5 0;
#X connect 24 0 15 0;
#X connect 24 1 16 0;
#X connect 25 0 18 0;
#X connect 26 0 18 0;
#X connect 27 0 18 0;
#X connect 28 0 31 0;
#X connect 31 0 5 1;
#X connect 31 1 30 0;
#X connect 32 0 12 0;
#X connect 33 0 13 0;
#X connect 34 0 18 0;
#X connect 35 0 28 1;
#X connect 35 1 36 0;
#X connect 36 0 3 1;
#X connect 37 0 35 0;
#X restore 212 429 pd step-sequences;
#X msg 321 340 0;
#X floatatom 381 342 5 0 0 0 - - - 0;
#X obj 287 391 f;
#X obj 253 347 t b b;
#X obj 133 655 + 1;
#X obj 181 586 sel 0 1, f 24;
#X msg 181 611 dithyrambe;
#X msg 263 611 lune;
#X obj 226 655 symbol;
#X obj 212 459 t f f f;
#X obj 258 483 + 1;
#X obj 133 708 outlet;
#X obj 226 707 outlet;
#X obj 421 282 inlet;
#N canvas 26 26 1036 767 lune-select 0;
#X obj 337 262 sel 1 2 3 4 5 6 7 8 9 10 11 12 13 14 15 16 17 18 19 20 21 22 23 24;
#X obj 238 630 s lune-sequence;
#X msg 60 417 0;
#X obj 128 435 + 1;
#X floatatom 128 459 5 0 0 0 - - - 0;
#X msg 359 15 01_1_Dith_octobre.wav \; 01_2_Lune_1a.wav \; 01_2_Lune_1b.wav \; 01_3_Lune_mix.wav \; 02_1_Dith_Novembre \; 02_2_Lune2Braises_perturbations.wav \; 02_3_Lune_Braises_Mix.wav \; 02_3_Lune_Mix_Pluie.wav \; 03_1_Dith_Decembre.wav \; 03_2_Lune_Decembre_Flutes.wav \; 04_2_Lune_Janvier_Cymbals.wav \; 04_3_Janvier_Mix.wav \; 05_1_Fevrier.wav \; 05_2_Lune_Mantele_Foudre_109_A3.wav \; 05_3_Fevrier_Mix.wav \;;
#X obj 120 408 random 2;
#X msg 201 429 4;
#X floatatom 238 465 5 0 0 0 - - - 0;
#X obj 238 441 + 5;
#X obj 238 417 random 2;
#X msg 308 441 8;
#X msg 341 445 9;
#X text 59 461 octobre;
#X text 204 491 novembre;
#X text 312 468 decembre;
#X msg 394 448 11;
#X msg 426 445 10;
#X text 399 481 janvier;
#X floatatom 521 475 5 0 0 0 - - - 0;
#X obj 500 421 random 2;
#X msg 484 457 12;
#X obj 521 451 + 13;
#X text 499 500 fevrier;
#X obj 110 70 inlet;
#X connect 0 0 2 0;
#X connect 0 1 6 0;
#X connect 0 2 7 0;
#X connect 0 3 10 0;
#X connect 0 4 11 0;
#X connect 0 5 12 0;
#X connect 0 6 16 0;
#X connect 0 7 17 0;
#X connect 0 8 21 0;
#X connect 0 9 20 0;
#X connect 2 0 1 0;
#X connect 3 0 4 0;
#X connect 4 0 1 0;
#X connect 6 0 3 0;
#X connect 7 0 1 0;
#X connect 8 0 1 0;
#X connect 9 0 8 0;
#X connect 10 0 9 0;
#X connect 11 0 1 0;
#X connect 12 0 1 0;
#X connect 16 0 1 0;
#X connect 17 0 1 0;
#X connect 19 0 1 0;
#X connect 20 0 22 0;
#X connect 21 0 1 0;
#X connect 22 0 19 0;
#X connect 24 0 0 0;
#X restore 368 711 pd lune-select;
#N canvas 52 52 645 411 loopers-select 0;
#X obj 105 34 inlet;
#X text 184 25 MODES :;
#X text 205 53 0 off;
#X text 205 70 1 nature mouche;
#X text 204 86 2 nuit grenouilles;
#X text 204 104 3 gyorgy 1;
#X obj 185 171 sel 1 2 3 4 5 6 7 8 9 10 11 12 13 14 15 16 17 18 19 20 21 22 23 24;
#X obj 271 299 t b;
#X msg 57 307 1;
#X msg 92 307 2;
#X floatatom 81 166 5 0 0 0 - - - 0;
#X obj 195 360 s loopers-mode;
#X msg 271 325 0;
#X text 205 122 4 gyorgy 2;
#X msg 131 310 3;
#X msg 167 308 4;
#X obj 74 226 sel 1 2 3 4 5 6 7 8 9 10;
#X msg 202 309 5;
#X text 205 137 5 gyorgy flutes;
#X connect 0 0 10 0;
#X connect 7 0 12 0;
#X connect 8 0 11 0;
#X connect 9 0 11 0;
#X connect 10 0 6 0;
#X connect 10 0 16 0;
#X connect 12 0 11 0;
#X connect 14 0 11 0;
#X connect 15 0 11 0;
#X connect 16 0 9 0;
#X connect 16 1 14 0;
#X connect 16 2 8 0;
#X connect 16 3 8 0;
#X connect 16 4 15 0;
#X connect 16 5 17 0;
#X connect 16 6 17 0;
#X connect 16 7 14 0;
#X connect 16 8 9 0;
#X connect 16 9 15 0;
#X connect 16 10 7 0;
#X connect 17 0 11 0;
#X restore 444 676 pd loopers-select;
#X obj 421 564 t f f f;
#N canvas 52 52 701 310 pan-mode 0;
#X obj 105 34 inlet;
#X obj 193 251 s pan-mode;
#X obj 129 67 sel 1 2 3 4 5 6 7 8 9 10 11 12 13 14 15 16 17 18 19 20 21 22 23 24;
#X obj 186 190 t b;
#X floatatom 64 75 5 0 0 0 - - - 0;
#X obj 72 117 sel 3 5 8 9;
#X msg 186 219 1;
#X msg 55 198 2;
#X msg 90 198 3;
#X msg 140 197 0;
#X connect 0 0 2 0;
#X connect 0 0 4 0;
#X connect 3 0 6 0;
#X connect 4 0 5 0;
#X connect 5 0 8 0;
#X connect 5 1 7 0;
#X connect 5 2 8 0;
#X connect 5 3 7 0;
#X connect 5 4 3 0;
#X connect 6 0 1 0;
#X connect 7 0 1 0;
#X connect 8 0 1 0;
#X connect 9 0 1 0;
#X restore 516 644 pd pan-mode;
#X text 180 751 DISPLAY;
#X text 451 745 ACTIONS;
#X floatatom 461 444 5 0 0 1 max\ seq\ index - - 0;
#X obj 449 382 loadbang;
#X msg 449 407 23;
#X msg 519 405 9;
#X connect 0 0 5 1;
#X connect 0 0 3 1;
#X connect 0 0 10 1;
#X connect 0 0 12 1;
#X connect 1 0 3 0;
#X connect 2 0 5 0;
#X connect 3 0 4 0;
#X connect 4 0 7 0;
#X connect 5 0 6 0;
#X connect 6 0 26 0;
#X connect 7 0 22 1;
#X connect 8 0 22 0;
#X connect 9 0 39 0;
#X connect 10 0 11 0;
#X connect 11 0 14 0;
#X connect 12 0 13 0;
#X connect 13 0 15 0;
#X connect 14 0 8 0;
#X connect 15 0 24 0;
#X connect 16 0 10 0;
#X connect 17 0 12 0;
#X connect 18 0 19 0;
#X connect 19 0 27 0;
#X connect 20 0 21 0;
#X connect 20 0 28 0;
#X connect 22 0 32 0;
#X connect 23 0 25 1;
#X connect 24 0 25 1;
#X connect 25 0 22 2;
#X connect 26 0 7 0;
#X connect 26 1 25 0;
#X connect 27 0 34 0;
#X connect 28 0 29 0;
#X connect 28 1 30 0;
#X connect 29 0 31 0;
#X connect 30 0 31 0;
#X connect 31 0 35 0;
#X connect 32 0 18 0;
#X connect 32 1 20 0;
#X connect 32 2 33 0;
#X connect 33 0 9 0;
#X connect 36 0 24 0;
#X connect 39 0 37 0;
#X connect 39 1 38 0;
#X connect 39 2 40 0;
#X connect 43 0 22 3;
#X connect 44 0 45 0;
#X connect 45 0 43 0;
#X connect 46 0 43 0;
#X restore 195 353 pd scenario-control;
#N canvas 120 29 1506 947 loopers 0;
#X obj 152 201 bng 33 250 50 0 empty empty empty 0 -10 0 12 #fcfcfc #000000 #000000;
#X msg 110 201 stop;
#X msg 194 230 fade \$1;
#N canvas 156 156 877 541 mmm-scale 0;
#X obj 166 206 moses;
#X obj 211 206 moses;
#X obj 214 298 bng 19 250 50 0 empty empty empty 0 -10 0 12 #fcfcfc #000000 #000000;
#X msg 214 324 0;
#X obj 256 206 moses;
#X obj 286 143 t f f;
#X obj 390 144 t f f;
#X obj 264 325 jl/map 0 1 0 1;
#X obj 331 143 t f f f;
#X obj 375 325 jl/map 0 1 1 0;
#X obj 264 382 t f;
#X msg 450 204 xfactor \$1;
#X msg 467 227 xfactor \$1;
#X obj 264 422 outlet;
#X obj 124 52 inlet input;
#X obj 259 52 inlet min;
#X obj 331 52 inlet mid;
#X obj 403 52 inlet max;
#X obj 592 77 * -1;
#X obj 485 52 inlet xfactor1;
#X obj 592 52 inlet xfactor2;
#X obj 700 52 inlet sfactor;
#X msg 485 250 sfactor \$1;
#X connect 0 0 2 0;
#X connect 0 1 1 0;
#X connect 1 0 7 0;
#X connect 1 1 4 0;
#X connect 2 0 3 0;
#X connect 3 0 10 0;
#X connect 4 0 9 0;
#X connect 4 1 2 0;
#X connect 5 0 0 1;
#X connect 5 1 7 1;
#X connect 6 0 4 1;
#X connect 6 1 9 2;
#X connect 7 0 10 0;
#X connect 8 0 1 1;
#X connect 8 1 7 2;
#X connect 8 2 9 1;
#X connect 9 0 10 0;
#X connect 10 0 13 0;
#X connect 11 0 7 0;
#X connect 12 0 9 0;
#X connect 14 0 0 0;
#X connect 15 0 5 0;
#X connect 16 0 8 0;
#X connect 17 0 6 0;
#X connect 18 0 12 0;
#X connect 19 0 11 0;
#X connect 20 0 18 0;
#X connect 21 0 22 0;
#X connect 22 0 7 0;
#X connect 22 0 9 0;
#X restore 746 372 pd mmm-scale;
#X floatatom 752 299 5 0 0 0 - - - 0;
#X floatatom 793 299 5 0 0 0 - - - 0;
#X floatatom 834 299 5 0 0 0 - - - 0;
#X floatatom 924 294 5 0 0 0 - - - 0;
#X floatatom 964 294 5 0 0 0 - - - 0;
#X floatatom 709 297 5 0 0 0 - - - 0;
#X floatatom 838 372 5 0 0 0 - - - 0;
#N canvas 156 156 877 541 mmm-scale 0;
#X obj 166 206 moses;
#X obj 211 206 moses;
#X obj 214 298 bng 19 250 50 0 empty empty empty 0 -10 0 12 #fcfcfc #000000 #000000;
#X msg 214 324 0;
#X obj 256 206 moses;
#X obj 286 143 t f f;
#X obj 390 144 t f f;
#X obj 264 325 jl/map 0 1 0 1;
#X obj 331 143 t f f f;
#X obj 375 325 jl/map 0 1 1 0;
#X obj 264 382 t f;
#X msg 450 204 xfactor \$1;
#X msg 467 227 xfactor \$1;
#X obj 264 422 outlet;
#X obj 124 52 inlet input;
#X obj 259 52 inlet min;
#X obj 331 52 inlet mid;
#X obj 403 52 inlet max;
#X obj 592 77 * -1;
#X obj 485 52 inlet xfactor1;
#X obj 592 52 inlet xfactor2;
#X obj 700 52 inlet sfactor;
#X msg 485 250 sfactor \$1;
#X connect 0 0 2 0;
#X connect 0 1 1 0;
#X connect 1 0 7 0;
#X connect 1 1 4 0;
#X connect 2 0 3 0;
#X connect 3 0 10 0;
#X connect 4 0 9 0;
#X connect 4 1 2 0;
#X connect 5 0 0 1;
#X connect 5 1 7 1;
#X connect 6 0 4 1;
#X connect 6 1 9 2;
#X connect 7 0 10 0;
#X connect 8 0 1 1;
#X connect 8 1 7 2;
#X connect 8 2 9 1;
#X connect 9 0 10 0;
#X connect 10 0 13 0;
#X connect 11 0 7 0;
#X connect 12 0 9 0;
#X connect 14 0 0 0;
#X connect 15 0 5 0;
#X connect 16 0 8 0;
#X connect 17 0 6 0;
#X connect 18 0 12 0;
#X connect 19 0 11 0;
#X connect 20 0 18 0;
#X connect 21 0 22 0;
#X connect 22 0 7 0;
#X connect 22 0 9 0;
#X restore 864 399 pd mmm-scale;
#X floatatom 874 300 5 0 0 0 - - - 0;
#X floatatom 985 335 5 0 0 0 - - - 0;
#X floatatom 1025 335 5 0 0 0 - - - 0;
#X floatatom 957 399 5 0 0 0 - - - 0;
#X obj 807 129 bng 19 250 50 0 empty empty empty 0 -10 0 12 #fcfcfc #000000 #000000;
#X obj 807 105 loadbang;
#X msg 1039 303 1;
#X obj 1021 272 bng 19 250 50 0 empty empty empty 0 -10 0 12 #fcfcfc #000000 #000000;
#X obj 1021 248 loadbang;
#N canvas 64 64 760 730 loop-player 0;
#X obj 185 458 jl/gbend~;
#X obj 260 458 jl/gbend~;
#X floatatom 310 218 5 0 0 0 - - - 0;
#X obj 342 300 t f f;
#X obj 522 353 *~ 1;
#X obj 186 554 *~;
#X obj 261 554 *~;
#X obj 185 342 t a a;
#X obj 337 508 line~;
#X msg 337 483 \$1 10;
#X obj 340 458 hsl 162 19 0 1 0 0 empty empty empty -2 -10 0 12 #fcfcfc #000000 #000000 0 0;
#X obj 310 242 t f f;
#X msg 284 299 end \$1;
#X obj 147 245 loadbang;
#X msg 147 270 loop 1;
#X obj 187 610 outlet~;
#X obj 262 610 outlet~;
#X obj 185 139 t a;
#X obj 185 76 inlet;
#X obj 185 164 route volume sequence;
#X obj 521 75 inlet~;
#X obj 284 273 text get loops;
#X msg 342 324 set loops-\$1-L;
#X msg 374 348 set loops-\$1-R;
#X connect 0 0 5 0;
#X connect 1 0 6 0;
#X connect 2 0 11 0;
#X connect 3 0 22 0;
#X connect 3 1 23 0;
#X connect 4 0 0 0;
#X connect 4 0 1 0;
#X connect 5 0 15 0;
#X connect 6 0 16 0;
#X connect 7 0 0 0;
#X connect 7 1 1 0;
#X connect 8 0 5 1;
#X connect 8 0 6 1;
#X connect 9 0 8 0;
#X connect 10 0 9 0;
#X connect 11 0 21 0;
#X connect 11 1 3 0;
#X connect 12 0 7 0;
#X connect 13 0 14 0;
#X connect 14 0 7 0;
#X connect 17 0 19 0;
#X connect 18 0 17 0;
#X connect 19 0 10 0;
#X connect 19 1 2 0;
#X connect 19 2 7 0;
#X connect 20 0 4 0;
#X connect 21 0 12 0;
#X connect 22 0 0 0;
#X connect 23 0 1 0;
#X restore 193 456 pd loop-player;
#N canvas 64 64 760 730 loop-player 0;
#X obj 185 458 jl/gbend~;
#X obj 260 458 jl/gbend~;
#X floatatom 310 218 5 0 0 0 - - - 0;
#X obj 342 300 t f f;
#X obj 522 353 *~ 1;
#X obj 186 554 *~;
#X obj 261 554 *~;
#X obj 185 342 t a a;
#X obj 337 508 line~;
#X msg 337 483 \$1 10;
#X obj 340 458 hsl 162 19 0 1 0 0 empty empty empty -2 -10 0 12 #fcfcfc #000000 #000000 0 0;
#X obj 310 242 t f f;
#X msg 284 299 end \$1;
#X obj 147 245 loadbang;
#X msg 147 270 loop 1;
#X obj 187 610 outlet~;
#X obj 262 610 outlet~;
#X obj 185 139 t a;
#X obj 185 76 inlet;
#X obj 185 164 route volume sequence;
#X obj 521 75 inlet~;
#X msg 342 324 set loops-\$1-L;
#X msg 374 348 set loops-\$1-R;
#X obj 284 273 text get loops;
#X connect 0 0 5 0;
#X connect 1 0 6 0;
#X connect 2 0 11 0;
#X connect 3 0 21 0;
#X connect 3 1 22 0;
#X connect 4 0 0 0;
#X connect 4 0 1 0;
#X connect 5 0 15 0;
#X connect 6 0 16 0;
#X connect 7 0 0 0;
#X connect 7 1 1 0;
#X connect 8 0 5 1;
#X connect 8 0 6 1;
#X connect 9 0 8 0;
#X connect 10 0 9 0;
#X connect 11 0 23 0;
#X connect 11 1 3 0;
#X connect 12 0 7 0;
#X connect 13 0 14 0;
#X connect 14 0 7 0;
#X connect 17 0 19 0;
#X connect 18 0 17 0;
#X connect 19 0 10 0;
#X connect 19 1 2 0;
#X connect 19 2 7 0;
#X connect 20 0 4 0;
#X connect 21 0 0 0;
#X connect 22 0 1 0;
#X connect 23 0 12 0;
#X restore 303 456 pd loop-player;
#X floatatom 194 203 5 0 0 0 - - - 0;
#X obj 341 907 send~ loops-L;
#X obj 482 67 jl/map -0.5 0.5 0 1;
#X obj 482 92 clip 0 1;
#X obj 481 174 line~;
#X msg 481 149 \$1 5;
#X obj 481 119 jl/map 1 0 1.5 0.99 1;
#X msg 727 173 30;
#X msg 858 175 330;
#X msg 761 173 140;
#X msg 824 175 220;
#X msg 1031 416 1;
#X obj 1032 393 bng 19 250 50 0 empty empty empty 0 -10 0 12 #fcfcfc #000000 #000000;
#X obj 1032 369 loadbang;
#X floatatom 550 153 5 0 0 0 - - - 0;
#X obj 606 856 line~;
#X obj 340 812 *~;
#X obj 373 812 *~;
#X obj 605 831 pack f f;
#X floatatom 677 855 5 0 0 0 - - - 0;
#X obj 677 805 loadbang;
#X obj 194 165 t b a;
#X obj 141 163 t a;
#X obj 942 235 bng 19 250 50 0 empty empty empty 0 -10 0 12 #fcfcfc #000000 #000000;
#X obj 942 211 loadbang;
#X obj 481 43 r phorminx-accel-x-filtered;
#N canvas 64 64 760 730 loop-player 0;
#X obj 185 458 jl/gbend~;
#X obj 260 458 jl/gbend~;
#X floatatom 310 218 5 0 0 0 - - - 0;
#X obj 342 300 t f f;
#X obj 522 353 *~ 1;
#X obj 186 554 *~;
#X obj 261 554 *~;
#X obj 185 342 t a a;
#X obj 337 508 line~;
#X msg 337 483 \$1 10;
#X obj 340 458 hsl 162 19 0 1 0 0 empty empty empty -2 -10 0 12 #fcfcfc #000000 #000000 0 0;
#X obj 310 242 t f f;
#X msg 284 299 end \$1;
#X obj 147 245 loadbang;
#X msg 147 270 loop 1;
#X obj 187 610 outlet~;
#X obj 262 610 outlet~;
#X obj 185 139 t a;
#X obj 185 76 inlet;
#X obj 185 164 route volume sequence;
#X obj 521 75 inlet~;
#X obj 284 273 text get loops;
#X msg 342 324 set loops-\$1-L;
#X msg 374 348 set loops-\$1-R;
#X connect 0 0 5 0;
#X connect 1 0 6 0;
#X connect 2 0 11 0;
#X connect 3 0 22 0;
#X connect 3 1 23 0;
#X connect 4 0 0 0;
#X connect 4 0 1 0;
#X connect 5 0 15 0;
#X connect 6 0 16 0;
#X connect 7 0 0 0;
#X connect 7 1 1 0;
#X connect 8 0 5 1;
#X connect 8 0 6 1;
#X connect 9 0 8 0;
#X connect 10 0 9 0;
#X connect 11 0 21 0;
#X connect 11 1 3 0;
#X connect 12 0 7 0;
#X connect 13 0 14 0;
#X connect 14 0 7 0;
#X connect 17 0 19 0;
#X connect 18 0 17 0;
#X connect 19 0 10 0;
#X connect 19 1 2 0;
#X connect 19 2 7 0;
#X connect 20 0 4 0;
#X connect 21 0 12 0;
#X connect 22 0 0 0;
#X connect 23 0 1 0;
#X restore 425 456 pd loop-player;
#N canvas 64 64 760 730 loop-player 0;
#X obj 185 458 jl/gbend~;
#X obj 260 458 jl/gbend~;
#X floatatom 310 218 5 0 0 0 - - - 0;
#X obj 342 300 t f f;
#X obj 522 353 *~ 1;
#X obj 186 554 *~;
#X obj 261 554 *~;
#X obj 185 342 t a a;
#X obj 337 508 line~;
#X msg 337 483 \$1 10;
#X obj 340 458 hsl 162 19 0 1 0 0 empty empty empty -2 -10 0 12 #fcfcfc #000000 #000000 0 0;
#X obj 310 242 t f f;
#X msg 284 299 end \$1;
#X obj 147 245 loadbang;
#X msg 147 270 loop 1;
#X obj 187 610 outlet~;
#X obj 262 610 outlet~;
#X obj 185 139 t a;
#X obj 185 76 inlet;
#X obj 185 164 route volume sequence;
#X obj 521 75 inlet~;
#X msg 342 324 set loops-\$1-L;
#X msg 374 348 set loops-\$1-R;
#X obj 284 273 text get loops;
#X connect 0 0 5 0;
#X connect 1 0 6 0;
#X connect 2 0 11 0;
#X connect 3 0 21 0;
#X connect 3 1 22 0;
#X connect 4 0 0 0;
#X connect 4 0 1 0;
#X connect 5 0 15 0;
#X connect 6 0 16 0;
#X connect 7 0 0 0;
#X connect 7 1 1 0;
#X connect 8 0 5 1;
#X connect 8 0 6 1;
#X connect 9 0 8 0;
#X connect 10 0 9 0;
#X connect 11 0 23 0;
#X connect 11 1 3 0;
#X connect 12 0 7 0;
#X connect 13 0 14 0;
#X connect 14 0 7 0;
#X connect 17 0 19 0;
#X connect 18 0 17 0;
#X connect 19 0 10 0;
#X connect 19 1 2 0;
#X connect 19 2 7 0;
#X connect 20 0 4 0;
#X connect 21 0 0 0;
#X connect 22 0 1 0;
#X connect 23 0 12 0;
#X restore 535 456 pd loop-player;
#X obj 307 372 route 1 2 3 4;
#X obj 226 376 t a a a a;
#X msg 266 224 1 sequence \$1 \, 2 sequence \$2 \, 3 sequence \$3 \, 4 sequence \$4;
#N canvas 156 156 877 541 mmm-scale 0;
#X obj 166 206 moses;
#X obj 211 206 moses;
#X obj 214 298 bng 19 250 50 0 empty empty empty 0 -10 0 12 #fcfcfc #000000 #000000;
#X msg 214 324 0;
#X obj 256 206 moses;
#X obj 286 143 t f f;
#X obj 390 144 t f f;
#X obj 264 325 jl/map 0 1 0 1;
#X obj 331 143 t f f f;
#X obj 375 325 jl/map 0 1 1 0;
#X obj 264 382 t f;
#X msg 450 204 xfactor \$1;
#X msg 467 227 xfactor \$1;
#X obj 264 422 outlet;
#X obj 124 52 inlet input;
#X obj 259 52 inlet min;
#X obj 331 52 inlet mid;
#X obj 403 52 inlet max;
#X obj 592 77 * -1;
#X obj 485 52 inlet xfactor1;
#X obj 592 52 inlet xfactor2;
#X obj 700 52 inlet sfactor;
#X msg 485 250 sfactor \$1;
#X connect 0 0 2 0;
#X connect 0 1 1 0;
#X connect 1 0 7 0;
#X connect 1 1 4 0;
#X connect 2 0 3 0;
#X connect 3 0 10 0;
#X connect 4 0 9 0;
#X connect 4 1 2 0;
#X connect 5 0 0 1;
#X connect 5 1 7 1;
#X connect 6 0 4 1;
#X connect 6 1 9 2;
#X connect 7 0 10 0;
#X connect 8 0 1 1;
#X connect 8 1 7 2;
#X connect 8 2 9 1;
#X connect 9 0 10 0;
#X connect 10 0 13 0;
#X connect 11 0 7 0;
#X connect 12 0 9 0;
#X connect 14 0 0 0;
#X connect 15 0 5 0;
#X connect 16 0 8 0;
#X connect 17 0 6 0;
#X connect 18 0 12 0;
#X connect 19 0 11 0;
#X connect 20 0 18 0;
#X connect 21 0 22 0;
#X connect 22 0 7 0;
#X connect 22 0 9 0;
#X restore 1141 360 pd mmm-scale;
#X floatatom 1154 215 5 0 0 0 - - - 0;
#X floatatom 1195 215 5 0 0 0 - - - 0;
#X floatatom 1269 301 5 0 0 0 - - - 0;
#X floatatom 1309 301 5 0 0 0 - - - 0;
#X floatatom 1236 360 5 0 0 0 - - - 0;
#N canvas 156 156 877 541 mmm-scale 0;
#X obj 166 206 moses;
#X obj 211 206 moses;
#X obj 214 298 bng 19 250 50 0 empty empty empty 0 -10 0 12 #fcfcfc #000000 #000000;
#X msg 214 324 0;
#X obj 256 206 moses;
#X obj 286 143 t f f;
#X obj 390 144 t f f;
#X obj 264 325 jl/map 0 1 0 1;
#X obj 331 143 t f f f;
#X obj 375 325 jl/map 0 1 1 0;
#X obj 264 382 t f;
#X msg 450 204 xfactor \$1;
#X msg 467 227 xfactor \$1;
#X obj 264 422 outlet;
#X obj 124 52 inlet input;
#X obj 259 52 inlet min;
#X obj 331 52 inlet mid;
#X obj 403 52 inlet max;
#X obj 592 77 * -1;
#X obj 485 52 inlet xfactor1;
#X obj 592 52 inlet xfactor2;
#X obj 700 52 inlet sfactor;
#X msg 485 250 sfactor \$1;
#X connect 0 0 2 0;
#X connect 0 1 1 0;
#X connect 1 0 7 0;
#X connect 1 1 4 0;
#X connect 2 0 3 0;
#X connect 3 0 10 0;
#X connect 4 0 9 0;
#X connect 4 1 2 0;
#X connect 5 0 0 1;
#X connect 5 1 7 1;
#X connect 6 0 4 1;
#X connect 6 1 9 2;
#X connect 7 0 10 0;
#X connect 8 0 1 1;
#X connect 8 1 7 2;
#X connect 8 2 9 1;
#X connect 9 0 10 0;
#X connect 10 0 13 0;
#X connect 11 0 7 0;
#X connect 12 0 9 0;
#X connect 14 0 0 0;
#X connect 15 0 5 0;
#X connect 16 0 8 0;
#X connect 17 0 6 0;
#X connect 18 0 12 0;
#X connect 19 0 11 0;
#X connect 20 0 18 0;
#X connect 21 0 22 0;
#X connect 22 0 7 0;
#X connect 22 0 9 0;
#X restore 1136 393 pd mmm-scale;
#X floatatom 1237 215 5 0 0 0 - - - 0;
#X floatatom 1378 305 5 0 0 0 - - - 0;
#X floatatom 1418 305 5 0 0 0 - - - 0;
#X floatatom 1262 399 5 0 0 0 - - - 0;
#X obj 1204 122 bng 19 250 50 0 empty empty empty 0 -10 0 12 #fcfcfc #000000 #000000;
#X obj 1204 98 loadbang;
#X obj 1393 219 bng 19 250 50 0 empty empty empty 0 -10 0 12 #fcfcfc #000000 #000000;
#X obj 1393 195 loadbang;
#X msg 1338 435 1;
#X obj 1339 412 bng 19 250 50 0 empty empty empty 0 -10 0 12 #fcfcfc #000000 #000000;
#X obj 1339 388 loadbang;
#X obj 1321 200 bng 19 250 50 0 empty empty empty 0 -10 0 12 #fcfcfc #000000 #000000;
#X obj 1321 176 loadbang;
#X msg 1305 231 1;
#X floatatom 1106 307 5 0 0 0 - - - 0;
#X floatatom 1113 215 5 0 0 0 - - - 0;
#X msg 1124 166 -1;
#X msg 1158 166 -0.33;
#X msg 1221 168 0.33;
#X msg 1255 168 1;
#X msg 194 98 8 9 6 7;
#X obj 624 712 pack f f f f;
#X obj 611 623 t b f;
#X obj 664 644 t b f;
#X obj 712 677 t b f;
#X obj 570 570 r phorminx-btn-1;
#X obj 611 595 r phorminx-btn-2;
#X obj 664 620 r phorminx-btn-3;
#X obj 712 652 r phorminx-btn-4;
#X obj 605 776 expr $f1+$f2+$f3+$f4;
#X obj 624 737 unpack f f f f;
#X obj 605 804 != 0;
#X msg 1339 231 -1;
#X msg 1377 250 -1;
#X msg 960 266 -1;
#X msg 1005 303 -1;
#X msg 127 109 1 0 2 3;
#X obj 307 344 r looper-msgs;
#X obj 266 251 s looper-msgs;
#X obj 915 527 *;
#X obj 948 527 *;
#X obj 981 527 *;
#X obj 1014 527 *;
#X msg 978 591 1 \$1;
#X msg 1012 633 \$1 volume \$2;
#X msg 1018 591 2 \$1;
#X msg 1058 591 3 \$1;
#X msg 1096 591 4 \$1;
#X obj 1012 667 s looper-msgs;
#X obj 899 570 vsl 12 96 0 1 0 0 empty empty empty 0 -9 0 12 #fcfcfc #000000 #000000 0 0;
#X obj 915 570 vsl 12 96 0 1 0 0 empty empty empty 0 -9 0 12 #fcfcfc #000000 #000000 0 0;
#X obj 931 570 vsl 12 96 0 1 0 0 empty empty empty 0 -9 0 12 #fcfcfc #000000 #000000 0 0;
#X obj 947 570 vsl 12 96 0 1 0 0 empty empty empty 0 -9 0 12 #fcfcfc #000000 #000000 0 0;
#X obj 259 623 *~ 1;
#X obj 296 622 *~ 1;
#X obj 470 620 *~ 1;
#X obj 509 620 *~ 1;
#X msg 1409 250 3;
#X msg 926 266 3;
#X text 109 130 nature mouche;
#X obj 25 26 r loopers-mode;
#X obj 25 106 sel 0;
#X obj 70 107 t b f;
#X obj 28 270 s loopers-enable;
#X msg 40 132 0;
#X msg 73 132 1;
#N canvas 260 260 450 300 makelist 0;
#X obj 164 107 t b f;
#X floatatom 166 79 5 0 0 0 - - - 0;
#X floatatom 123 81 5 0 0 0 - - - 0;
#X obj 139 160 pack f f f f;
#X obj 207 111 t b f;
#X floatatom 209 83 5 0 0 0 - - - 0;
#X obj 250 115 t b f;
#X floatatom 252 87 5 0 0 0 - - - 0;
#X obj 154 209 outlet;
#X obj 67 29 inlet;
#X obj 154 28 inlet;
#X obj 225 26 inlet;
#X obj 303 18 inlet;
#X connect 0 0 3 0;
#X connect 0 1 3 1;
#X connect 1 0 0 0;
#X connect 2 0 3 0;
#X connect 3 0 8 0;
#X connect 4 0 3 0;
#X connect 4 1 3 2;
#X connect 5 0 4 0;
#X connect 6 0 3 0;
#X connect 6 1 3 3;
#X connect 7 0 6 0;
#X connect 9 0 3 0;
#X connect 10 0 0 0;
#X connect 11 0 4 0;
#X connect 12 0 6 0;
#X restore 244 164 pd makelist;
#X obj 905 27 r loopers-enable;
#X obj 935 103 spigot;
#X obj 988 53 r phorminx-azimuth;
#X msg 967 454 0;
#X obj 987 109 spigot;
#X obj 1025 78 r phorminx-inclination;
#X obj 23 68 hradio 19 1 0 6 empty empty empty 0 -10 0 12 #fcfcfc #000000 #000000 0;
#X msg 158 68 0 2 4 5;
#X text 218 67 nuit grenouilles;
#X obj 906 52 t f f f;
#X obj 892 98 sel 0;
#X text 210 117 gyorgy 1;
#X text 285 112 gyorgy 2;
#X msg 269 93 10 10 6 7;
#X obj 339 843 *~ 1.5;
#X obj 394 843 *~ 1.5;
#X obj 374 881 send~ loops-R;
#X msg 677 830 1234;
#X text 370 102 gyorgy flutes;
#X msg 354 83 11 11 6 7;
#X obj 133 28 sel 1 2 3 4 5;
#X connect 0 0 52 0;
#X connect 1 0 52 0;
#X connect 2 0 52 0;
#X connect 3 0 100 0;
#X connect 3 0 102 0;
#X connect 4 0 3 1;
#X connect 5 0 3 2;
#X connect 5 0 11 1;
#X connect 6 0 3 3;
#X connect 6 0 11 2;
#X connect 7 0 3 4;
#X connect 8 0 3 5;
#X connect 9 0 3 0;
#X connect 9 0 11 0;
#X connect 10 0 3 6;
#X connect 11 0 103 0;
#X connect 11 0 101 0;
#X connect 12 0 11 3;
#X connect 13 0 11 4;
#X connect 14 0 11 5;
#X connect 15 0 11 6;
#X connect 16 0 30 0;
#X connect 16 0 32 0;
#X connect 16 0 33 0;
#X connect 16 0 31 0;
#X connect 17 0 16 0;
#X connect 18 0 14 0;
#X connect 19 0 96 0;
#X connect 19 0 18 0;
#X connect 20 0 19 0;
#X connect 21 0 114 0;
#X connect 21 1 115 0;
#X connect 22 0 114 0;
#X connect 22 1 115 0;
#X connect 23 0 2 0;
#X connect 25 0 26 0;
#X connect 26 0 29 0;
#X connect 27 0 22 1;
#X connect 27 0 21 1;
#X connect 27 0 49 1;
#X connect 27 0 50 1;
#X connect 28 0 27 0;
#X connect 29 0 28 0;
#X connect 29 0 37 0;
#X connect 30 0 4 0;
#X connect 31 0 12 0;
#X connect 32 0 5 0;
#X connect 33 0 6 0;
#X connect 34 0 15 0;
#X connect 34 0 10 0;
#X connect 35 0 34 0;
#X connect 36 0 35 0;
#X connect 38 0 39 1;
#X connect 38 0 40 1;
#X connect 39 0 142 0;
#X connect 40 0 143 0;
#X connect 41 0 38 0;
#X connect 42 0 41 1;
#X connect 43 0 145 0;
#X connect 44 0 0 0;
#X connect 44 1 53 0;
#X connect 45 0 44 0;
#X connect 46 0 119 0;
#X connect 46 0 95 0;
#X connect 47 0 46 0;
#X connect 48 0 25 0;
#X connect 49 0 116 0;
#X connect 49 1 117 0;
#X connect 50 0 116 0;
#X connect 50 1 117 0;
#X connect 51 0 21 0;
#X connect 51 1 22 0;
#X connect 51 2 49 0;
#X connect 51 3 50 0;
#X connect 52 0 21 0;
#X connect 52 1 22 0;
#X connect 52 2 49 0;
#X connect 52 3 50 0;
#X connect 53 0 99 0;
#X connect 54 0 100 1;
#X connect 54 0 101 1;
#X connect 55 0 54 2;
#X connect 55 0 60 1;
#X connect 56 0 54 3;
#X connect 56 0 60 2;
#X connect 57 0 54 4;
#X connect 58 0 54 5;
#X connect 59 0 54 6;
#X connect 60 0 103 1;
#X connect 60 0 102 1;
#X connect 61 0 60 3;
#X connect 62 0 60 4;
#X connect 63 0 60 5;
#X connect 64 0 60 6;
#X connect 65 0 77 0;
#X connect 65 0 78 0;
#X connect 65 0 79 0;
#X connect 65 0 80 0;
#X connect 66 0 65 0;
#X connect 67 0 94 0;
#X connect 67 0 118 0;
#X connect 68 0 67 0;
#X connect 69 0 64 0;
#X connect 69 0 59 0;
#X connect 70 0 69 0;
#X connect 71 0 70 0;
#X connect 72 0 74 0;
#X connect 72 0 93 0;
#X connect 73 0 72 0;
#X connect 74 0 57 0;
#X connect 75 0 54 0;
#X connect 75 0 60 0;
#X connect 76 0 54 1;
#X connect 77 0 76 0;
#X connect 78 0 55 0;
#X connect 79 0 56 0;
#X connect 80 0 61 0;
#X connect 81 0 45 0;
#X connect 82 0 91 0;
#X connect 83 0 82 0;
#X connect 83 1 82 1;
#X connect 84 0 82 0;
#X connect 84 1 82 2;
#X connect 85 0 82 0;
#X connect 85 1 82 3;
#X connect 86 0 82 0;
#X connect 87 0 83 0;
#X connect 88 0 84 0;
#X connect 89 0 85 0;
#X connect 90 0 92 0;
#X connect 91 0 90 0;
#X connect 91 1 90 1;
#X connect 91 2 90 2;
#X connect 91 3 90 3;
#X connect 92 0 41 0;
#X connect 93 0 58 0;
#X connect 94 0 62 0;
#X connect 95 0 8 0;
#X connect 96 0 13 0;
#X connect 97 0 45 0;
#X connect 98 0 51 0;
#X connect 100 0 104 0;
#X connect 100 0 110 0;
#X connect 101 0 111 0;
#X connect 101 0 106 0;
#X connect 102 0 112 0;
#X connect 102 0 107 0;
#X connect 103 0 108 0;
#X connect 103 0 113 0;
#X connect 104 0 105 0;
#X connect 105 0 109 0;
#X connect 106 0 105 0;
#X connect 107 0 105 0;
#X connect 108 0 105 0;
#X connect 114 0 39 0;
#X connect 115 0 40 0;
#X connect 116 0 39 0;
#X connect 117 0 40 0;
#X connect 118 0 63 0;
#X connect 119 0 7 0;
#X connect 121 0 134 0;
#X connect 122 0 125 0;
#X connect 122 1 123 0;
#X connect 123 0 126 0;
#X connect 123 1 148 0;
#X connect 125 0 124 0;
#X connect 126 0 124 0;
#X connect 127 0 44 0;
#X connect 128 0 137 0;
#X connect 129 0 9 0;
#X connect 130 0 129 0;
#X connect 131 0 100 0;
#X connect 131 0 101 0;
#X connect 131 0 102 0;
#X connect 131 0 103 0;
#X connect 132 0 75 0;
#X connect 133 0 132 0;
#X connect 134 0 122 0;
#X connect 135 0 45 0;
#X connect 137 0 138 0;
#X connect 137 1 129 1;
#X connect 137 2 132 1;
#X connect 138 0 131 0;
#X connect 141 0 45 0;
#X connect 142 0 24 0;
#X connect 143 0 144 0;
#X connect 145 0 42 0;
#X connect 147 0 45 0;
#X connect 148 0 97 0;
#X connect 148 1 135 0;
#X connect 148 2 81 0;
#X connect 148 3 141 0;
#X connect 148 4 147 0;
#X restore 140 251 pd loopers;
#N canvas 304 145 893 908 loops-soundbank 0;
#X obj 113 114 openpanel 1;
#X obj 113 234 hcs/folder_list;
#X obj 113 209 makefilename %s/*.wav;
#X obj 185 399 f;
#X obj 214 399 + 1;
#X floatatom 246 426 5 0 0 0 - - - 0;
#X obj 113 571 soundfiler;
#X obj 113 519 pack s s s;
#X obj 113 263 t s b;
#X msg 113 545 read -resize \$1 \$2 \$3;
#X obj 180 620 * 0.001;
#X msg 180 596 \$1;
#X obj 113 656 /;
#X obj 185 425 t f f f;
#X obj 226 707 pack f f;
#X obj 226 755 unpack f f;
#X msg 226 731 \$1 \$2;
#X msg 243 290 -1;
#X obj 113 78 t b b b;
#X msg 221 355 0;
#X obj 113 30 inlet;
#X msg 346 140 C:/Users/joseph/Projects/git-repositories/scrime-u-bordeaux/Thyrse/Sons/loops;
#X obj 362 79 makefilename %s;
#X msg 362 103 set \$1;
#X obj 330 38 loadbang;
#X obj 346 177 symbol;
#X obj 243 316 text delete loops;
#X obj 185 450 makefilename loops-%d-L;
#X obj 208 475 makefilename loops-%d-R;
#X obj 226 789 text set loops;
#X obj 117 840 clone -s 0 stereo-soundbank-unit 72 loops;
#X obj 293 585 text define loops;
#X connect 0 0 2 0;
#X connect 0 0 22 0;
#X connect 1 0 8 0;
#X connect 2 0 1 0;
#X connect 3 0 4 0;
#X connect 3 0 13 0;
#X connect 4 0 3 1;
#X connect 6 0 12 0;
#X connect 6 1 11 0;
#X connect 7 0 9 0;
#X connect 8 0 7 0;
#X connect 8 1 3 0;
#X connect 9 0 6 0;
#X connect 10 0 12 1;
#X connect 11 0 10 0;
#X connect 12 0 14 0;
#X connect 13 0 27 0;
#X connect 13 1 28 0;
#X connect 13 2 5 0;
#X connect 13 2 14 1;
#X connect 14 0 16 0;
#X connect 15 0 29 0;
#X connect 15 1 29 1;
#X connect 16 0 15 0;
#X connect 17 0 26 0;
#X connect 18 0 0 0;
#X connect 18 1 19 0;
#X connect 18 2 17 0;
#X connect 19 0 3 1;
#X connect 20 0 18 0;
#X connect 21 0 25 0;
#X connect 22 0 23 0;
#X connect 23 0 21 0;
#X connect 24 0 21 0;
#X connect 25 0 2 0;
#X connect 27 0 7 1;
#X connect 28 0 7 2;
#X restore 357 212 pd loops-soundbank;
#N canvas 49 50 1015 404 archive 0;
#X obj 334 202 tgl 19 0 empty empty empty 0 -10 0 12 #fcfcfc #000000 #000000 0 1;
#N canvas 373 407 643 432 calibrate-accels 0;
#N canvas 96 96 450 300 bounds 0;
#X obj 171 162 <;
#X obj 132 189 spigot;
#X obj 132 132 t f f;
#X obj 207 188 spigot;
#X obj 207 131 t f f;
#X obj 246 161 >;
#X obj 132 46 inlet;
#X obj 189 45 inlet;
#X obj 264 45 inlet;
#X obj 132 223 outlet;
#X obj 207 222 outlet;
#X obj 132 75 t f f;
#X connect 0 0 1 1;
#X connect 1 0 0 1;
#X connect 1 0 9 0;
#X connect 2 0 1 0;
#X connect 2 1 0 0;
#X connect 3 0 5 1;
#X connect 3 0 10 0;
#X connect 4 0 3 0;
#X connect 4 1 5 0;
#X connect 5 0 3 1;
#X connect 6 0 11 0;
#X connect 7 0 0 1;
#X connect 8 0 5 1;
#X connect 11 0 2 0;
#X connect 11 1 4 0;
#X restore 115 253 pd bounds;
#X obj 145 223 t f f;
#N canvas 96 96 450 300 bounds 0;
#X obj 171 162 <;
#X obj 132 189 spigot;
#X obj 132 132 t f f;
#X obj 207 188 spigot;
#X obj 207 131 t f f;
#X obj 246 161 >;
#X obj 132 46 inlet;
#X obj 189 45 inlet;
#X obj 264 45 inlet;
#X obj 132 223 outlet;
#X obj 207 222 outlet;
#X obj 132 75 t f f;
#X connect 0 0 1 1;
#X connect 1 0 0 1;
#X connect 1 0 9 0;
#X connect 2 0 1 0;
#X connect 2 1 0 0;
#X connect 3 0 5 1;
#X connect 3 0 10 0;
#X connect 4 0 3 0;
#X connect 4 1 5 0;
#X connect 5 0 3 1;
#X connect 6 0 11 0;
#X connect 7 0 0 1;
#X connect 8 0 5 1;
#X connect 11 0 2 0;
#X connect 11 1 4 0;
#X restore 218 252 pd bounds;
#X obj 248 222 t f f;
#N canvas 96 96 450 300 bounds 0;
#X obj 171 162 <;
#X obj 132 189 spigot;
#X obj 132 132 t f f;
#X obj 207 188 spigot;
#X obj 207 131 t f f;
#X obj 246 161 >;
#X obj 132 46 inlet;
#X obj 189 45 inlet;
#X obj 264 45 inlet;
#X obj 132 223 outlet;
#X obj 207 222 outlet;
#X obj 132 75 t f f;
#X connect 0 0 1 1;
#X connect 1 0 0 1;
#X connect 1 0 9 0;
#X connect 2 0 1 0;
#X connect 2 1 0 0;
#X connect 3 0 5 1;
#X connect 3 0 10 0;
#X connect 4 0 3 0;
#X connect 4 1 5 0;
#X connect 5 0 3 1;
#X connect 6 0 11 0;
#X connect 7 0 0 1;
#X connect 8 0 5 1;
#X connect 11 0 2 0;
#X connect 11 1 4 0;
#X restore 321 250 pd bounds;
#X obj 351 220 t f f;
#X obj 115 184 spigot;
#X obj 218 184 spigot;
#X obj 321 184 spigot;
#X obj 115 39 inlet;
#X obj 159 39 inlet;
#X obj 202 39 inlet;
#X obj 266 39 inlet;
#X obj 360 39 inlet;
#X obj 115 290 pack f f;
#X obj 115 317 outlet;
#X obj 218 290 pack f f;
#X obj 218 317 outlet;
#X obj 321 290 pack f f;
#X obj 321 317 outlet;
#X connect 0 0 14 0;
#X connect 0 1 14 1;
#X connect 1 0 0 1;
#X connect 1 1 0 2;
#X connect 2 0 16 0;
#X connect 2 1 16 1;
#X connect 3 0 2 1;
#X connect 3 1 2 2;
#X connect 4 0 18 0;
#X connect 4 1 18 1;
#X connect 5 0 4 1;
#X connect 5 1 4 2;
#X connect 6 0 0 0;
#X connect 7 0 2 0;
#X connect 8 0 4 0;
#X connect 9 0 6 0;
#X connect 10 0 7 0;
#X connect 11 0 8 0;
#X connect 12 0 1 0;
#X connect 12 0 3 0;
#X connect 12 0 5 0;
#X connect 13 0 6 1;
#X connect 13 0 7 1;
#X connect 13 0 8 1;
#X connect 14 0 15 0;
#X connect 16 0 17 0;
#X connect 18 0 19 0;
#X restore 189 202 pd calibrate-accels;
#X text 325 169 reset to center value;
#X text 359 201 enable calibration;
#X obj 189 94 r phorminx-accel-z;
#X obj 221 117 r phorminx-accel-y;
#X obj 254 140 r phorminx-accel-x;
#X floatatom 102 316 9 0 0 0 - - - 0;
#X floatatom 169 316 9 0 0 0 - - - 0;
#X obj 102 289 unpack f f;
#X floatatom 254 316 9 0 0 0 - - - 0;
#X floatatom 321 316 9 0 0 0 - - - 0;
#X obj 254 289 unpack f f;
#X floatatom 407 316 9 0 0 0 - - - 0;
#X floatatom 474 316 9 0 0 0 - - - 0;
#X obj 407 289 unpack f f;
#X msg 286 170 0;
#X obj 639 148 r phorminx-inclination;
#X obj 639 175 r phorminx-rotation;
#X obj 639 202 r phorminx-hit;
#X obj 639 87 r phorminx-breath;
#X obj 640 113 r phorminx-knob;
#X obj 639 260 r phorminx-btn-2;
#X obj 639 284 r phorminx-btn-3;
#X obj 639 309 r phorminx-btn-4;
#X obj 638 236 r phorminx-btn-1;
#X obj 778 218 r phorminx-accel-x;
#X obj 779 242 r phorminx-accel-y;
#X obj 779 266 r phorminx-accel-z;
#X text 653 47 all receives from phorminx controller :;
#X text 138 43 accelerometer calibration attempt \, but no use since we already know that each axis resolution is -2/+2 G;
#X connect 0 0 1 4;
#X connect 1 0 9 0;
#X connect 1 1 12 0;
#X connect 1 2 15 0;
#X connect 4 0 1 0;
#X connect 5 0 1 1;
#X connect 6 0 1 2;
#X connect 9 0 7 0;
#X connect 9 1 8 0;
#X connect 12 0 10 0;
#X connect 12 1 11 0;
#X connect 15 0 13 0;
#X connect 15 1 14 0;
#X connect 16 0 1 3;
#X restore 357 104 pd archive;
#N canvas 630 353 1036 778 pan 0;
#X msg 413 434 f0 \$1;
#X msg 463 434 cutoffratio \$1;
#X msg 574 434 Q \$1;
#X floatatom 414 410 5 0 0 0 - - - 0;
#X floatatom 463 409 5 0 0 0 - - - 0;
#X floatatom 575 410 5 0 0 0 - - - 0;
#X obj 497 482 t a;
#X floatatom 667 378 5 0 0 0 - - - 0;
#X floatatom 729 377 5 0 0 0 - - - 0;
#X obj 697 444 t a;
#X msg 666 402 flow \$1;
#X msg 729 402 noise \$1;
#X floatatom 744 498 5 0 0 0 - - - 0;
#X floatatom 806 497 5 0 0 0 - - - 0;
#X obj 774 564 t a;
#X msg 743 522 emb \$1;
#X msg 806 522 bore \$1;
#X msg 744 471 0.9;
#X msg 806 470 0.1;
#X msg 667 338 0.85;
#X obj 907 371 loadbang;
#X obj 905 395 bng 19 250 50 0 empty empty empty 0 -10 0 12 #fcfcfc #000000 #000000;
#X obj 621 35 r phorminx-breath;
#X msg 513 99 xfactor \$1;
#X floatatom 513 75 5 0 0 0 - - - 0;
#X obj 83 125 r phorminx-btn-1;
#X obj 126 156 r phorminx-btn-2;
#X obj 165 189 r phorminx-btn-3;
#X obj 222 222 r phorminx-btn-4;
#X obj 126 182 * 2;
#X obj 165 214 * 3;
#X obj 222 247 * 4;
#X obj 95 286 +;
#X obj 114 251 t b f;
#X obj 146 327 +;
#X obj 165 292 t b f;
#X obj 195 357 +;
#X obj 214 322 t b f;
#X obj 217 440 mtof;
#X msg 184 412 0;
#X floatatom 278 327 5 0 0 0 - - - 0;
#X msg 729 338 32;
#X obj 580 700 send~ slideflute;
#X obj 570 637 slideflute~;
#X obj 621 100 pow 0.5;
#X msg 783 102 xfactor \$1;
#X floatatom 783 78 5 0 0 0 - - - 0;
#X floatatom 868 82 5 0 0 0 - - - 0;
#X msg 868 106 sfactor \$1;
#X floatatom 701 71 10 0 0 0 - - - 0;
#X obj 574 244 clip 0 1;
#X obj 728 166 jl/map 0 1 0 0.85 -3 1;
#X msg 575 380 1.5;
#X obj 538 168 jl/map 0 1 0.5 20 1.5 1;
#X obj 216 412 + 48.4;
#X msg 350 245 48.4 1.5;
#X msg 372 278 70 2;
#X text 417 278 pipeau;
#X text 419 244 overtone;
#X obj 365 349 unpack f f;
#X obj 325 68 r pan-mode;
#X obj 325 93 vradio 19 1 0 4 empty empty empty 0 -10 0 12 #fcfcfc #000000 #000000 0;
#X text 483 315 wobsynth;
#X msg 399 316 26.29 0.75;
#X obj 235 382 t b f;
#X obj 574 219 jl/map 0.021 1 0 1;
#X obj 380 195 sel 0 1 2 3;
#X obj 352 108 sel 0;
#X obj 394 108 t b f;
#X msg 394 133 1;
#X msg 352 133 0;
#X obj 368 165 s pan-enable;
#X text 261 92 0 : off;
#X connect 0 0 6 0;
#X connect 1 0 6 0;
#X connect 2 0 6 0;
#X connect 3 0 0 0;
#X connect 4 0 1 0;
#X connect 5 0 2 0;
#X connect 6 0 43 0;
#X connect 7 0 10 0;
#X connect 8 0 11 0;
#X connect 9 0 43 0;
#X connect 10 0 9 0;
#X connect 11 0 9 0;
#X connect 12 0 15 0;
#X connect 13 0 16 0;
#X connect 14 0 43 0;
#X connect 15 0 14 0;
#X connect 16 0 14 0;
#X connect 17 0 12 0;
#X connect 18 0 13 0;
#X connect 19 0 7 0;
#X connect 20 0 21 0;
#X connect 21 0 18 0;
#X connect 21 0 17 0;
#X connect 21 0 41 0;
#X connect 21 0 19 0;
#X connect 21 0 52 0;
#X connect 22 0 49 0;
#X connect 22 0 65 0;
#X connect 23 0 53 0;
#X connect 24 0 23 0;
#X connect 25 0 32 0;
#X connect 26 0 29 0;
#X connect 27 0 30 0;
#X connect 28 0 31 0;
#X connect 29 0 33 0;
#X connect 30 0 35 0;
#X connect 31 0 37 0;
#X connect 32 0 34 0;
#X connect 33 0 32 0;
#X connect 33 1 32 1;
#X connect 34 0 36 0;
#X connect 35 0 34 0;
#X connect 35 1 34 1;
#X connect 36 0 54 0;
#X connect 37 0 36 0;
#X connect 37 1 36 1;
#X connect 38 0 3 0;
#X connect 39 0 54 0;
#X connect 40 0 64 0;
#X connect 41 0 8 0;
#X connect 43 0 42 0;
#X connect 44 0 51 0;
#X connect 44 0 53 0;
#X connect 45 0 51 0;
#X connect 46 0 45 0;
#X connect 47 0 48 0;
#X connect 48 0 51 0;
#X connect 50 0 44 0;
#X connect 51 0 7 0;
#X connect 52 0 5 0;
#X connect 53 0 4 0;
#X connect 54 0 38 0;
#X connect 55 0 59 0;
#X connect 56 0 59 0;
#X connect 59 0 40 0;
#X connect 59 1 5 0;
#X connect 60 0 61 0;
#X connect 61 0 67 0;
#X connect 63 0 59 0;
#X connect 64 0 54 0;
#X connect 64 1 54 1;
#X connect 65 0 50 0;
#X connect 66 1 55 0;
#X connect 66 2 56 0;
#X connect 66 3 63 0;
#X connect 67 0 70 0;
#X connect 67 1 68 0;
#X connect 68 0 69 0;
#X connect 68 1 66 0;
#X connect 69 0 71 0;
#X connect 70 0 71 0;
#X restore 219 251 pd pan;
#X floatatom 195 382 5 0 0 0 lune\ n° - - 24;
#X symbolatom 325 382 10 0 0 0 : - - 24;
#X text 279 453 code PC donatien "0709";
#N canvas 182 182 744 649 lunes 0;
#X obj 67 448 hsl 162 19 0 1 0 0 empty empty empty -2 -10 0 12 #fcfcfc #000000 #000000 0 0;
#X msg 64 474 volume \$1;
#N canvas 64 64 760 730 lune-player 0;
#X obj 185 458 jl/gbend~;
#X obj 260 458 jl/gbend~;
#X floatatom 310 218 5 0 0 0 - - - 0;
#X obj 342 300 t f f;
#X obj 522 353 *~ 1;
#X obj 186 554 *~;
#X obj 261 554 *~;
#X obj 185 342 t a a;
#X obj 337 508 line~;
#X msg 337 483 \$1 10;
#X obj 340 458 hsl 162 19 0 1 0 0 empty empty empty -2 -10 0 12 #fcfcfc #000000 #000000 0 0;
#X obj 310 242 t f f;
#X msg 284 299 end \$1;
#X obj 147 245 loadbang;
#X msg 147 270 loop 1;
#X obj 284 273 text get lunes;
#X msg 342 324 set lunes-\$1-L;
#X msg 374 348 set lunes-\$1-R;
#X obj 185 139 t a;
#X obj 185 76 inlet;
#X obj 185 164 route volume sequence;
#X obj 521 75 inlet~;
#X obj 185 624 outlet~;
#X obj 261 624 outlet~;
#X connect 0 0 5 0;
#X connect 1 0 6 0;
#X connect 2 0 11 0;
#X connect 3 0 16 0;
#X connect 3 1 17 0;
#X connect 4 0 0 0;
#X connect 4 0 1 0;
#X connect 5 0 22 0;
#X connect 6 0 23 0;
#X connect 7 0 0 0;
#X connect 7 1 1 0;
#X connect 8 0 5 1;
#X connect 8 0 6 1;
#X connect 9 0 8 0;
#X connect 10 0 9 0;
#X connect 11 0 15 0;
#X connect 11 1 3 0;
#X connect 12 0 7 0;
#X connect 13 0 14 0;
#X connect 14 0 7 0;
#X connect 15 0 12 0;
#X connect 16 0 0 0;
#X connect 17 0 1 0;
#X connect 18 0 20 0;
#X connect 19 0 18 0;
#X connect 20 0 10 0;
#X connect 20 1 2 0;
#X connect 20 2 7 0;
#X connect 21 0 4 0;
#X restore 141 409 pd lune-player;
#X obj 231 574 send~ lunes-L;
#X obj 334 574 send~ lunes-R;
#X msg 120 315 stop;
#X floatatom 372 113 5 0 0 0 - - - 0;
#X obj 271 31 r lune-sequence;
#X obj 532 85 hsl 162 19 0 1 0 0 empty empty empty -2 -10 0 12 #fcfcfc #000000 #000000 0 0;
#X msg 529 111 volume \$1;
#N canvas 64 64 760 730 lune-player 0;
#X obj 185 458 jl/gbend~;
#X obj 260 458 jl/gbend~;
#X floatatom 310 218 5 0 0 0 - - - 0;
#X obj 342 300 t f f;
#X obj 522 353 *~ 1;
#X obj 186 554 *~;
#X obj 261 554 *~;
#X obj 185 342 t a a;
#X obj 337 508 line~;
#X msg 337 483 \$1 10;
#X obj 340 458 hsl 162 19 0 1 0 0 empty empty empty -2 -10 0 12 #fcfcfc #000000 #000000 0 0;
#X obj 310 242 t f f;
#X msg 284 299 end \$1;
#X obj 147 245 loadbang;
#X msg 147 270 loop 1;
#X obj 284 273 text get lunes;
#X msg 342 324 set lunes-\$1-L;
#X msg 374 348 set lunes-\$1-R;
#X obj 185 139 t a;
#X obj 185 76 inlet;
#X obj 185 164 route volume sequence;
#X obj 521 75 inlet~;
#X obj 185 624 outlet~;
#X obj 261 624 outlet~;
#X connect 0 0 5 0;
#X connect 1 0 6 0;
#X connect 2 0 11 0;
#X connect 3 0 16 0;
#X connect 3 1 17 0;
#X connect 4 0 0 0;
#X connect 4 0 1 0;
#X connect 5 0 22 0;
#X connect 6 0 23 0;
#X connect 7 0 0 0;
#X connect 7 1 1 0;
#X connect 8 0 5 1;
#X connect 8 0 6 1;
#X connect 9 0 8 0;
#X connect 10 0 9 0;
#X connect 11 0 15 0;
#X connect 11 1 3 0;
#X connect 12 0 7 0;
#X connect 13 0 14 0;
#X connect 14 0 7 0;
#X connect 15 0 12 0;
#X connect 16 0 0 0;
#X connect 17 0 1 0;
#X connect 18 0 20 0;
#X connect 19 0 18 0;
#X connect 20 0 10 0;
#X connect 20 1 2 0;
#X connect 20 2 7 0;
#X connect 21 0 4 0;
#X restore 353 409 pd lune-player;
#X obj 271 187 route 0 1;
#X obj 271 163 pack f f;
#X obj 301 127 == 0;
#X obj 256 102 f;
#X obj 256 127 t f f;
#X obj 271 60 t b f;
#X msg 361 256 sequence \$1 \, bang;
#X obj 304 216 t b f;
#X msg 283 284 sequence \$1 \, bang;
#X obj 259 216 t b f;
#X msg 335 315 stop;
#X obj 120 193 r lune-stop;
#X obj 120 220 bng 19 250 50 0 empty empty empty 0 -10 0 12 #fcfcfc #000000 #000000;
#X msg 527 56 1;
#X obj 540 206 t a a;
#X floatatom 573 145 5 0 0 0 - - - 0;
#X obj 377 439 hsl 162 19 0 1 0 0 empty empty empty -2 -10 0 12 #fcfcfc #000000 #000000 0 0;
#X msg 374 465 volume \$1;
#X msg 573 171 fadi \$1;
#X floatatom 636 146 5 0 0 0 - - - 0;
#X msg 636 172 fado \$1;
#X obj 523 6 loadbang;
#X msg 565 55 5000;
#X msg 608 54 7500;
#X connect 0 0 1 0;
#X connect 1 0 2 0;
#X connect 2 0 3 0;
#X connect 2 1 4 0;
#X connect 5 0 2 0;
#X connect 6 0 12 1;
#X connect 7 0 16 0;
#X connect 8 0 9 0;
#X connect 9 0 25 0;
#X connect 10 0 3 0;
#X connect 10 1 4 0;
#X connect 11 0 20 0;
#X connect 11 1 18 0;
#X connect 12 0 11 0;
#X connect 13 0 14 1;
#X connect 14 0 15 0;
#X connect 15 0 12 0;
#X connect 15 1 13 0;
#X connect 16 0 14 0;
#X connect 16 1 6 0;
#X connect 17 0 10 0;
#X connect 18 0 5 0;
#X connect 18 1 17 0;
#X connect 19 0 2 0;
#X connect 20 0 21 0;
#X connect 20 1 19 0;
#X connect 21 0 10 0;
#X connect 22 0 23 0;
#X connect 23 0 5 0;
#X connect 23 0 21 0;
#X connect 24 0 8 0;
#X connect 25 0 2 0;
#X connect 25 1 10 0;
#X connect 26 0 29 0;
#X connect 27 0 28 0;
#X connect 28 0 10 0;
#X connect 29 0 25 0;
#X connect 30 0 31 0;
#X connect 31 0 25 0;
#X connect 32 0 24 0;
#X connect 32 0 33 0;
#X connect 32 0 34 0;
#X connect 33 0 26 0;
#X connect 34 0 30 0;
#X restore 75 251 pd lunes;
#N canvas 260 260 450 300 percu 0;
#X text 56 72 TODO (gong/cymbol/drum/whatever physical model);
#X text 58 105 see Gipsa Lab's mi-creative libraries;
#X restore 270 251 pd percu;
#X floatatom 195 312 5 0 0 1 premiere\ lune - - 24;
#X obj 80 449 bng 19 250 50 0 empty empty empty 0 -10 0 12 #fcfcfc #000000 #000000;
#X obj 80 474 s lune-stop;
#X connect 0 0 1 0;
#X connect 7 0 10 0;
#X connect 8 0 13 0;
#X connect 8 1 14 0;
#X connect 18 0 8 0;
#X connect 19 0 20 0;
